<?xml version="1.0" encoding="utf-8"?>
<!-- Generator: Adobe Illustrator 16.0.0, SVG Export Plug-In . SVG Version: 6.00 Build 0)  -->
<!DOCTYPE svg PUBLIC "-//W3C//DTD SVG 1.1//EN" "http://www.w3.org/Graphics/SVG/1.1/DTD/svg11.dtd">
<svg version="1.1" id="Layer_1" xmlns="http://www.w3.org/2000/svg" xmlns:xlink="http://www.w3.org/1999/xlink" x="0px" y="0px"
	 width="358.5px" height="317.5px" viewBox="-258.5 -217.5 358.5 317.5" enable-background="new -258.5 -217.5 358.5 317.5"
	 xml:space="preserve">
<path fill="#FF4DFF" d="M-188.785,97.995H100.43V45.938h-289.214V97.995z M71.508,60.396c6.39,0,11.57,5.177,11.57,11.569
	s-5.181,11.567-11.57,11.567c-6.389,0-11.569-5.175-11.569-11.567S65.119,60.396,71.508,60.396z M36.802,60.396
	c6.39,0,11.57,5.177,11.57,11.569s-5.18,11.567-11.57,11.567s-11.566-5.175-11.566-11.567S30.412,60.396,36.802,60.396z
	 M2.096,60.396c6.39,0,11.569,5.177,11.569,11.569S8.485,83.532,2.096,83.532S-9.471,78.357-9.471,71.965
	S-4.294,60.396,2.096,60.396z"/>
<path fill="#FF4DFF" d="M54.156-124.7H-2.691v25.761H7.374c6.806,0,12.796,3.76,15.634,9.816c2.947,6.298,1.94,13.857-2.56,19.263
	L-5.374-38.839L-31.095-7.94c-3.299,3.972-7.83,6.159-12.762,6.159c-0.108,0-0.216,0-0.322-0.006
	c-0.108,0.006-0.215,0.006-0.322,0.006c-4.915,0-9.439-2.18-12.754-6.15L-108.8-69.855c-4.508-5.406-5.513-12.97-2.566-19.268
	c2.836-6.054,8.825-9.816,15.633-9.816h10.062V-124.7h-56.84l-46.274,159.068H100.43L54.156-124.7z"/>
<path fill="#FF4DFF" d="M-99.914-77.266c17.183,20.645,34.366,41.29,51.551,61.935c1.174,1.403,2.529,1.98,3.862,1.98
	c0.108,0,0.215-0.006,0.322-0.012c0.106,0.006,0.215,0.012,0.322,0.012c1.333,0,2.697-0.577,3.864-1.98
	c17.184-20.645,34.366-41.29,51.549-61.935c3.181-3.816,1.333-10.104-4.185-10.104c-7.21,0-14.421,0-21.632,0
	c0-12.441,0-24.886,0-37.33c0-18.774,0-37.555,0-56.333c0-3.229-2.688-5.92-5.917-5.92c-15.999,0-32.001,0-48.004,0
	c-3.229,0-5.92,2.691-5.92,5.92c0,18.779,0,37.559,0,56.333c0,12.447,0,24.889,0,37.33c-7.212,0-14.418,0-21.632,0
	C-101.247-87.37-103.093-81.082-99.914-77.266z"/>
</svg>
