<?xml version="1.0" encoding="utf-8"?>
<!-- Generator: Adobe Illustrator 16.0.0, SVG Export Plug-In . SVG Version: 6.00 Build 0)  -->
<!DOCTYPE svg PUBLIC "-//W3C//DTD SVG 1.1//EN" "http://www.w3.org/Graphics/SVG/1.1/DTD/svg11.dtd">
<svg version="1.1"
	 id="svg2" sodipodi:docname="blank.svg" inkscape:version="0.48.2 r9819" xmlns:dc="http://purl.org/dc/elements/1.1/" xmlns:cc="http://creativecommons.org/ns#" xmlns:rdf="http://www.w3.org/1999/02/22-rdf-syntax-ns#" xmlns:svg="http://www.w3.org/2000/svg" xmlns:sodipodi="http://sodipodi.sourceforge.net/DTD/sodipodi-0.dtd" xmlns:inkscape="http://www.inkscape.org/namespaces/inkscape"
	 xmlns="http://www.w3.org/2000/svg" xmlns:xlink="http://www.w3.org/1999/xlink" x="0px" y="0px" width="376.5px" height="376.5px"
	 viewBox="-276.5 -276.5 376.5 376.5" enable-background="new -276.5 -276.5 376.5 376.5" xml:space="preserve">
<sodipodi:namedview  inkscape:snap-grids="false" inkscape:current-layer="svg2" inkscape:window-maximized="1" inkscape:window-y="-4" inkscape:window-x="-4" inkscape:window-height="853" inkscape:window-width="1600" inkscape:pageshadow="2" inkscape:pageopacity="0" inkscape:cy="60.238438" inkscape:cx="-2.4257264" inkscape:zoom="3.6557421" showgrid="true" guidetolerance="10" gridtolerance="10" objecttolerance="10" borderopacity="1" pagecolor="#ffffff" bordercolor="#666666" id="namedview6">
	<inkscape:grid  type="xygrid" id="grid3807"></inkscape:grid>
</sodipodi:namedview>
<path id="rect2992" inkscape:connector-curvature="0" fill="#24FF7C" d="M-262.939-205.494c-2.818,0.325-4.927,2.743-4.864,5.579
	v219.76c0.032,2.99,2.447,5.404,5.438,5.437H85.586c2.99-0.032,5.404-2.446,5.437-5.437v-219.76
	c0.047-3.033-2.375-5.533-5.408-5.579c-0.007,0-0.021,0-0.028,0h-347.952C-262.558-205.505-262.748-205.505-262.939-205.494z
	 M-256.93-194.478H80.149V14.265H-256.93V-194.478z"/>
<path id="path3762" inkscape:connector-curvature="0" fill="#24FF7C" d="M-262.366-128.521v3.577H85.586v-3.577H-262.366z"/>
<path id="path3764" inkscape:connector-curvature="0" fill="#24FF7C" d="M-227.6-199.915v219.76h3.72v-219.76H-227.6z"/>
<path id="path3766" inkscape:connector-curvature="0" fill="#24FF7C" d="M-172.66-199.915v219.76h3.72v-219.76H-172.66z"/>
<path id="path3768" inkscape:connector-curvature="0" fill="#24FF7C" d="M-117.721-199.915v219.76H-114v-219.76H-117.721z"/>
<path id="path3770" inkscape:connector-curvature="0" fill="#24FF7C" d="M-62.78-199.915v219.76h3.72v-219.76H-62.78z"/>
<path id="path3772" inkscape:connector-curvature="0" fill="#24FF7C" d="M-7.841-199.915v219.76h3.72v-219.76H-7.841z"/>
<path id="path3774" inkscape:connector-curvature="0" fill="#24FF7C" d="M47.1-199.915v219.76h3.72v-219.76H47.1z"/>
<path id="rect3776" fill="#24FF7C" d="M-234.9-27.838h18.313c3.044,0,5.494,2.45,5.494,5.494s-2.45,5.494-5.494,5.494H-234.9
	c-3.044,0-5.494-2.45-5.494-5.494S-237.944-27.838-234.9-27.838z"/>
<path id="rect3778" fill="#24FF7C" d="M-234.9,1.464h18.313c3.044,0,5.494,2.45,5.494,5.493c0,3.044-2.45,5.494-5.494,5.494H-234.9
	c-3.044,0-5.494-2.45-5.494-5.494C-240.395,3.914-237.944,1.464-234.9,1.464z"/>
<path id="rect3780" fill="#24FF7C" d="M-234.9-13.188h18.313c3.044,0,5.494,2.45,5.494,5.494s-2.45,5.494-5.494,5.494H-234.9
	c-3.044,0-5.494-2.45-5.494-5.494S-237.944-13.188-234.9-13.188z"/>
<path id="rect3782" fill="#24FF7C" d="M-234.9-42.488h18.313c3.044,0,5.494,2.45,5.494,5.494s-2.45,5.494-5.494,5.494H-234.9
	c-3.044,0-5.494-2.45-5.494-5.494S-237.944-42.488-234.9-42.488z"/>
<path id="rect3786" fill="#24FF7C" d="M-234.9-115.741h18.313c3.044,0,5.494,2.45,5.494,5.493c0,3.044-2.45,5.494-5.494,5.494
	H-234.9c-3.044,0-5.494-2.45-5.494-5.494C-240.395-113.291-237.944-115.741-234.9-115.741z"/>
<path id="rect3788" fill="#24FF7C" d="M-179.961-27.838h18.313c3.044,0,5.494,2.45,5.494,5.494s-2.45,5.494-5.494,5.494h-18.313
	c-3.043,0-5.493-2.45-5.493-5.494S-183.004-27.838-179.961-27.838z"/>
<path id="rect3790" fill="#24FF7C" d="M-179.961,1.464h18.313c3.044,0,5.494,2.45,5.494,5.493c0,3.044-2.45,5.494-5.494,5.494
	h-18.313c-3.043,0-5.493-2.45-5.493-5.494C-185.454,3.914-183.004,1.464-179.961,1.464z"/>
<path id="rect3792" fill="#24FF7C" d="M-179.961-13.188h18.313c3.044,0,5.494,2.45,5.494,5.494s-2.45,5.494-5.494,5.494h-18.313
	c-3.043,0-5.493-2.45-5.493-5.494S-183.004-13.188-179.961-13.188z"/>
<path id="rect3794" fill="#24FF7C" d="M-179.961-86.44h18.313c3.044,0,5.494,2.45,5.494,5.494s-2.45,5.494-5.494,5.494h-18.313
	c-3.043,0-5.493-2.45-5.493-5.494S-183.004-86.44-179.961-86.44z"/>
<path id="rect3796" fill="#24FF7C" d="M-179.961-101.091h18.313c3.044,0,5.494,2.45,5.494,5.494s-2.45,5.494-5.494,5.494h-18.313
	c-3.043,0-5.493-2.45-5.493-5.494S-183.004-101.091-179.961-101.091z"/>
<path id="rect3800" fill="#24FF7C" d="M-125.021-27.838h18.313c3.044,0,5.494,2.45,5.494,5.494s-2.45,5.494-5.494,5.494h-18.313
	c-3.044,0-5.494-2.45-5.494-5.494S-128.064-27.838-125.021-27.838z"/>
<path id="rect3802" fill="#24FF7C" d="M-125.021,1.464h18.313c3.044,0,5.494,2.45,5.494,5.493c0,3.044-2.45,5.494-5.494,5.494
	h-18.313c-3.044,0-5.494-2.45-5.494-5.494C-130.515,3.914-128.064,1.464-125.021,1.464z"/>
<path id="rect3804" fill="#24FF7C" d="M-125.021-13.188h18.313c3.044,0,5.494,2.45,5.494,5.494s-2.45,5.494-5.494,5.494h-18.313
	c-3.044,0-5.494-2.45-5.494-5.494S-128.064-13.188-125.021-13.188z"/>
<path id="rect3806" fill="#24FF7C" d="M-125.021-42.488h18.313c3.044,0,5.494,2.45,5.494,5.494s-2.45,5.494-5.494,5.494h-18.313
	c-3.044,0-5.494-2.45-5.494-5.494S-128.064-42.488-125.021-42.488z"/>
<path id="rect3808" fill="#24FF7C" d="M-125.021-57.139h18.313c3.044,0,5.494,2.45,5.494,5.493c0,3.044-2.45,5.494-5.494,5.494
	h-18.313c-3.044,0-5.494-2.45-5.494-5.494C-130.515-54.688-128.064-57.139-125.021-57.139z"/>
<path id="rect3810" fill="#24FF7C" d="M-125.021-115.741h18.313c3.044,0,5.494,2.45,5.494,5.493c0,3.044-2.45,5.494-5.494,5.494
	h-18.313c-3.044,0-5.494-2.45-5.494-5.494C-130.515-113.291-128.064-115.741-125.021-115.741z"/>
<path id="rect3812" fill="#24FF7C" d="M-70.081-27.838h18.313c3.044,0,5.494,2.45,5.494,5.494s-2.45,5.494-5.494,5.494h-18.313
	c-3.044,0-5.494-2.45-5.494-5.494S-73.125-27.838-70.081-27.838z"/>
<path id="rect3814" fill="#24FF7C" d="M-70.081,1.464h18.313c3.044,0,5.494,2.45,5.494,5.493c0,3.044-2.45,5.494-5.494,5.494
	h-18.313c-3.044,0-5.494-2.45-5.494-5.494C-75.575,3.914-73.125,1.464-70.081,1.464z"/>
<path id="rect3816" fill="#24FF7C" d="M-70.081-13.188h18.313c3.044,0,5.494,2.45,5.494,5.494s-2.45,5.494-5.494,5.494h-18.313
	c-3.044,0-5.494-2.45-5.494-5.494S-73.125-13.188-70.081-13.188z"/>
<path id="rect3818" fill="#24FF7C" d="M-70.081-42.488h18.313c3.044,0,5.494,2.45,5.494,5.494s-2.45,5.494-5.494,5.494h-18.313
	c-3.044,0-5.494-2.45-5.494-5.494S-73.125-42.488-70.081-42.488z"/>
<path id="rect3820" fill="#24FF7C" d="M-70.081-57.139h18.313c3.044,0,5.494,2.45,5.494,5.493c0,3.044-2.45,5.494-5.494,5.494
	h-18.313c-3.044,0-5.494-2.45-5.494-5.494C-75.575-54.688-73.125-57.139-70.081-57.139z"/>
<path id="rect3822" fill="#24FF7C" d="M-70.081-115.741h18.313c3.044,0,5.494,2.45,5.494,5.493c0,3.044-2.45,5.494-5.494,5.494
	h-18.313c-3.044,0-5.494-2.45-5.494-5.494C-75.575-113.291-73.125-115.741-70.081-115.741z"/>
<path id="rect3824" fill="#24FF7C" d="M-15.141-27.838H3.173c3.043,0,5.493,2.45,5.493,5.494s-2.45,5.494-5.493,5.494h-18.313
	c-3.044,0-5.494-2.45-5.494-5.494S-18.185-27.838-15.141-27.838z"/>
<path id="rect3826" fill="#24FF7C" d="M-15.141,1.464H3.173c3.043,0,5.493,2.45,5.493,5.493c0,3.044-2.45,5.494-5.493,5.494h-18.313
	c-3.044,0-5.494-2.45-5.494-5.494C-20.635,3.914-18.185,1.464-15.141,1.464z"/>
<path id="rect3828" fill="#24FF7C" d="M-15.141-13.188H3.173c3.043,0,5.493,2.45,5.493,5.494s-2.45,5.494-5.493,5.494h-18.313
	c-3.044,0-5.494-2.45-5.494-5.494S-18.185-13.188-15.141-13.188z"/>
<path id="rect3830" fill="#24FF7C" d="M-15.141-42.488H3.173c3.043,0,5.493,2.45,5.493,5.494S6.216-31.5,3.173-31.5h-18.313
	c-3.044,0-5.494-2.45-5.494-5.494S-18.185-42.488-15.141-42.488z"/>
<path id="rect3832" fill="#24FF7C" d="M-15.141-57.139H3.173c3.043,0,5.493,2.45,5.493,5.493c0,3.044-2.45,5.494-5.493,5.494
	h-18.313c-3.044,0-5.494-2.45-5.494-5.494C-20.635-54.688-18.185-57.139-15.141-57.139z"/>
<path id="rect3834" fill="#24FF7C" d="M-15.141-57.139H3.173c3.043,0,5.493,2.45,5.493,5.493c0,3.044-2.45,5.494-5.493,5.494
	h-18.313c-3.044,0-5.494-2.45-5.494-5.494C-20.635-54.688-18.185-57.139-15.141-57.139z"/>
<path id="rect3836" fill="#24FF7C" d="M39.799-27.838h18.313c3.044,0,5.494,2.45,5.494,5.494s-2.45,5.494-5.494,5.494H39.799
	c-3.044,0-5.494-2.45-5.494-5.494S36.755-27.838,39.799-27.838z"/>
<path id="rect3838" fill="#24FF7C" d="M39.799,1.464h18.313c3.044,0,5.494,2.45,5.494,5.493c0,3.044-2.45,5.494-5.494,5.494H39.799
	c-3.044,0-5.494-2.45-5.494-5.494C34.305,3.914,36.755,1.464,39.799,1.464z"/>
<path id="rect3840" fill="#24FF7C" d="M39.799-13.188h18.313c3.044,0,5.494,2.45,5.494,5.494s-2.45,5.494-5.494,5.494H39.799
	c-3.044,0-5.494-2.45-5.494-5.494S36.755-13.188,39.799-13.188z"/>
<path id="rect3842" fill="#24FF7C" d="M39.799-42.488h18.313c3.044,0,5.494,2.45,5.494,5.494s-2.45,5.494-5.494,5.494H39.799
	c-3.044,0-5.494-2.45-5.494-5.494S36.755-42.488,39.799-42.488z"/>
<path id="rect3844" fill="#24FF7C" d="M39.799-57.139h18.313c3.044,0,5.494,2.45,5.494,5.493c0,3.044-2.45,5.494-5.494,5.494H39.799
	c-3.044,0-5.494-2.45-5.494-5.494C34.305-54.688,36.755-57.139,39.799-57.139z"/>
<path id="rect3846" fill="#24FF7C" d="M39.799-57.139h18.313c3.044,0,5.494,2.45,5.494,5.493c0,3.044-2.45,5.494-5.494,5.494H39.799
	c-3.044,0-5.494-2.45-5.494-5.494C34.305-54.688,36.755-57.139,39.799-57.139z"/>
<path id="rect3848" fill="#24FF7C" d="M-234.9-145.043h18.313c3.044,0,5.494,2.45,5.494,5.494s-2.45,5.494-5.494,5.494H-234.9
	c-3.044,0-5.494-2.45-5.494-5.494S-237.944-145.043-234.9-145.043z"/>
<path id="rect3852" fill="#24FF7C" d="M-234.9-188.995h18.313c3.044,0,5.494,2.45,5.494,5.494s-2.45,5.494-5.494,5.494H-234.9
	c-3.044,0-5.494-2.45-5.494-5.494S-237.944-188.995-234.9-188.995z"/>
<path id="rect3854" fill="#24FF7C" d="M-179.961-145.043h18.313c3.044,0,5.494,2.45,5.494,5.494s-2.45,5.494-5.494,5.494h-18.313
	c-3.043,0-5.493-2.45-5.493-5.494S-183.004-145.043-179.961-145.043z"/>
<path id="rect3856" fill="#24FF7C" d="M-179.961-159.693h18.313c3.044,0,5.494,2.45,5.494,5.494s-2.45,5.494-5.494,5.494h-18.313
	c-3.043,0-5.493-2.45-5.493-5.494S-183.004-159.693-179.961-159.693z"/>
<path id="rect3858" fill="#24FF7C" d="M-179.961-159.693h18.313c3.044,0,5.494,2.45,5.494,5.494s-2.45,5.494-5.494,5.494h-18.313
	c-3.043,0-5.493-2.45-5.493-5.494S-183.004-159.693-179.961-159.693z"/>
<path id="rect3860" fill="#24FF7C" d="M-125.021-145.043h18.313c3.044,0,5.494,2.45,5.494,5.494s-2.45,5.494-5.494,5.494h-18.313
	c-3.044,0-5.494-2.45-5.494-5.494S-128.064-145.043-125.021-145.043z"/>
<path id="rect3862" fill="#24FF7C" d="M-125.021-159.693h18.313c3.044,0,5.494,2.45,5.494,5.494s-2.45,5.494-5.494,5.494h-18.313
	c-3.044,0-5.494-2.45-5.494-5.494S-128.064-159.693-125.021-159.693z"/>
<path id="rect3864" fill="#24FF7C" d="M-125.021-159.693h18.313c3.044,0,5.494,2.45,5.494,5.494s-2.45,5.494-5.494,5.494h-18.313
	c-3.044,0-5.494-2.45-5.494-5.494S-128.064-159.693-125.021-159.693z"/>
<path id="rect3866" fill="#24FF7C" d="M-70.081-145.043h18.313c3.044,0,5.494,2.45,5.494,5.494s-2.45,5.494-5.494,5.494h-18.313
	c-3.044,0-5.494-2.45-5.494-5.494S-73.125-145.043-70.081-145.043z"/>
<path id="rect3868" fill="#24FF7C" d="M-70.081-159.693h18.313c3.044,0,5.494,2.45,5.494,5.494s-2.45,5.494-5.494,5.494h-18.313
	c-3.044,0-5.494-2.45-5.494-5.494S-73.125-159.693-70.081-159.693z"/>
<path id="rect3870" fill="#24FF7C" d="M-70.081-159.693h18.313c3.044,0,5.494,2.45,5.494,5.494s-2.45,5.494-5.494,5.494h-18.313
	c-3.044,0-5.494-2.45-5.494-5.494S-73.125-159.693-70.081-159.693z"/>
<path id="rect3872" fill="#24FF7C" d="M-15.141-145.043H3.173c3.043,0,5.493,2.45,5.493,5.494s-2.45,5.494-5.493,5.494h-18.313
	c-3.044,0-5.494-2.45-5.494-5.494S-18.185-145.043-15.141-145.043z"/>
<path id="rect3874" fill="#24FF7C" d="M-15.141-159.693H3.173c3.043,0,5.493,2.45,5.493,5.494s-2.45,5.494-5.493,5.494h-18.313
	c-3.044,0-5.494-2.45-5.494-5.494S-18.185-159.693-15.141-159.693z"/>
<path id="rect3876" fill="#24FF7C" d="M-15.141-159.693H3.173c3.043,0,5.493,2.45,5.493,5.494s-2.45,5.494-5.493,5.494h-18.313
	c-3.044,0-5.494-2.45-5.494-5.494S-18.185-159.693-15.141-159.693z"/>
<path id="rect3878" fill="#24FF7C" d="M39.799-145.043h18.313c3.044,0,5.494,2.45,5.494,5.494s-2.45,5.494-5.494,5.494H39.799
	c-3.044,0-5.494-2.45-5.494-5.494S36.755-145.043,39.799-145.043z"/>
<path id="rect3880" fill="#24FF7C" d="M39.799-159.693h18.313c3.044,0,5.494,2.45,5.494,5.494s-2.45,5.494-5.494,5.494H39.799
	c-3.044,0-5.494-2.45-5.494-5.494S36.755-159.693,39.799-159.693z"/>
<path id="rect3882" fill="#24FF7C" d="M39.799-159.693h18.313c3.044,0,5.494,2.45,5.494,5.494s-2.45,5.494-5.494,5.494H39.799
	c-3.044,0-5.494-2.45-5.494-5.494S36.755-159.693,39.799-159.693z"/>
<path id="rect3884" fill="#24FF7C" d="M39.799-145.043h18.313c3.044,0,5.494,2.45,5.494,5.494s-2.45,5.494-5.494,5.494H39.799
	c-3.044,0-5.494-2.45-5.494-5.494S36.755-145.043,39.799-145.043z"/>
<path id="rect3886" fill="#24FF7C" d="M39.799-159.693h18.313c3.044,0,5.494,2.45,5.494,5.494s-2.45,5.494-5.494,5.494H39.799
	c-3.044,0-5.494-2.45-5.494-5.494S36.755-159.693,39.799-159.693z"/>
<path id="rect3888" fill="#24FF7C" d="M39.799-159.693h18.313c3.044,0,5.494,2.45,5.494,5.494s-2.45,5.494-5.494,5.494H39.799
	c-3.044,0-5.494-2.45-5.494-5.494S36.755-159.693,39.799-159.693z"/>
</svg>
