<svg xmlns="http://www.w3.org/2000/svg" xmlns:xlink="http://www.w3.org/1999/xlink" version="1.1" x="0px" y="0px" viewBox="0 0 150 187.5" style="enable-background:new 0 0 150 150;" xml:space="preserve"><style type="text/css">
	.st0{fill:none;}
	.st1{fill:none;stroke:#000000;stroke-width:2;stroke-linecap:round;stroke-linejoin:round;stroke-miterlimit:10;}
</style><g><g><path d="M101.3164063,89.7229004h15.9267578C129.7910156,89.7229004,140,79.5144043,140,66.9660645    c0-13.7549744-12.1901627-24.3723984-25.6669922-22.5541992c-1.7571259-10.986412-12.4831238-18.0822887-23.25-15.5151367    c-2.9794922-9.3925781-11.7509766-15.8686523-21.6689453-15.8686523c-12.2802734,0-22.3193359,9.7768555-22.7431641,21.9555664    C41.25,35.6726074,36.6279297,39.2194824,34.5595703,44.2883301C21.5535564,43.189373,10,53.5614815,10,66.9660645    c0,12.5483398,10.2089844,22.7568359,22.7568359,22.7568359h15.9267578v23.8041992H30.3408203l3.7041016-3.7041016    c0.390625-0.390625,0.390625-1.0234375,0-1.4140625s-1.0234375-0.390625-1.4140625,0l-5.4104614,5.4104004    c-0.0925293,0.0925293-0.1657715,0.203125-0.2165527,0.3256836c-0.1010742,0.2443848-0.1010742,0.5197754,0,0.7641602    c0.0507813,0.1225586,0.1240234,0.2331543,0.2165527,0.3256836l5.4104614,5.4108887    c0.1953125,0.1953125,0.4511719,0.2929688,0.7070313,0.2929688s0.5117188-0.0976563,0.7070313-0.2929688    c0.390625-0.390625,0.390625-1.0234375,0-1.4140625l-3.7042236-3.7045898h19.3428955c0.5527344,0,1-0.4477539,1-1V89.7229004    h10.3330078v33.7407227l-19.2836914,7.7133789l2.0473633-4.8447266c0.2148438-0.5087891-0.0224609-1.0952148-0.53125-1.3100586    c-0.5107422-0.2138672-1.0957031,0.0224609-1.3105469,0.5317383l-2.9794922,7.0493164    c-0.0206909,0.0488281-0.019043,0.1020508-0.0316162,0.152832c-0.0189209,0.074707-0.0455322,0.1474609-0.0466919,0.2253418    c-0.0006714,0.0622559,0.022583,0.121582,0.0334473,0.1828613c0.0117188,0.0678711,0.010498,0.1362305,0.0370483,0.2026367    c0.0472412,0.1181641,0.1192627,0.2165527,0.2011719,0.3044434c0.0177002,0.019043,0.0375366,0.0336914,0.0566406,0.0512695    c0.0737305,0.0678711,0.1546631,0.1228027,0.2440186,0.1655273c0.0137329,0.0065918,0.0231323,0.0192871,0.0372314,0.0251465    l7.0498047,2.9790039c0.1279297,0.0537109,0.2597656,0.0795898,0.3896484,0.0795898    c0.3896484,0,0.7597656-0.2294922,0.9208984-0.6113281c0.2148438-0.5087891-0.0224609-1.0952148-0.53125-1.3100586    l-4.8067017-2.03125l19.875061-7.949707c0.3798828-0.1518555,0.6289063-0.5200195,0.6289063-0.9287109V89.7229004h11.5078125    v42.1240234l-3.7050781-3.7050781c-0.390625-0.390625-1.0234375-0.390625-1.4140625,0s-0.390625,1.0234375,0,1.4140625    l5.4111328,5.4111328c0.0128174,0.0126953,0.0301514,0.0168457,0.043457,0.0288086    c0.0837402,0.0756836,0.175293,0.1428223,0.2810059,0.1867676c0.1223145,0.0505371,0.2521973,0.0773926,0.3825684,0.0773926    c0.0002441,0,0.0002441,0,0.0004883,0s0.0002441,0,0.0004883,0c0.0093994,0,0.0170898-0.005127,0.0264893-0.0053711    c0.1207275-0.003418,0.2408447-0.0246582,0.354126-0.0715332c0.1245117-0.0512695,0.236084-0.1257324,0.3293457-0.2199707    l5.4082031-5.4072266c0.390625-0.3901367,0.390625-1.0234375,0-1.4140625s-1.0234375-0.390625-1.4140625,0l-3.7041016,3.7033691    V89.7229004h10.4589844v34.4179688c0,0.4086914,0.2490234,0.7768555,0.6289063,0.9287109l19.875,7.949707l-4.8066406,2.03125    c-0.5087891,0.2148438-0.7460938,0.8012695-0.53125,1.3100586c0.1611328,0.3818359,0.53125,0.6113281,0.9208984,0.6113281    c0.1298828,0,0.2617188-0.0258789,0.3896484-0.0795898l7.0498047-2.9790039    c0.0144043-0.0061035,0.0240479-0.019043,0.0380859-0.0258789c0.0888672-0.0424805,0.1691895-0.097168,0.2426758-0.1645508    c0.0192871-0.0175781,0.0394287-0.0324707,0.057373-0.0517578c0.0817871-0.0876465,0.1536865-0.1860352,0.2009277-0.3041992    c0.0266113-0.0664063,0.0253906-0.1347656,0.0371094-0.2026367c0.0107422-0.0612793,0.0340576-0.1206055,0.0334473-0.1828613    c-0.0012207-0.0778809-0.027832-0.1506348-0.0467529-0.2253418c-0.0125732-0.0507813-0.0108643-0.1040039-0.0316162-0.152832    l-2.9794922-7.0493164c-0.2148438-0.5092773-0.8037109-0.7456055-1.3105469-0.5317383    c-0.5087891,0.2148438-0.7460938,0.8012695-0.53125,1.3100586l2.0473633,4.8447266l-19.2836914-7.7133789V89.7229004h10.3330078    v24.8041992c0,0.5522461,0.4472656,1,1,1h19.3428955l-3.7042236,3.7045898c-0.390625,0.390625-0.390625,1.0234375,0,1.4140625    c0.1953125,0.1953125,0.4511719,0.2929688,0.7070313,0.2929688s0.5117188-0.0976563,0.7070313-0.2929688l5.4104004-5.4108887    c0.0925293-0.0925293,0.1658936-0.203125,0.2166748-0.3259277c0.1009521-0.2441406,0.1009521-0.5195313,0-0.7636719    c-0.0507813-0.1228027-0.1241455-0.2333984-0.2166748-0.3259277l-5.4104004-5.4104004    c-0.390625-0.390625-1.0234375-0.390625-1.4140625,0s-0.390625,1.0234375,0,1.4140625l3.7041016,3.7041016h-18.3427734V89.7229004    z M12,66.9660645c0-12.2125587,10.6206799-22.0263176,23.1113281-20.6137695    c0.4570313,0.050293,0.9023438-0.222168,1.0566406-0.6640625c1.7441406-4.9975586,6.2822266-8.4511719,11.5605469-8.7978516    c0.6237488-0.0411568,1.0134544-0.639389,0.9287109-1.1054688c0-11.4453125,9.3115234-20.7568359,20.7568359-20.7568359    c9.3486328,0,17.5810547,6.3100586,20.0175781,15.3447266c0.1446075,0.5342426,0.6985779,0.8567314,1.2460938,0.699707    c10.2639618-3.0026207,20.6887894,3.9717636,21.8046875,14.5888672c0.0598907,0.5823898,0.6079636,0.9824791,1.1660156,0.8803711    C126.6059341,44.2783852,138,54.3104477,138,66.9660645c0,11.4453125-9.3115234,20.7568359-20.7568359,20.7568359H32.7568359    C21.3115234,87.7229004,12,78.411377,12,66.9660645z"/></g><g><path d="M68.8486328,79.020752c0.5527344,0,1-0.4477539,1-1c-0.2402267-2.8297043,0.6502151-5.2685547-1-5.2685547    c-8.1611328,0-14.8007813-6.6396484-14.8007813-14.8012695c0-6.1726074,3.9185791-11.7299805,9.6417847-13.8635254    c1.9262619,5.958252-0.1670952,6.9539452,11.0447388-4.9689941c0.4895477-0.5491753,0.2377014-1.4216347-0.46875-1.6264648    c-11.8928795-3.2400398-11.9578896-3.889946-12.7177734-3.1401367c-0.6901855,0.6797256-0.002903,1.4376907,0.4811401,3.6855469    c-8.4327393,2.8972168-14.2496948,10.9384766-14.2496948,19.9135742    C47.7792969,69.5690918,57.2314453,79.020752,68.8486328,79.020752z M72.1416016,38.9606934l-6.0253906,6.4042969    c-0.412178-1.4994888-2.568531-9.3441849-2.4316406-8.8461914L72.1416016,38.9606934z M62.5537109,39.9533691    c0.0279121,0.1014862,0.6413193,2.3318138,0.6029053,2.1921387c-6.5879517,2.3759766-11.1087646,8.7385254-11.1087646,15.8054199    c0,8.9282227,7.0009766,16.2524414,15.8007813,16.7719727v2.2719727    c-10.0517578-0.5224609-18.0693359-8.8642578-18.0693359-19.0439453    C49.7792969,49.8693848,54.9833984,42.6101074,62.5537109,39.9533691z"/></g><g><path d="M87.75,80.8303223c0.657074,0,1.138298-0.6252747,0.9648438-1.2636719l-0.7438965-2.7102051    c8.4331055-2.8969727,14.2497559-10.9375,14.2497559-19.9128418c0-11.6181641-9.4521484-21.0703125-21.0693359-21.0703125    c-1.6565781,0-0.7624969,2.4708862-1,5.2685547c0,0.5522461,0.4472656,1,1,1    c8.1611328,0,14.8007813,6.6401367,14.8007813,14.8017578c0,6.1728516-3.9185791,11.7294922-9.6418457,13.8632813    c-0.9601974-2.9700241-0.7265015-3.9911346-1.6911621-4.230957c-0.3535156-0.0888672-0.7226563,0.0214844-0.9697266,0.284668    c-8.8691254,9.3537903-8.8306885,9.0573196-8.5976563,9.8598633C75.1965027,77.2233429,87.591156,80.8303223,87.75,80.8303223z     M97.9521484,56.9436035c0-8.9287109-7.0009766-16.2529297-15.8007813-16.7724609v-2.2719727    c10.0517578,0.5224609,18.0693359,8.8647461,18.0693359,19.0444336c0,8.0820313-5.2041016,15.3408203-12.7744141,17.9970703    c-0.0279236-0.1014862-0.6414566-2.3315659-0.6030273-2.1918945    C93.4312744,70.3728027,97.9521484,64.0100098,97.9521484,56.9436035z M83.8837891,69.529541    c0.4122009,1.4994812,2.5685349,9.3436966,2.4316406,8.8457031l-8.4580078-2.4414063L83.8837891,69.529541z"/></g></g><text x="0" y="165" fill="#000000" font-size="5px" font-weight="bold" font-family="'Helvetica Neue', Helvetica, Arial-Unicode, Arial, Sans-serif">Created by Dinosoft Labs</text><text x="0" y="170" fill="#000000" font-size="5px" font-weight="bold" font-family="'Helvetica Neue', Helvetica, Arial-Unicode, Arial, Sans-serif">from the Noun Project</text></svg>