<svg xmlns="http://www.w3.org/2000/svg" xmlns:xlink="http://www.w3.org/1999/xlink" version="1.1" x="0px" y="0px" viewBox="0 0 150 187.5" style="enable-background:new 0 0 150 150;" xml:space="preserve"><style type="text/css">
	.st0{fill:none;}
	.st1{fill:none;stroke:#000000;stroke-width:2;stroke-linecap:round;stroke-linejoin:round;stroke-miterlimit:10;}
</style><g><g><path d="M10.9990234,37.0791016h109c0.5527344,0,1-0.4472656,1-1V16.9941406c0-0.5527344-0.4472656-1-1-1h-109    c-0.5527344,0-1,0.4472656-1,1v19.0849609C9.9990234,36.6318359,10.4462891,37.0791016,10.9990234,37.0791016z     M11.9990234,17.9941406h107v17.0849609h-107V17.9941406z"/></g><g><path d="M31.8417969,22.3310547c-2.3212891,0-4.2099609,1.8886719-4.2099609,4.2099609    c0,2.3164063,1.8886719,4.2001953,4.2099609,4.2001953c2.3164063,0,4.2001953-1.8837891,4.2001953-4.2001953    C36.0419922,24.2197266,34.1582031,22.3310547,31.8417969,22.3310547z M31.8417969,28.7412109    c-1.21875,0-2.2099609-0.9873047-2.2099609-2.2001953c0-1.21875,0.9912109-2.2099609,2.2099609-2.2099609    c1.2128906,0,2.2001953,0.9912109,2.2001953,2.2099609C34.0419922,27.7539063,33.0546875,28.7412109,31.8417969,28.7412109z"/></g><g><path d="M43.7236328,22.3310547c-2.3212891,0-4.2099609,1.8886719-4.2099609,4.2099609    c0,2.3164063,1.8886719,4.2001953,4.2099609,4.2001953c2.3164063,0,4.2001953-1.8837891,4.2001953-4.2001953    C47.9238281,24.2197266,46.0400391,22.3310547,43.7236328,22.3310547z M43.7236328,28.7412109    c-1.21875,0-2.2099609-0.9873047-2.2099609-2.2001953c0-1.21875,0.9912109-2.2099609,2.2099609-2.2099609    c1.2128906,0,2.2001953,0.9912109,2.2001953,2.2099609C45.9238281,27.7539063,44.9365234,28.7412109,43.7236328,28.7412109z"/></g><g><path d="M19.9492188,22.3310547c-2.3164063,0-4.2001953,1.8886719-4.2001953,4.2099609    c0,2.3164063,1.8837891,4.2001953,4.2001953,4.2001953c2.3212891,0,4.2099609-1.8837891,4.2099609-4.2001953    C24.1591797,24.2197266,22.2705078,22.3310547,19.9492188,22.3310547z M19.9492188,28.7412109    c-1.2128906,0-2.2001953-0.9873047-2.2001953-2.2001953c0-1.21875,0.9873047-2.2099609,2.2001953-2.2099609    c1.21875,0,2.2099609,0.9912109,2.2099609,2.2099609C22.1591797,27.7539063,21.1679688,28.7412109,19.9492188,28.7412109z"/></g><g><path d="M114.2490234,25.5410156H52.6035156c-0.5527344,0-1,0.4472656-1,1s0.4472656,1,1,1h61.6455078    c0.5527344,0,1-0.4472656,1-1S114.8017578,25.5410156,114.2490234,25.5410156z"/></g><g><path d="M31.8417969,50.0390625c-2.3212891,0-4.2099609,1.8886719-4.2099609,4.2099609    c0,2.3164063,1.8886719,4.2001953,4.2099609,4.2001953c2.3164063,0,4.2001953-1.8837891,4.2001953-4.2001953    C36.0419922,51.9277344,34.1582031,50.0390625,31.8417969,50.0390625z M31.8417969,56.4492188    c-1.21875,0-2.2099609-0.9873047-2.2099609-2.2001953c0-1.21875,0.9912109-2.2099609,2.2099609-2.2099609    c1.2128906,0,2.2001953,0.9912109,2.2001953,2.2099609C34.0419922,55.4619141,33.0546875,56.4492188,31.8417969,56.4492188z"/></g><g><path d="M43.7236328,50.0390625c-2.3212891,0-4.2099609,1.8886719-4.2099609,4.2099609    c0,2.3164063,1.8886719,4.2001953,4.2099609,4.2001953c2.3164063,0,4.2001953-1.8837891,4.2001953-4.2001953    C47.9238281,51.9277344,46.0400391,50.0390625,43.7236328,50.0390625z M43.7236328,56.4492188    c-1.21875,0-2.2099609-0.9873047-2.2099609-2.2001953c0-1.21875,0.9912109-2.2099609,2.2099609-2.2099609    c1.2128906,0,2.2001953,0.9912109,2.2001953,2.2099609C45.9238281,55.4619141,44.9365234,56.4492188,43.7236328,56.4492188z"/></g><g><path d="M19.9492188,50.0390625c-2.3164063,0-4.2001953,1.8886719-4.2001953,4.2099609    c0,2.3164063,1.8837891,4.2001953,4.2001953,4.2001953c2.3212891,0,4.2099609-1.8837891,4.2099609-4.2001953    C24.1591797,51.9277344,22.2705078,50.0390625,19.9492188,50.0390625z M19.9492188,56.4492188    c-1.2128906,0-2.2001953-0.9873047-2.2001953-2.2001953c0-1.21875,0.9873047-2.2099609,2.2001953-2.2099609    c1.21875,0,2.2099609,0.9912109,2.2099609,2.2099609C22.1591797,55.4619141,21.1679688,56.4492188,19.9492188,56.4492188z"/></g><g><path d="M115.2490234,54.2490234c0-1.9503174,0.4882355-0.5492477-62.6455078-1c-0.5527344,0-1,0.4472656-1,1s0.4472656,1,1,1    C115.7483139,54.7981949,115.2490234,56.1971283,115.2490234,54.2490234z"/></g><g><path d="M31.8417969,77.7470703c-2.3212891,0-4.2099609,1.8886719-4.2099609,4.2099609    c0,2.3164063,1.8886719,4.2001953,4.2099609,4.2001953c2.3164063,0,4.2001953-1.8837891,4.2001953-4.2001953    C36.0419922,79.6357422,34.1582031,77.7470703,31.8417969,77.7470703z M31.8417969,84.1572266    c-1.21875,0-2.2099609-0.9873047-2.2099609-2.2001953c0-1.21875,0.9912109-2.2099609,2.2099609-2.2099609    c1.2128906,0,2.2001953,0.9912109,2.2001953,2.2099609C34.0419922,83.1699219,33.0546875,84.1572266,31.8417969,84.1572266z"/></g><g><path d="M43.7236328,77.7470703c-2.3212891,0-4.2099609,1.8886719-4.2099609,4.2099609    c0,2.3164063,1.8886719,4.2001953,4.2099609,4.2001953c2.3164063,0,4.2001953-1.8837891,4.2001953-4.2001953    C47.9238281,79.6357422,46.0400391,77.7470703,43.7236328,77.7470703z M43.7236328,84.1572266    c-1.21875,0-2.2099609-0.9873047-2.2099609-2.2001953c0-1.21875,0.9912109-2.2099609,2.2099609-2.2099609    c1.2128906,0,2.2001953,0.9912109,2.2001953,2.2099609C45.9238281,83.1699219,44.9365234,84.1572266,43.7236328,84.1572266z"/></g><g><path d="M19.9492188,77.7470703c-2.3164063,0-4.2001953,1.8886719-4.2001953,4.2099609    c0,2.3164063,1.8837891,4.2001953,4.2001953,4.2001953c2.3212891,0,4.2099609-1.8837891,4.2099609-4.2001953    C24.1591797,79.6357422,22.2705078,77.7470703,19.9492188,77.7470703z M19.9492188,84.1572266    c-1.2128906,0-2.2001953-0.9873047-2.2001953-2.2001953c0-1.21875,0.9873047-2.2099609,2.2001953-2.2099609    c1.21875,0,2.2099609,0.9912109,2.2099609,2.2099609C22.1591797,83.1699219,21.1679688,84.1572266,19.9492188,84.1572266z"/></g><g><path d="M72.4511719,80.9570313H52.6035156c-0.5527344,0-1,0.4472656-1,1s0.4472656,1,1,1h19.8476563    C73.7751846,82.9570313,73.7737656,80.9570313,72.4511719,80.9570313z"/></g><g><path d="M31.8417969,105.4550781c-2.3212891,0-4.2099609,1.8886719-4.2099609,4.2099609    c0,2.3164063,1.8886719,4.2001953,4.2099609,4.2001953c2.3164063,0,4.2001953-1.8837891,4.2001953-4.2001953    C36.0419922,107.34375,34.1582031,105.4550781,31.8417969,105.4550781z M31.8417969,111.8652344    c-1.21875,0-2.2099609-0.9873047-2.2099609-2.2001953c0-1.21875,0.9912109-2.2099609,2.2099609-2.2099609    c1.2128906,0,2.2001953,0.9912109,2.2001953,2.2099609C34.0419922,110.8779297,33.0546875,111.8652344,31.8417969,111.8652344z"/></g><g><path d="M43.7236328,105.4550781c-2.3212891,0-4.2099609,1.8886719-4.2099609,4.2099609    c0,2.3164063,1.8886719,4.2001953,4.2099609,4.2001953c2.3164063,0,4.2001953-1.8837891,4.2001953-4.2001953    C47.9238281,107.34375,46.0400391,105.4550781,43.7236328,105.4550781z M43.7236328,111.8652344    c-1.21875,0-2.2099609-0.9873047-2.2099609-2.2001953c0-1.21875,0.9912109-2.2099609,2.2099609-2.2099609    c1.2128906,0,2.2001953,0.9912109,2.2001953,2.2099609C45.9238281,110.8779297,44.9365234,111.8652344,43.7236328,111.8652344z"/></g><g><path d="M19.9492188,105.4550781c-2.3164063,0-4.2001953,1.8886719-4.2001953,4.2099609    c0,2.3164063,1.8837891,4.2001953,4.2001953,4.2001953c2.3212891,0,4.2099609-1.8837891,4.2099609-4.2001953    C24.1591797,107.34375,22.2705078,105.4550781,19.9492188,105.4550781z M19.9492188,111.8652344    c-1.2128906,0-2.2001953-0.9873047-2.2001953-2.2001953c0-1.21875,0.9873047-2.2099609,2.2001953-2.2099609    c1.21875,0,2.2099609,0.9912109,2.2099609,2.2099609C22.1591797,110.8779297,21.1679688,111.8652344,19.9492188,111.8652344z"/></g><g><path d="M52.6035156,108.6650391c-0.5527344,0-1,0.4472656-1,1s0.4472656,1,1,1    c14.5230331-0.3855515,16.8476563,0.8665085,16.8476563-1C69.4511719,107.7862625,67.0421982,109.0483551,52.6035156,108.6650391z    "/></g><g><path d="M121.5068359,81.7304688c1.0079422-4.7655411-0.4377518-9.5563965-0.7634277-9.9248047    c-1.0274658-2.6982422-2.7067871-5.1113281-4.8703613-7.0166016c2.669342-0.2328262,5.1279297,0.6488724,5.1279297-1V44.6992188    c0-0.5527344-0.4472656-1-1-1h-109c-0.5527344,0-1,0.4472656-1,1v19.0898438c0,0.5527344,0.4472656,1,1,1h81.4672852    c-2.0544434,1.8095703-3.666748,4.081543-4.7061768,6.6201172H11.0009766c-0.5527344,0-1,0.4472656-1,1v19.0898438    c0,0.5527344,0.4472656,1,1,1h57.7531738c-0.5294113,2.1940689-0.5508041,4.4057388-0.0610352,6.6201172H11.0009766    c-0.5527344,0-1,0.4472656-1,1v19.0800781c0,0.5527344,0.4472656,1,1,1h10.1650391v11.8066406h-3.4238281    c-0.5527344,0-1,0.4472656-1,1s0.4472656,1,1,1h8.8457031c0.5527344,0,1-0.4472656,1-1s-0.4472656-1-1-1h-3.421875v-11.8066406    h84.6679688v11.8066406h-3.4248047c-0.5527344,0-1,0.4472656-1,1s0.4472656,1,1,1h8.8466797c0.5527344,0,1-0.4472656,1-1    s-0.4472656-1-1-1h-3.421875v-11.8066406h10.1669922c0.5527344,0,1-0.4472656,1-1v-8.5400391h4.2900391    c8.1113281,0,14.7099609-6.5986328,14.7099609-14.7099609C140.0009766,86.3458939,130.8747864,79.2472153,121.5068359,81.7304688z     M12.0009766,45.6992188h107v17.0898438h-5.8857422c-5.4057007-3.1585884-12.2787933-3.2653122-17.8886719,0H12.0009766    V45.6992188z M12.0009766,73.4091797h75.0703125c-0.6876755,2.5306396-0.8426285,5.4743347-0.2333984,8.3212891    c-7.281311-1.9255371-14.742981,1.9663162-17.4521484,8.7685547H12.0009766V73.4091797z M119.0009766,118.1992188h-107    v-17.0800781h57.2783203c2.103653,5.6476517,7.5436096,9.5400391,13.78125,9.5400391h35.9404297V118.1992188z     M125.2910156,108.6591797h-5.2900391H83.0605469c-5.2908783,0-9.9892426-2.9919281-12.1171875-8.8457031l0,0    c-3.2807922-10.2434387,6.9325943-19.708931,16.9707031-15.6181641c0.8023605,0.3252792,1.5911026-0.4433517,1.3261719-1.2402344    C84.725502,69.3266525,99.724823,57.025692,112.3212891,64.6435547c5.0917969,3.0961914,6.6734848,8.2606125,6.7324219,8.3652344    c0.1438751,0.5714874,0.8369141,2.1975021,0.8369141,5.0703125c0,1.6455078-0.2626953,3.2880859-0.78125,4.8808594    c-0.2639618,0.8154984,0.5515823,1.5580444,1.3300781,1.234375c8.4238892-3.4514542,17.5615234,2.7795715,17.5615234,11.7548828    C138.0009766,102.9570313,132.2988281,108.6591797,125.2910156,108.6591797z"/></g><g><path d="M109.0859375,65.8232422c-10.370903-4.1742897-20.9415665,5.734169-17.4638672,16.3613281    c0.1749878,0.5361328,0.7516708,0.8093414,1.2607422,0.6396484c1.4337387-0.4690323,0.0800781-1.6547546,0.0800781-4.7421875    c0-6.1796875,5.0283203-11.2070313,11.2089844-11.2070313c3.7590027,0,4.8565292,1.768013,5.46875,0.2490234    C109.8466797,66.6123047,109.5986328,66.0292969,109.0859375,65.8232422z"/></g><g><path d="M121.0341797,90.3017578c-3.0322266,0-5.5,2.4677734-5.5,5.5s2.4677734,5.5,5.5,5.5s5.5-2.4677734,5.5-5.5    S124.0664063,90.3017578,121.0341797,90.3017578z M121.0341797,99.3017578c-1.9296875,0-3.5-1.5703125-3.5-3.5    s1.5703125-3.5,3.5-3.5s3.5,1.5703125,3.5,3.5S122.9638672,99.3017578,121.0341797,99.3017578z"/></g><g><path d="M102.9208984,90.3017578c-3.0322266,0-5.5,2.4677734-5.5,5.5s2.4677734,5.5,5.5,5.5s5.5-2.4677734,5.5-5.5    S105.953125,90.3017578,102.9208984,90.3017578z M102.9208984,99.3017578c-1.9296875,0-3.5-1.5703125-3.5-3.5    s1.5703125-3.5,3.5-3.5s3.5,1.5703125,3.5,3.5S104.8505859,99.3017578,102.9208984,99.3017578z"/></g><g><path d="M84.8076172,90.3017578c-3.0322266,0-5.5,2.4677734-5.5,5.5s2.4677734,5.5,5.5,5.5s5.5-2.4677734,5.5-5.5    S87.8398438,90.3017578,84.8076172,90.3017578z M84.8076172,99.3017578c-1.9296875,0-3.5-1.5703125-3.5-3.5    c0-4.6326065,7-4.6260223,7,0C88.3076172,97.7314453,86.7373047,99.3017578,84.8076172,99.3017578z"/></g></g><text x="0" y="165" fill="#000000" font-size="5px" font-weight="bold" font-family="'Helvetica Neue', Helvetica, Arial-Unicode, Arial, Sans-serif">Created by Dinosoft Labs</text><text x="0" y="170" fill="#000000" font-size="5px" font-weight="bold" font-family="'Helvetica Neue', Helvetica, Arial-Unicode, Arial, Sans-serif">from the Noun Project</text></svg>