<svg xmlns="http://www.w3.org/2000/svg" xmlns:xlink="http://www.w3.org/1999/xlink" version="1.1" x="0px" y="0px" viewBox="0 0 150 187.5" style="enable-background:new 0 0 150 150;" xml:space="preserve"><style type="text/css">
	.st0{fill:none;}
	.st1{fill:none;stroke:#000000;stroke-width:2;stroke-linecap:round;stroke-linejoin:round;stroke-miterlimit:10;}
</style><g><g><path d="M52.8730469,23.1582031h30.7255859c0.5527344,0,1-0.4472656,1-1s-0.4472656-1-1-1H52.8730469    c-0.5527344,0-1,0.4472656-1,1S52.3203125,23.1582031,52.8730469,23.1582031z"/></g><g><path d="M107.1337891,27.0742188c2.7109375,0,4.9169922-2.2050781,4.9169922-4.9160156s-2.2060547-4.9169922-4.9169922-4.9169922    s-4.9160156,2.2060547-4.9160156,4.9169922S104.4228516,27.0742188,107.1337891,27.0742188z M107.1337891,19.2412109    c1.6083984,0,2.9169922,1.3085938,2.9169922,2.9169922c0,1.6074219-1.3085938,2.9160156-2.9169922,2.9160156    c-1.6074219,0-2.9160156-1.3085938-2.9160156-2.9160156C104.2177734,20.5498047,105.5263672,19.2412109,107.1337891,19.2412109z"/></g><g><path d="M93.5146484,27.0742188c2.7109375,0,4.9169922-2.2050781,4.9169922-4.9160156s-2.2060547-4.9169922-4.9169922-4.9169922    s-4.9160156,2.2060547-4.9160156,4.9169922S90.8037109,27.0742188,93.5146484,27.0742188z M93.5146484,19.2412109    c1.6083984,0,2.9169922,1.3085938,2.9169922,2.9169922c0,1.6074219-1.3085938,2.9160156-2.9169922,2.9160156    c-1.6074219,0-2.9160156-1.3085938-2.9160156-2.9160156C90.5986328,20.5498047,91.9072266,19.2412109,93.5146484,19.2412109z"/></g><g><path d="M47.3730469,27.0742188c0.5527344,0,1-0.4472656,1-1v-7.8330078c0-0.5527344-0.4472656-1-1-1s-1,0.4472656-1,1v7.8330078    C46.3730469,26.6269531,46.8203125,27.0742188,47.3730469,27.0742188z"/></g><g><path d="M40.7070313,27.0742188c0.5527344,0,1-0.4472656,1-1v-7.8330078c0-0.5527344-0.4472656-1-1-1s-1,0.4472656-1,1v7.8330078    C39.7070313,26.6269531,40.1542969,27.0742188,40.7070313,27.0742188z"/></g><g><path d="M34.0400391,17.2412109c-0.5527344,0-1,0.4472656-1,1v7.8330078c0,0.5527344,0.4472656,1,1,1s1-0.4472656,1-1v-7.8330078    C35.0400391,17.6884766,34.5927734,17.2412109,34.0400391,17.2412109z"/></g><g><path d="M52.8730469,47.5087891h30.7255859c0.5527344,0,1-0.4472656,1-1s-0.4472656-1-1-1H52.8730469    c-0.5527344,0-1,0.4472656-1,1S52.3203125,47.5087891,52.8730469,47.5087891z"/></g><g><path d="M107.1337891,51.4248047c2.7109375,0,4.9169922-2.2050781,4.9169922-4.9160156s-2.2060547-4.9169922-4.9169922-4.9169922    s-4.9160156,2.2060547-4.9160156,4.9169922S104.4228516,51.4248047,107.1337891,51.4248047z M107.1337891,43.5917969    c1.6083984,0,2.9169922,1.3085938,2.9169922,2.9169922c0,1.6074219-1.3085938,2.9160156-2.9169922,2.9160156    c-1.6074219,0-2.9160156-1.3085938-2.9160156-2.9160156C104.2177734,44.9003906,105.5263672,43.5917969,107.1337891,43.5917969z"/></g><g><path d="M93.5146484,51.4248047c2.7109375,0,4.9169922-2.2050781,4.9169922-4.9160156s-2.2060547-4.9169922-4.9169922-4.9169922    s-4.9160156,2.2060547-4.9160156,4.9169922S90.8037109,51.4248047,93.5146484,51.4248047z M93.5146484,43.5917969    c1.6083984,0,2.9169922,1.3085938,2.9169922,2.9169922c0,1.6074219-1.3085938,2.9160156-2.9169922,2.9160156    c-1.6074219,0-2.9160156-1.3085938-2.9160156-2.9160156C90.5986328,44.9003906,91.9072266,43.5917969,93.5146484,43.5917969z"/></g><g><path d="M47.3730469,51.4248047c0.5527344,0,1-0.4472656,1-1v-7.8330078c0-0.5527344-0.4472656-1-1-1s-1,0.4472656-1,1v7.8330078    C46.3730469,50.9775391,46.8203125,51.4248047,47.3730469,51.4248047z"/></g><g><path d="M40.7070313,51.4248047c0.5527344,0,1-0.4472656,1-1v-7.8330078c0-0.5527344-0.4472656-1-1-1s-1,0.4472656-1,1v7.8330078    C39.7070313,50.9775391,40.1542969,51.4248047,40.7070313,51.4248047z"/></g><g><path d="M34.0400391,41.5917969c-0.5527344,0-1,0.4472656-1,1v7.8330078c0,0.5527344,0.4472656,1,1,1s1-0.4472656,1-1v-7.8330078    C35.0400391,42.0390625,34.5927734,41.5917969,34.0400391,41.5917969z"/></g><g><path d="M83.5986328,69.859375H52.8730469c-0.5527344,0-1,0.4472656-1,1s0.4472656,1,1,1h30.7255859c0.5527344,0,1-0.4472656,1-1    S84.1513672,69.859375,83.5986328,69.859375z"/></g><g><path d="M107.1337891,65.9433594c-2.7109375,0-4.9160156,2.2050781-4.9160156,4.9160156s2.2050781,4.9169922,4.9160156,4.9169922    s4.9169922-2.2060547,4.9169922-4.9169922S109.8447266,65.9433594,107.1337891,65.9433594z M107.1337891,73.7763672    c-1.6074219,0-2.9160156-1.3085938-2.9160156-2.9169922c0-1.6074219,1.3085938-2.9160156,2.9160156-2.9160156    c1.6083984,0,2.9169922,1.3085938,2.9169922,2.9160156C110.0507813,72.4677734,108.7421875,73.7763672,107.1337891,73.7763672z"/></g><g><path d="M93.5146484,65.9433594c-2.7109375,0-4.9160156,2.2050781-4.9160156,4.9160156s2.2050781,4.9169922,4.9160156,4.9169922    s4.9169922-2.2060547,4.9169922-4.9169922S96.2255859,65.9433594,93.5146484,65.9433594z M93.5146484,73.7763672    c-1.6074219,0-2.9160156-1.3085938-2.9160156-2.9169922c0-1.6074219,1.3085938-2.9160156,2.9160156-2.9160156    c1.6083984,0,2.9169922,1.3085938,2.9169922,2.9160156C96.4316406,72.4677734,95.1230469,73.7763672,93.5146484,73.7763672z"/></g><g><path d="M47.3730469,65.9433594c-0.5527344,0-1,0.4472656-1,1v7.8330078c0,0.5527344,0.4472656,1,1,1s1-0.4472656,1-1v-7.8330078    C48.3730469,66.390625,47.9257813,65.9433594,47.3730469,65.9433594z"/></g><g><path d="M40.7070313,65.9433594c-0.5527344,0-1,0.4472656-1,1v7.8330078c0,0.5527344,0.4472656,1,1,1s1-0.4472656,1-1v-7.8330078    C41.7070313,66.390625,41.2597656,65.9433594,40.7070313,65.9433594z"/></g><g><path d="M34.0400391,65.9433594c-0.5527344,0-1,0.4472656-1,1v7.8330078c0,0.5527344,0.4472656,1,1,1s1-0.4472656,1-1v-7.8330078    C35.0400391,66.390625,34.5927734,65.9433594,34.0400391,65.9433594z"/></g><g><path d="M11,103.7910156h50.1289063c0.5527344,0,1-0.4472656,1-1V87.625c0-0.5527344-0.4472656-1-1-1H11    c-0.5527344,0-1,0.4472656-1,1v15.1660156C10,103.34375,10.4472656,103.7910156,11,103.7910156z M12,88.625h48.1289063v13.1660156    H12V88.625z"/></g><g><path d="M56.0742188,91.7392578h-4.9375c-0.5527344,0-1,0.4472656-1,1v4.9375c0,0.5527344,0.4472656,1,1,1h4.9375    c0.5527344,0,1-0.4472656,1-1v-4.9375C57.0742188,92.1865234,56.6269531,91.7392578,56.0742188,91.7392578z     M55.0742188,96.6767578h-2.9375v-2.9375h2.9375V96.6767578z"/></g><g><path d="M45.1367188,91.7392578h-4.9375c-0.5527344,0-1,0.4472656-1,1v4.9375c0,0.5527344,0.4472656,1,1,1h4.9375    c0.5527344,0,1-0.4472656,1-1v-4.9375C46.1367188,92.1865234,45.6894531,91.7392578,45.1367188,91.7392578z     M44.1367188,96.6767578h-2.9375v-2.9375h2.9375V96.6767578z"/></g><g><path d="M35.7412109,91.7392578h-19.6875c-0.5527344,0-1,0.4472656-1,1s0.4472656,1,1,1h19.6875c0.5527344,0,1-0.4472656,1-1    S36.2939453,91.7392578,35.7412109,91.7392578z"/></g><g><path d="M35.7412109,96.6767578h-19.6875c-0.5527344,0-1,0.4472656-1,1s0.4472656,1,1,1h19.6875c0.5527344,0,1-0.4472656,1-1    S36.2939453,96.6767578,35.7412109,96.6767578z"/></g><g><path d="M51.1367188,119.8261719h4.9375c0.5527344,0,1-0.4472656,1-1v-4.9375c0-0.5527344-0.4472656-1-1-1h-4.9375    c-0.5527344,0-1,0.4472656-1,1v4.9375C50.1367188,119.3789063,50.5839844,119.8261719,51.1367188,119.8261719z     M52.1367188,114.8886719h2.9375v2.9375h-2.9375V114.8886719z"/></g><g><path d="M40.1992188,119.8261719h4.9375c0.5527344,0,1-0.4472656,1-1v-4.9375c0-0.5527344-0.4472656-1-1-1h-4.9375    c-0.5527344,0-1,0.4472656-1,1v4.9375C39.1992188,119.3789063,39.6464844,119.8261719,40.1992188,119.8261719z     M41.1992188,114.8886719h2.9375v2.9375h-2.9375V114.8886719z"/></g><g><path d="M16.0537109,114.8886719h19.6875c0.5527344,0,1-0.4472656,1-1s-0.4472656-1-1-1h-19.6875c-0.5527344,0-1,0.4472656-1,1    S15.5009766,114.8886719,16.0537109,114.8886719z"/></g><g><path d="M36.7412109,118.8261719c0-0.5527344-0.4472656-1-1-1h-19.6875c-0.5527344,0-1,0.4472656-1,1s0.4472656,1,1,1h19.6875    C36.2939453,119.8261719,36.7412109,119.3789063,36.7412109,118.8261719z"/></g><g><path d="M139,86.625H88.8710938c-0.5527344,0-1,0.4472656-1,1v15.1660156c0,0.5527344,0.4472656,1,1,1H139    c0.5527344,0,1-0.4472656,1-1V87.625C140,87.0722656,139.5527344,86.625,139,86.625z M138,101.7910156H89.8710938V88.625H138    V101.7910156z"/></g><g><path d="M129.0087891,98.6767578h4.9375c0.5527344,0,1-0.4472656,1-1v-4.9375c0-0.5527344-0.4472656-1-1-1h-4.9375    c-0.5527344,0-1,0.4472656-1,1v4.9375C128.0087891,98.2294922,128.4560547,98.6767578,129.0087891,98.6767578z     M130.0087891,93.7392578h2.9375v2.9375h-2.9375V93.7392578z"/></g><g><path d="M118.0712891,98.6767578h4.9375c0.5527344,0,1-0.4472656,1-1v-4.9375c0-0.5527344-0.4472656-1-1-1h-4.9375    c-0.5527344,0-1,0.4472656-1,1v4.9375C117.0712891,98.2294922,117.5185547,98.6767578,118.0712891,98.6767578z     M119.0712891,93.7392578h2.9375v2.9375h-2.9375V93.7392578z"/></g><g><path d="M93.9257813,93.7392578h19.6875c0.5527344,0,1-0.4472656,1-1s-0.4472656-1-1-1h-19.6875c-0.5527344,0-1,0.4472656-1,1    S93.3730469,93.7392578,93.9257813,93.7392578z"/></g><g><path d="M93.9257813,98.6767578h19.6875c0.5527344,0,1-0.4472656,1-1s-0.4472656-1-1-1h-19.6875c-0.5527344,0-1,0.4472656-1,1    S93.3730469,98.6767578,93.9257813,98.6767578z"/></g><g><path d="M139,107.7744141H88.8710938c-0.5527344,0-1,0.4472656-1,1v15.1660156c0,0.5527344,0.4472656,1,1,1h21.3544922v5.4438477    c-2.6342773,0.4389648-4.6983643,2.5717773-5.0288086,5.2407227h-24.376709    c-0.3034668-3.9492188-3.3743896-7.1298828-7.2751465-7.6005859V80.6425781h43.5839844c0.5527344,0,1-0.4472656,1-1V62.0761719    c0-0.5527344-0.4472656-1-1-1h-6.7402344v-4.7841797h6.7402344c0.5527344,0,1-0.4472656,1-1V37.7255859    c0-0.5527344-0.4472656-1-1-1h-6.7402344v-4.7841797h6.7402344c0.5527344,0,1-0.4472656,1-1V13.375c0-0.5527344-0.4472656-1-1-1    H27.9619141c-0.5527344,0-1,0.4472656-1,1v17.5664063c0,0.5527344,0.4472656,1,1,1h6.7392578v4.7841797h-6.7392578    c-0.5527344,0-1,0.4472656-1,1v17.5664063c0,0.5527344,0.4472656,1,1,1h6.7392578v4.7841797h-6.7392578    c-0.5527344,0-1,0.4472656-1,1v17.5664063c0,0.5527344,0.4472656,1,1,1h43.5830078v47.3818359    c-3.9000244,0.4707031-6.9706421,3.6513672-7.2741699,7.6005859H39.894104    c-0.3305054-2.6689453-2.3946533-4.8017578-5.0288696-5.2407227v-5.4438477h26.2636719c0.5527344,0,1-0.4472656,1-1v-15.1660156    c0-0.5527344-0.4472656-1-1-1H11c-0.5527344,0-1,0.4472656-1,1v15.1660156c0,0.5527344,0.4472656,1,1,1h21.8652344v5.4438477    c-2.6342163,0.4389648-4.6983643,2.5717773-5.0288696,5.2407227h-5.230896c-0.5527344,0-1,0.4472656-1,1s0.4472656,1,1,1    h6.1796875h10.1601563h26.2929688h14.6142578h26.2929688h10.1591797h6.1806641c0.5527344,0,1-0.4472656,1-1s-0.4472656-1-1-1    h-5.2319336c-0.3303223-2.6689453-2.3942871-4.8017578-5.027832-5.2407227v-5.4438477H139c0.5527344,0,1-0.4472656,1-1    v-15.1660156C140,108.2216797,139.5527344,107.7744141,139,107.7744141z M28.9619141,14.375h87.1669922v15.5664063H28.9619141    V14.375z M36.7011719,31.9414063h71.6875v4.7841797h-71.6875V31.9414063z M28.9619141,38.7255859h87.1669922v15.5664063    H28.9619141V38.7255859z M36.7011719,56.2919922h71.6875v4.7841797h-71.6875V56.2919922z M28.9619141,63.0761719h87.1669922    v15.5664063H28.9619141V63.0761719z M12,109.7744141h48.1289063v13.1660156H12V109.7744141z M29.8544922,135.625    c0.3525391-1.8925781,2.0166016-3.3300781,4.0107422-3.3300781s3.6582031,1.4375,4.0107422,3.3300781H29.8544922z     M66.2705078,135.625c0.3222656-3.1777344,3.0136719-5.6669922,6.2744141-5.6669922    c3.2617188,0,5.953125,2.4892578,6.2753906,5.6669922H66.2705078z M115.2353516,135.625h-8.0205078    c0.3525391-1.8925781,2.0166016-3.3300781,4.0107422-3.3300781    C113.21875,132.2949219,114.8828125,133.7324219,115.2353516,135.625z M138,122.9404297H89.8710938v-13.1660156H138V122.9404297z"/></g><g><path d="M129.0087891,119.8261719h4.9375c0.5527344,0,1-0.4472656,1-1v-4.9375c0-0.5527344-0.4472656-1-1-1h-4.9375    c-0.5527344,0-1,0.4472656-1,1v4.9375C128.0087891,119.3789063,128.4560547,119.8261719,129.0087891,119.8261719z     M130.0087891,114.8886719h2.9375v2.9375h-2.9375V114.8886719z"/></g><g><path d="M118.0712891,119.8261719h4.9375c0.5527344,0,1-0.4472656,1-1v-4.9375c0-0.5527344-0.4472656-1-1-1h-4.9375    c-0.5527344,0-1,0.4472656-1,1v4.9375C117.0712891,119.3789063,117.5185547,119.8261719,118.0712891,119.8261719z     M119.0712891,114.8886719h2.9375v2.9375h-2.9375V114.8886719z"/></g><g><path d="M93.9257813,114.8886719h19.6875c0.5527344,0,1-0.4472656,1-1s-0.4472656-1-1-1h-19.6875c-0.5527344,0-1,0.4472656-1,1    S93.3730469,114.8886719,93.9257813,114.8886719z"/></g><g><path d="M93.9257813,119.8261719h19.6875c0.5527344,0,1-0.4472656,1-1s-0.4472656-1-1-1h-19.6875c-0.5527344,0-1,0.4472656-1,1    S93.3730469,119.8261719,93.9257813,119.8261719z"/></g></g><text x="0" y="165" fill="#000000" font-size="5px" font-weight="bold" font-family="'Helvetica Neue', Helvetica, Arial-Unicode, Arial, Sans-serif">Created by Dinosoft Labs</text><text x="0" y="170" fill="#000000" font-size="5px" font-weight="bold" font-family="'Helvetica Neue', Helvetica, Arial-Unicode, Arial, Sans-serif">from the Noun Project</text></svg>