<svg xmlns="http://www.w3.org/2000/svg" xmlns:xlink="http://www.w3.org/1999/xlink" version="1.1" x="0px" y="0px" viewBox="0 0 150 187.5" style="enable-background:new 0 0 150 150;" xml:space="preserve"><style type="text/css">
	.st0{fill:none;}
	.st1{fill:none;stroke:#000000;stroke-width:2;stroke-linecap:round;stroke-linejoin:round;stroke-miterlimit:10;}
</style><g><g><path d="M129.8861694,123.7109375l-10.925415-0.8598633C162.51091,82.8787842,133.8786621,10,74.9994507,10    c-10.3847656,0-20.3251953,2.3955078-29.5439453,7.1210938c-0.4912109,0.2519531-0.6855469,0.8544922-0.4335938,1.3457031    c0.2509766,0.4912109,0.8554688,0.6865234,1.3457031,0.4335938C55.3012085,14.3212891,64.9349976,12,74.9994507,12    c56.9839935,0,84.7611389,70.446106,42.7580566,109.2436523L118.6029663,110.5    c0.1040192-1.3309937-1.8929138-1.4537888-1.9941406-0.15625c-1.1350708,14.4878387-1.1617813,13.4762955-0.8393555,13.9111328    c0.1683197,0.2283325,0.2771759,0.2821121,0.5214844,0.3525391c0.4221649,0.123558-1.2491837-0.0869522,13.4389648,1.0976563    c0.5640259,0.0417786,1.0329895-0.3792191,1.0751953-0.9189453    C130.8480835,124.2363281,130.4369507,123.7548828,129.8861694,123.7109375z"/></g><g><path d="M74.9994507,138C19.6177559,138-8.5799561,71.1903763,29.4221821,31.5214844l-0.1697998,10.7871094    c-0.0087891,0.5517578,0.4316406,1.0068359,0.984375,1.015625c0.1000347-0.0434685,1.0006065-0.0499802,1.015625-0.984375    c0.0733604-4.9557457,0.215723-13.0101204,0.1959229-13.3544922c-0.0135956-0.2458286-0.0776558-0.4401283-0.265625-0.6367188    c-0.0011597-0.0009766-0.0014038-0.0029297-0.0025635-0.0039063h-0.000061    c-0.6272526-0.650547-1.3275337-0.1311321-13.9872437-0.5136719c-0.5341797,0.0048828-1.0068359,0.4326172-1.015625,0.984375    s0.4316406,1.0068359,0.984375,1.015625l10.9489746,0.1723633C-11.1995726,70.8008423,17.5801811,140,74.9994507,140    c8.9443359,0,17.6601563-1.8242188,25.9042969-5.4208984c0.5058594-0.2216797,0.7373047-0.8105469,0.5166016-1.3173828    C100.2780762,130.6370239,94.3970718,138,74.9994507,138z"/></g><g><path d="M115.2748413,104.4150391l-5.5253906-5.5244141c3.3447266-4.8583984,5.6542969-10.4296875,6.7216797-16.2119141h7.8066406    c0.5527344,0,1-0.4472656,1-1V68.3212891c0-0.5527344-0.4472656-1-1-1h-7.8066406    c-1.0673828-5.7802734-3.3769531-11.3525391-6.7216797-16.2119141l5.5253906-5.5244141    c0.1875-0.1875,0.2929688-0.4414063,0.2929688-0.7070313s-0.1054688-0.5195313-0.2929688-0.7070313l-9.4462891-9.4462891    c-0.375-0.375-1.0390625-0.375-1.4140625,0L98.8900757,40.25c-4.859375-3.3447266-10.4316406-5.6542969-16.2119141-6.7216797    v-7.8066406c0-0.5527344-0.4472656-1-1-1H68.3207397c-0.5527344,0-1,0.4472656-1,1v7.8066406    C61.5404663,34.5957031,55.9682007,36.9052734,51.1088257,40.25l-5.5244141-5.5253906    c-0.1875-0.1875-0.4414063-0.2929688-0.7070313-0.2929688s-0.5195313,0.1054688-0.7070313,0.2929688    c-9.0859795,9.2244606-10.5162506,9.79039-9.4462891,10.8603516l5.5253906,5.5244141    c-3.3447266,4.859375-5.6542969,10.4316406-6.7216797,16.2119141c-6.3428192,0.3221359-8.8066387-0.7476196-8.8066387,1    c0.3766422,12.0903702-0.8262558,14.3574219,1,14.3574219h7.8066387    c1.0673828,5.7822266,3.3769531,11.3535156,6.7216797,16.2119141l-5.5253906,5.5244141    c-0.1875,0.1875-0.2929688,0.4414063-0.2929688,0.7070313s0.1054688,0.5195313,0.2929688,0.7070313l9.4462891,9.4462891    c0.375,0.375,1.0390625,0.375,1.4140625,0L51.1088257,109.75c4.859375,3.3447266,10.4316406,5.6542969,16.2119141,6.7216797    v7.8066406c0,0.5527344,0.4472656,1,1,1c12.0903702-0.3766403,14.3574219,0.8262558,14.3574219-1v-7.8066406    c5.7802734-1.0673828,11.3525391-3.3769531,16.2119141-6.7216797l5.5244141,5.5253906    c0.1875,0.1875,0.4414063,0.2929688,0.7070313,0.2929688s0.5195313-0.1054688,0.7070313-0.2929688l9.4462891-9.4462891    c0.1875-0.1875,0.2929688-0.4414063,0.2929688-0.7070313S115.4623413,104.6025391,115.2748413,104.4150391z     M105.121521,113.1542969l-5.4121094-5.4130859c-0.3466797-0.3457031-0.8925781-0.3916016-1.2910156-0.1044922    c-5.0009766,3.5957031-10.8457031,6.0185547-16.9013672,7.0068359c-0.4833984,0.0791016-0.8388672,0.4970703-0.8388672,0.9873047    v7.6474609H69.3207397v-7.6474609c0-0.4902344-0.3554688-0.9082031-0.8388672-0.9873047    c-6.0556641-0.9882813-11.9003906-3.4111328-16.9013672-7.0068359c-0.3984375-0.2880859-0.9453125-0.2421875-1.2910156,0.1044922    l-5.4121094,5.4130859l-8.0322266-8.0322266l5.4130859-5.4121094c0.3466797-0.3466797,0.390625-0.8925781,0.1044922-1.2910156    c-3.5957031-5-6.0185547-10.84375-7.0068359-16.9013672c-0.0791016-0.4833984-0.4970703-0.8388672-0.9873047-0.8388672h-7.647459    V69.3212891h7.647459c0.4902344,0,0.9082031-0.3554688,0.9873047-0.8388672    c0.9882813-6.0556641,3.4111328-11.9003906,7.0068359-16.9013672c0.2861328-0.3984375,0.2421875-0.9443359-0.1044922-1.2910156    l-5.4130859-5.4121094l8.0322266-8.0322266l5.4121094,5.4130859c0.3466797,0.3476563,0.8935547,0.3916016,1.2910156,0.1044922    c5.0009766-3.5957031,10.8457031-6.0185547,16.9013672-7.0068359c0.4833984-0.0791016,0.8388672-0.4970703,0.8388672-0.9873047    v-7.6474609h11.3574219v7.6474609c0,0.4902344,0.3554688,0.9082031,0.8388672,0.9873047    c6.0556641,0.9882813,11.9003906,3.4111328,16.9013672,7.0068359c0.3974609,0.2861328,0.9433594,0.2421875,1.2910156-0.1044922    l5.4121094-5.4130859l8.0322266,8.0322266l-5.4130859,5.4121094c-0.3466797,0.3466797-0.390625,0.8925781-0.1044922,1.2910156    c3.5957031,5.0009766,6.0185547,10.8457031,7.0068359,16.9013672c0.0791016,0.4833984,0.4970703,0.8388672,0.9873047,0.8388672    h7.6474609v11.3574219h-7.6474609c-0.4902344,0-0.9082031,0.3554688-0.9873047,0.8388672    c-0.9882813,6.0576172-3.4111328,11.9013672-7.0068359,16.9013672c-0.2861328,0.3984375-0.2421875,0.9443359,0.1044922,1.2910156    l5.4130859,5.4121094L105.121521,113.1542969z"/></g><g><path d="M74.9994507,46.8037109c-15.5478516,0-28.1962891,12.6484375-28.1962891,28.1962891    s12.6484375,28.1962891,28.1962891,28.1962891S103.1957397,90.5478516,103.1957397,75    S90.5473022,46.8037109,74.9994507,46.8037109z M74.9994507,101.1962891    c-14.4443359,0-26.1962891-11.7519531-26.1962891-26.1962891s11.7519531-26.1962891,26.1962891-26.1962891    S101.1957397,60.5556641,101.1957397,75S89.4437866,101.1962891,74.9994507,101.1962891z"/></g></g><text x="0" y="165" fill="#000000" font-size="5px" font-weight="bold" font-family="'Helvetica Neue', Helvetica, Arial-Unicode, Arial, Sans-serif">Created by Dinosoft Labs</text><text x="0" y="170" fill="#000000" font-size="5px" font-weight="bold" font-family="'Helvetica Neue', Helvetica, Arial-Unicode, Arial, Sans-serif">from the Noun Project</text></svg>