<svg xmlns="http://www.w3.org/2000/svg" xmlns:xlink="http://www.w3.org/1999/xlink" version="1.1" x="0px" y="0px" viewBox="0 0 150 187.5" style="enable-background:new 0 0 150 150;" xml:space="preserve"><style type="text/css">
	.st0{fill:none;}
	.st1{fill:none;stroke:#000000;stroke-width:2;stroke-linecap:round;stroke-linejoin:round;stroke-miterlimit:10;}
</style><g><g><path d="M75.0057983,57.5740433c9.3300781,0,16.9199219-7.5898438,16.9199219-16.9199219    c0-9.3291016-7.5898438-16.9189453-16.9199219-16.9189453s-16.9199219,7.5898438-16.9199219,16.9189453    C58.0858765,49.9841995,65.6757202,57.5740433,75.0057983,57.5740433z M75.0057983,25.7351761    c8.2265625,0,14.9199219,6.6923828,14.9199219,14.9189453s-6.6933594,14.9199219-14.9199219,14.9199219    s-14.9199219-6.6933594-14.9199219-14.9199219S66.7792358,25.7351761,75.0057983,25.7351761z"/></g><g><path d="M138.7684937,90.061348c0.3896484-0.390625,0.3896484-1.0234375-0.0009766-1.4140625l-7.2929688-7.2919922V40.6560745    c0-0.5527344-0.4472656-1-1-1h-24.8310547v-2.5263672c0-0.4863281-0.3496094-0.9023438-0.8291016-0.9853516l-6.0068359-1.0400391    c-0.5966797-2.5888672-1.6191406-5.0527344-3.046875-7.34375c2.6974564-4.2856064,4.425354-5.2465305,3.3916016-6.2773438    c-4.4996948-4.1207771-5.0498886-5.9266863-6.2548828-5.0849609l-4.9951172,3.5009766    c-2.2724609-1.4189453-4.7373047-2.4433594-7.3457031-3.0537109c-1.1199646-4.9343319-0.5733185-6.828124-2.0351563-6.828124    c-6.0032578,0.2641869-7.7720337-0.6321011-8.0283203,0.828125l-1.0488281,5.999999    c-2.3787537,0.5565395-4.9957886,1.5863857-7.3339844,3.0507813c-4.2958183-2.7003479-5.2470818-4.4160042-6.2783203-3.3876953    l-4.9833984,4.9736328c-1.0368729,1.0339375,0.6968231,1.9944782,3.4003906,6.2792969    c-1.4160156,2.2753906-2.4375,4.7392578-3.0449219,7.3427734c-4.9549065,1.115242-6.8378906,0.5607224-6.8378906,2.0253906    v2.5263672H19.5350952c-0.5527344,0-1,0.4472656-1,1v40.6977539l-7.3027344,7.2924805    c-0.1875,0.1875-0.2929688,0.4423828-0.2929688,0.7080078c0,0.2646484,0.1054688,0.5195313,0.2929688,0.7070313    l7.3027344,7.3027344v28.1445313h-5.2597656c-0.5527344,0-1,0.4472656-1,1v12.5087967c0,0.5527344,0.4472656,1,1,1h12.5087891    c0.5527344,0,1-0.4472656,1-1v-5.2597656h40.6401367c0.6921387,3.5756836,3.8527832,6.2597656,7.5805664,6.2597656    c3.7182617,0,6.8735352-2.6713867,7.5776367-6.2597656h40.6430664v5.2597656c0,0.5527344,0.4472656,1,1,1h12.4990234    c0.5527344,0,1-0.4472656,1-1v-12.5087967c0-0.5527344-0.4472656-1-1-1h-5.25v-28.144043L138.7684937,90.061348z     M130.4745483,95.5349808l-6.1796875-6.1796875l6.1796875-6.171875l6.171875,6.171875L130.4745483,95.5349808z     M129.4745483,41.6560745v39.6977539l-7.0093994,7.0004883H81.5614624v-4.5556641c0-0.5527344-0.4472656-1-1-1h-4.5566406    V71.295723c1.5652466-0.1601028,3.2724609,0.4794388,3.5019531-0.828125l1.0498047-6.0107422    c2.6240234-0.6113281,5.0898438-1.6367188,7.3457031-3.0527344c4.2869263,2.7050858,5.2460709,4.435585,6.2763672,3.3994141    c4.0636368-4.4372253,5.9346008-5.045784,5.0849609-6.2548828l-3.5029297-4.9960938    c1.4257813-2.2880859,2.4482422-4.7519531,3.046875-7.34375c4.9488449-1.1149025,6.8359375-0.5634232,6.8359375-2.0263672    v-2.5263672H129.4745483z M70.4491577,93.9109573v-9.1123047h9.1123047v9.1123047H70.4491577z M46.3661499,37.9715042    c5.2203407-1.1075554,6.4129677-0.6295509,6.6503906-1.796875c1.357502-6.6494617,4.1589661-7.7247925,3.2548828-9.0136719    l-3.4150391-4.8574219l3.7949219-3.7871094c8.5902176,5.5950527,2.5672455,3.7218685,11.2236328,0.8681641    c2.484314-0.8820057,3.249054-0.5405903,3.4238281-1.5341797l1.0195313-5.8330069h5.3632813    c1.1162338,5.2205,0.6400146,6.4031668,1.8046875,6.640624c2.8271484,0.5791016,5.4804688,1.6826172,7.8867188,3.2792969    c0.3417969,0.2275391,0.7900391,0.2207031,1.1269531-0.0136719l4.8583984-3.40625l3.7861328,3.7861328    c-2.8986511,4.4821987-4.0782471,4.9913254-3.421875,5.984375c1.6074219,2.4306641,2.7080078,5.0830078,3.2695313,7.8828125    c0.0810547,0.4052734,0.4033203,0.71875,0.8095703,0.7890625l5.8417969,1.0117188v2.6845703v2.6845703l-5.8417969,1.0126953    c-0.40625,0.0703125-0.7285156,0.3837891-0.8095703,0.7880859c-0.5644531,2.8046875-1.6640625,5.4570313-3.2695313,7.8837891    c-0.658844,0.9967918,0.5336227,1.5182495,3.421875,5.984375l-3.7851563,3.7851563    c-4.4691696-2.8954506-4.9960098-4.095562-5.9892578-3.4277344c-5.6542969,3.7772598-8.3948822,2.5269356-8.6689453,4.0849609    l-1.0205078,5.84375h-5.3613281c-1.1105957-5.2026367-0.6374817-6.4133911-1.8046875-6.6513672    c-6.5422554-1.3418846-7.7305565-4.1577301-9.0058594-3.2646484l-4.8583984,3.4160156l-3.7939453-3.7861328    c2.882309-4.4454498,4.0915527-4.9816475,3.4306641-5.984375c-3.7985077-5.7455635-2.5188179-8.4011726-4.0791016-8.671875    l-5.8417969-1.0126953v-2.6845703V37.9715042z M20.5350952,41.6560745h23.8310547v2.5263672    c0,1.4631805,1.9009323,0.9144592,6.8378906,2.0263672c0.609375,2.6064453,1.6308594,5.0703125,3.0449219,7.3427734    l-3.5126953,4.9960938c-0.8489914,1.2111511,1.0110626,1.8048477,5.0957031,6.2568359    c1.0320168,1.0320206,1.9903145-0.6956863,6.2763672-3.4013672c2.265625,1.4179688,4.7275391,2.4423828,7.3349609,3.0537109    l1.0498047,6.0107422c0.2295303,1.3078079,1.9390945,0.6677246,3.5117188,0.828125v11.5029297h-4.5556641    c-0.5527344,0-1,0.4472656-1,1v4.5556641H27.5341187l-6.9990234-6.9990234V41.6560745z M19.5341187,83.1834183l6.171875,6.171875    l-6.171875,6.1796875l-6.1796875-6.1796875L19.5341187,83.1834183z M24.7841187,138.0174103H14.2753296v-10.5087967h5.2597656    h5.2490234v5.2490311V138.0174103z M25.7841187,125.5086136h-5.2490234v-28.144043l7.0004883-7.0102539h40.9135742v4.5566406    c0,0.5527344,0.4472656,1,1,1h4.5556641v28.7158203c-3.7548752,0.4931946-6.4742737,3.5922623-6.7138672,7.130867H26.7841187    v-5.2490311C26.7841187,125.9558792,26.336853,125.5086136,25.7841187,125.5086136z M75.0048218,138.0174103    c-3.1533661,0-5.7314453-2.5795593-5.7314453-5.7314453c0-3.1601563,2.5712891-5.7314529,5.7314453-5.7314529    c3.2387848,0,5.9398499,2.722374,5.7138672,6.1347733C80.5126343,135.67659,78.0028687,138.0174103,75.0048218,138.0174103z     M135.7245483,138.0174103h-10.4990234v-5.2597656v-5.2490311h5.2490234h5.25V138.0174103z M124.2255249,125.5086136    c-0.5527344,0-1,0.4472656-1,1v5.2490311H82.718689c-0.2407455-3.5555878-2.9830322-6.6344604-6.6911621-7.127449    c-0.0075684-0.0009766-0.0151367-0.0024414-0.0227051-0.003418V95.9109573h4.5566406c0.5527344,0,1-0.4472656,1-1v-4.5566406    h40.9042969l7.0087891,7.0097656v28.1445313H124.2255249z"/></g><g><path d="M130.4696655,87.4509964c-0.5527344,0-1,0.4472656-1,1v1.8173828c0,0.5527344,0.4472656,1,1,1s1-0.4472656,1-1v-1.8173828    C131.4696655,87.898262,131.0223999,87.4509964,130.4696655,87.4509964z"/></g><g><path d="M20.5302124,90.2683792v-1.8173828c0-0.5527344-0.4472656-1-1-1s-1,0.4472656-1,1v1.8173828c0,0.5527344,0.4472656,1,1,1    S20.5302124,90.8211136,20.5302124,90.2683792z"/></g><g><path d="M19.5302124,130.8553009c-0.5527344,0-1,0.4472656-1,1v1.8164063c0,0.5527344,0.4472656,1,1,1s1-0.4472656,1-1v-1.8164063    C20.5302124,131.3025665,20.0829468,130.8553009,19.5302124,130.8553009z"/></g><g><path d="M129.4745483,131.8553009v1.8164063c0,0.5527344,0.4472656,1,1,1s1-0.4472656,1-1v-1.8164063c0-0.5527344-0.4472656-1-1-1    S129.4745483,131.3025665,129.4745483,131.8553009z"/></g><g><path d="M74.0048218,131.8318634c0.073761,0.314682-0.3256912,1.9082031,1,1.9082031c1.3263092,0,0.9476547-1.6848755,1-1.9082031    C76.0048218,130.507843,74.0048218,130.5092621,74.0048218,131.8318634z"/></g></g><text x="0" y="165" fill="#000000" font-size="5px" font-weight="bold" font-family="'Helvetica Neue', Helvetica, Arial-Unicode, Arial, Sans-serif">Created by Dinosoft Labs</text><text x="0" y="170" fill="#000000" font-size="5px" font-weight="bold" font-family="'Helvetica Neue', Helvetica, Arial-Unicode, Arial, Sans-serif">from the Noun Project</text></svg>