<svg xmlns="http://www.w3.org/2000/svg" xmlns:xlink="http://www.w3.org/1999/xlink" version="1.1" x="0px" y="0px" viewBox="0 0 150 187.5" style="enable-background:new 0 0 150 150;" xml:space="preserve"><style type="text/css">
	.st0{fill:none;}
	.st1{fill:none;stroke:#000000;stroke-width:2;stroke-linecap:round;stroke-linejoin:round;stroke-miterlimit:10;}
</style><g><g><path d="M10.9838285,10.0041189c-0.5527344,0-1,0.4477539-1,1V34.084198c0,0.5522461,0.4472656,1,1,1    c134.4040375-0.4665108,129,0.9779663,129-1V11.0041189C139.9838257,9.0324831,145.5405731,10.4711599,10.9838285,10.0041189z     M137.9838257,33.084198h-126V12.0041189h126V33.084198z"/></g><g><path d="M95.7015991,28.1925964c3.0820313,0,5.5898438-2.5317383,5.5898438-5.6435547    c0-3.1171875-2.5078125-5.652832-5.5898438-5.652832s-5.5888672,2.5356445-5.5888672,5.652832    C90.1127319,25.6608582,92.6195679,28.1925964,95.7015991,28.1925964z M95.7015991,18.8962097    c1.9794922,0,3.5898438,1.6386719,3.5898438,3.652832c0,2.0092773-1.6103516,3.6435547-3.5898438,3.6435547    c-1.9785156,0-3.5888672-1.6342773-3.5888672-3.6435547C92.1127319,20.5348816,93.7230835,18.8962097,95.7015991,18.8962097z"/></g><g><path d="M111.0482788,28.1925964c3.0820313,0,5.5898438-2.5317383,5.5898438-5.6435547    c0-3.1171875-2.5078125-5.652832-5.5898438-5.652832s-5.5898438,2.5356445-5.5898438,5.652832    C105.4584351,25.6608582,107.9662476,28.1925964,111.0482788,28.1925964z M111.0482788,18.8962097    c1.9794922,0,3.5898438,1.6386719,3.5898438,3.652832c0,2.0092773-1.6103516,3.6435547-3.5898438,3.6435547    s-3.5898438-1.6342773-3.5898438-3.6435547C107.4584351,20.5348816,109.0687866,18.8962097,111.0482788,18.8962097z"/></g><g><path d="M126.3939819,28.1925964c3.0820313,0,5.5898438-2.5317383,5.5898438-5.6435547    c0-3.1171875-2.5078125-5.652832-5.5898438-5.652832c-3.0869141,0-5.5986328,2.5356445-5.5986328,5.652832    C120.7953491,25.6608582,123.3070679,28.1925964,126.3939819,28.1925964z M126.3939819,18.8962097    c1.9794922,0,3.5898438,1.6386719,3.5898438,3.652832c0,2.0092773-1.6103516,3.6435547-3.5898438,3.6435547    c-1.984375,0-3.5986328-1.6342773-3.5986328-3.6435547C122.7953491,20.5348816,124.4096069,18.8962097,126.3939819,18.8962097z"/></g><g><path d="M18.9838295,19.61203h66.5449219c0.5527344,0,1-0.4477539,1-1s-0.4472656-1-1-1H18.9838295c-0.5527344,0-1,0.4477539-1,1    S18.4310951,19.61203,18.9838295,19.61203z"/></g><g><path d="M18.9838295,27.4767761h66.5449219c0.5527344,0,1-0.4477539,1-1s-0.4472656-1-1-1H18.9838295    c-0.5527344,0-1,0.4477539-1,1S18.4310951,27.4767761,18.9838295,27.4767761z"/></g><g><path d="M18.9838295,49.6457214h66.5449219c0.5527344,0,1-0.4477539,1-1s-0.4472656-1-1-1H18.9838295    c-0.5527344,0-1,0.4477539-1,1S18.4310951,49.6457214,18.9838295,49.6457214z"/></g><g><path d="M18.9838295,57.5104675h66.5449219c0.5527344,0,1-0.4477539,1-1s-0.4472656-1-1-1H18.9838295    c-0.5527344,0-1,0.4477539-1,1S18.4310951,57.5104675,18.9838295,57.5104675z"/></g><g><path d="M18.9838295,79.6799011h66.5449219c0.5527344,0,1-0.4477539,1-1s-0.4472656-1-1-1H18.9838295    c-0.5527344,0-1,0.4477539-1,1S18.4310951,79.6799011,18.9838295,79.6799011z"/></g><g><path d="M18.9838295,87.5441589h66.5449219c0.5527344,0,1-0.4477539,1-1s-0.4472656-1-1-1H18.9838295    c-0.5527344,0-1,0.4477539-1,1S18.4310951,87.5441589,18.9838295,87.5441589z"/></g><g><path d="M18.9838295,109.7135925h66.5449219c0.5527344,0,1-0.4477539,1-1s-0.4472656-1-1-1H18.9838295    c-0.5527344,0-1,0.4477539-1,1S18.4310951,109.7135925,18.9838295,109.7135925z"/></g><g><path d="M18.9838295,117.5783386h66.5449219c0.5527344,0,1-0.4477539,1-1s-0.4472656-1-1-1H18.9838295    c-0.5527344,0-1,0.4477539-1,1S18.4310951,117.5783386,18.9838295,117.5783386z"/></g><g><path d="M10.9838285,40.0378113c-0.5527344,0-1,0.4477539-1,1v23.0805664c0,0.5522461,0.4472656,1,1,1    c134.4040375-0.4665146,129,0.9779663,129-1V41.0378113C139.9838257,39.0661736,145.5405731,40.5048523,10.9838285,40.0378113z     M137.9838257,63.1183777h-126V42.0378113h126V63.1183777z"/></g><g><path d="M95.7015991,58.2262878c3.0820313,0,5.5898438-2.5317383,5.5898438-5.6435547    c0-3.1171875-2.5078125-5.652832-5.5898438-5.652832s-5.5888672,2.5356445-5.5888672,5.652832    C90.1127319,55.6945496,92.6195679,58.2262878,95.7015991,58.2262878z M95.7015991,48.9299011    c1.9794922,0,3.5898438,1.6386719,3.5898438,3.652832c0,2.0092773-1.6103516,3.6435547-3.5898438,3.6435547    c-1.9785156,0-3.5888672-1.6342773-3.5888672-3.6435547C92.1127319,50.568573,93.7230835,48.9299011,95.7015991,48.9299011z"/></g><g><path d="M111.0482788,58.2262878c3.0820313,0,5.5898438-2.5317383,5.5898438-5.6435547    c0-3.1171875-2.5078125-5.652832-5.5898438-5.652832s-5.5898438,2.5356445-5.5898438,5.652832    C105.4584351,55.6945496,107.9662476,58.2262878,111.0482788,58.2262878z M111.0482788,48.9299011    c1.9794922,0,3.5898438,1.6386719,3.5898438,3.652832c0,2.0092773-1.6103516,3.6435547-3.5898438,3.6435547    s-3.5898438-1.6342773-3.5898438-3.6435547C107.4584351,50.568573,109.0687866,48.9299011,111.0482788,48.9299011z"/></g><g><path d="M126.3939819,58.2262878c3.0820313,0,5.5898438-2.5317383,5.5898438-5.6435547    c0-3.1171875-2.5078125-5.652832-5.5898438-5.652832c-3.0869141,0-5.5986328,2.5356445-5.5986328,5.652832    C120.7953491,55.6945496,123.3070679,58.2262878,126.3939819,58.2262878z M126.3939819,48.9299011    c1.9794922,0,3.5898438,1.6386719,3.5898438,3.652832c0,2.0092773-1.6103516,3.6435547-3.5898438,3.6435547    c-1.984375,0-3.5986328-1.6342773-3.5986328-3.6435547C122.7953491,50.568573,124.4096069,48.9299011,126.3939819,48.9299011z"/></g><g><path d="M10.9838285,70.071991c-0.5527344,0-1,0.4477539-1,1v23.0800781c0,0.5522461,0.4472656,1,1,1    c134.4040375-0.4665146,129,0.9779663,129-1V71.071991C139.9838257,69.1003571,145.5405731,70.539032,10.9838285,70.071991z     M137.9838257,93.1520691h-126V72.071991h126V93.1520691z"/></g><g><path d="M95.7015991,88.2599792c3.0820313,0,5.5898438-2.53125,5.5898438-5.6430664    c0-3.1171875-2.5078125-5.6533203-5.5898438-5.6533203s-5.5888672,2.5361328-5.5888672,5.6533203    C90.1127319,85.7287292,92.6195679,88.2599792,95.7015991,88.2599792z M95.7015991,78.9635925    c1.9794922,0,3.5898438,1.6386719,3.5898438,3.6533203c0,2.0087891-1.6103516,3.6430664-3.5898438,3.6430664    c-1.9785156,0-3.5888672-1.6342773-3.5888672-3.6430664C92.1127319,80.6022644,93.7230835,78.9635925,95.7015991,78.9635925z"/></g><g><path d="M111.0482788,88.2599792c3.0820313,0,5.5898438-2.53125,5.5898438-5.6430664    c0-3.1171875-2.5078125-5.6533203-5.5898438-5.6533203s-5.5898438,2.5361328-5.5898438,5.6533203    C105.4584351,85.7287292,107.9662476,88.2599792,111.0482788,88.2599792z M111.0482788,78.9635925    c1.9794922,0,3.5898438,1.6386719,3.5898438,3.6533203c0,2.0087891-1.6103516,3.6430664-3.5898438,3.6430664    s-3.5898438-1.6342773-3.5898438-3.6430664C107.4584351,80.6022644,109.0687866,78.9635925,111.0482788,78.9635925z"/></g><g><path d="M126.3939819,88.2599792c3.0820313,0,5.5898438-2.53125,5.5898438-5.6430664    c0-3.1171875-2.5078125-5.6533203-5.5898438-5.6533203c-3.0869141,0-5.5986328,2.5361328-5.5986328,5.6533203    C120.7953491,85.7287292,123.3070679,88.2599792,126.3939819,88.2599792z M126.3939819,78.9635925    c1.9794922,0,3.5898438,1.6386719,3.5898438,3.6533203c0,2.0087891-1.6103516,3.6430664-3.5898438,3.6430664    c-1.984375,0-3.5986328-1.6342773-3.5986328-3.6430664C122.7953491,80.6022644,124.4096069,78.9635925,126.3939819,78.9635925z"/></g><g><path d="M10.9838285,99.9914246c-0.5527344,0-1,0.4477539-1,1v23.0800781c0,0.5522461,0.4472656,1,1,1h62.9999962v7.0935059    c-2.9649048,0.4455566-5.3167725,2.8330078-5.7346802,5.8391113H21.3168373c-0.5527344,0-1,0.4477539-1,1s0.4472656,1,1,1    c112.3543701-0.4643707,108.3339844,0.9496002,108.3339844-1c0-1.9353485-0.6181641-0.5580139-47.9320068-1    c-0.4168701-3.005127-2.7686768-5.3918457-5.7349854-5.838623v-7.0939941c64.6223907-0.4521103,64,0.9444427,64-1v-23.0800781    C139.9838257,99.0197906,145.5405731,100.4584656,10.9838285,99.9914246z M79.6820679,137.9196472h-9.3955078    c0.4716797-2.1894531,2.4023438-3.8374023,4.6953125-3.8374023    C77.277771,134.0822449,79.2103882,135.7301941,79.6820679,137.9196472z M137.9838257,123.0715027h-126v-21.0800781h126    V123.0715027z"/></g><g><path d="M95.7015991,118.1794128c3.0820313,0,5.5898438-2.5317383,5.5898438-5.6435547    c0-3.1171875-2.5078125-5.652832-5.5898438-5.652832s-5.5888672,2.5356445-5.5888672,5.652832    C90.1127319,115.6476746,92.6195679,118.1794128,95.7015991,118.1794128z M95.7015991,108.8830261    c1.9794922,0,3.5898438,1.6386719,3.5898438,3.652832c0,2.0092773-1.6103516,3.6435547-3.5898438,3.6435547    c-1.9785156,0-3.5888672-1.6342773-3.5888672-3.6435547C92.1127319,110.521698,93.7230835,108.8830261,95.7015991,108.8830261z"/></g><g><path d="M111.0482788,118.1794128c3.0820313,0,5.5898438-2.5317383,5.5898438-5.6435547    c0-3.1171875-2.5078125-5.652832-5.5898438-5.652832s-5.5898438,2.5356445-5.5898438,5.652832    C105.4584351,115.6476746,107.9662476,118.1794128,111.0482788,118.1794128z M111.0482788,108.8830261    c1.9794922,0,3.5898438,1.6386719,3.5898438,3.652832c0,2.0092773-1.6103516,3.6435547-3.5898438,3.6435547    s-3.5898438-1.6342773-3.5898438-3.6435547C107.4584351,110.521698,109.0687866,108.8830261,111.0482788,108.8830261z"/></g><g><path d="M126.3939819,118.1794128c3.0820313,0,5.5898438-2.5317383,5.5898438-5.6435547    c0-3.1171875-2.5078125-5.652832-5.5898438-5.652832c-3.0869141,0-5.5986328,2.5356445-5.5986328,5.652832    C120.7953491,115.6476746,123.3070679,118.1794128,126.3939819,118.1794128z M126.3939819,108.8830261    c1.9794922,0,3.5898438,1.6386719,3.5898438,3.652832c0,2.0092773-1.6103516,3.6435547-3.5898438,3.6435547    c-1.984375,0-3.5986328-1.6342773-3.5986328-3.6435547C122.7953491,110.521698,124.4096069,108.8830261,126.3939819,108.8830261z"/></g></g><text x="0" y="165" fill="#000000" font-size="5px" font-weight="bold" font-family="'Helvetica Neue', Helvetica, Arial-Unicode, Arial, Sans-serif">Created by Dinosoft Labs</text><text x="0" y="170" fill="#000000" font-size="5px" font-weight="bold" font-family="'Helvetica Neue', Helvetica, Arial-Unicode, Arial, Sans-serif">from the Noun Project</text></svg>