<svg xmlns="http://www.w3.org/2000/svg" xmlns:xlink="http://www.w3.org/1999/xlink" version="1.1" x="0px" y="0px" viewBox="0 0 150 187.5" style="enable-background:new 0 0 150 150;" xml:space="preserve"><style type="text/css">
	.st0{fill:none;}
	.st1{fill:none;stroke:#000000;stroke-width:2;stroke-linecap:round;stroke-linejoin:round;stroke-miterlimit:10;}
</style><g><g><path d="M106.806427,102.0269928c0.6513672-0.8740234,1.2626953-1.765625,1.8242188-2.6630859    c7.1241684,0.9462967,8.4361115,2.0346146,8.9707031,0.7363281c1.9510803-5.351738,3.3321915-6.5029755,2.1884766-7.3144531    l-6.4082031-4.546875c0.2792969-1.0947266,0.5107422-2.1914063,0.6923828-3.2753906    c6.8243561-1.8247375,8.4257813-1.3137741,8.4257813-2.7197266c-0.2474976-5.7532883,0.5812225-7.2856979-0.7773438-7.5947266    l-7.5058594-1.7128906c-0.1621094-1.1660156-0.3730469-2.3144531-0.6298828-3.4267578    c5.479454-4.2054367,7.1412735-4.341217,6.6044922-5.6376953c-2.4263077-5.1965599-2.2283783-6.9283981-3.6240234-6.71875    l-7.4208984,1.2607422c-0.6240234-1.0605469-1.2851563-2.078125-1.9736328-3.0351563    c3.2978439-5.724678,4.8585587-6.5926132,3.8554688-7.5957031c-4.2160797-3.8673477-4.7319717-5.5652275-5.9199219-4.8212891    l-6.2539063,3.9316406c-1-0.7539063-2.0322266-1.4599609-3.0820313-2.1064453    c0.8332138-6.4058304,1.9440384-7.8185959,0.6337891-8.3623047c-5.3979721-1.968956-6.5077515-3.3242683-7.3144531-2.1884766    l-4.2119141,5.9365234c-1.2753906-0.3251953-2.5791016-0.5869141-3.8935547-0.7841797    c-1.6527405-6.1116486-1.1714478-7.8291035-2.5839844-7.8291035h-6.6201172c-1.4135056,0-0.9318542,1.7205257-2.5830078,7.8291035    c-1.2783203,0.1914063-2.5439453,0.4443359-3.7773438,0.7539063c-3.8223-4.9545555-4.0677605-6.7682991-5.3671875-6.2207031    c-5.2204971,2.4306297-6.9530334,2.2514-6.7197266,3.625l1.2177734,7.1572266    c-1.0859375,0.6621094-2.1445313,1.3798828-3.1601563,2.1435547l-6.1455078-3.8623047    c-1.1814194-0.7438583-1.6831627,0.932785-5.9199219,4.8212891c-0.3300781,0.3300781-0.3876953,0.84375-0.1396484,1.2392578    l3.9091797,6.2207031c-0.7207031,0.9951172-1.40625,2.0449219-2.046875,3.1318359    c-6.4393768-0.8361053-7.8091316-1.9300385-8.3457031-0.6298828c-1.9721775,5.4103661-3.3247852,6.510582-2.1874981,7.3154297    l6.1025372,4.328125c-0.2685547,1.1513672-0.4882813,2.3457031-0.6572266,3.5664063l-7.319334,1.6708984    c-1.3675823,0.3110809-0.5324154,1.9012451-0.7773438,7.5947266c0,1.4073257,1.6261177,0.9029083,8.2402325,2.6767578    c0.1875,1.1318359,0.4296875,2.2753906,0.7236328,3.4140625l-6.256834,4.4384766    c-1.1415844,0.809967,0.2309761,1.9450989,2.1884747,7.3144531c0.536129,1.2990799,1.8440323,0.2105179,8.8037109-0.7089844    c0.5820313,0.9287109,1.21875,1.8535156,1.9003906,2.7607422c-3.5294037,6.1047897-5.030098,6.8829803-4.0341797,7.8789063    c4.1996078,3.8493881,4.7296982,5.5651779,5.9208984,4.8203125l6.7460938-4.2402344    c0.8574219,0.6123047,1.7646484,1.2050781,2.7099609,1.7705078c-0.9463425,7.1333008-2.0355835,8.4127579-0.7333984,8.953125    l6.1171875,2.5332031c0.4296875,0.1796875,0.9296875,0.0371094,1.1982422-0.3457031l4.6640625-6.5742188    c0.9570313,0.2216797,1.9433594,0.4121094,2.9482422,0.5664063l1.8056641,7.9140625    c0.1035156,0.4550781,0.5078125,0.7773438,0.9746094,0.7773438h6.6201172c0.4667969,0,0.8710938-0.3222656,0.9746094-0.7773438    l1.8066406-7.9140625c1.0546875-0.1621094,2.0820313-0.3603516,3.0683594-0.5917969l4.7041016,6.6308594    c0.2705078,0.3798828,0.7695313,0.5234375,1.1982422,0.3447266l6.1162109-2.5332031    c0.4306641-0.1787109,0.6816406-0.6318359,0.6035156-1.0917969l-1.3554688-7.9746094    c0.9208984-0.5556641,1.8027344-1.1347656,2.6328125-1.7304688l6.8525391,4.3066406    c1.1881943,0.7470322,1.7205582-0.9683151,5.9208984-4.8212891    C111.9195938,109.0456543,110.4342575,108.2934647,106.806427,102.0269928z M105.3923645,112.7437897    c-9.5454483-5.6208496-5.4628448-5.3320541-11.4775391-1.8330078c-1.0760269,0.622345-0.1728668,1.5570068,0.8535156,8.8984375    l-4.6425781,1.9228516l-4.6367188-6.5351563c-0.6148453-0.8658066-0.9560013-0.1668396-5.2636719,0.421875    c-1.2388229,0.1702652-0.7775116,1.4655991-2.6210938,8.5742188h-5.0244141l-1.78125-7.8056641    c-0.2378845-1.0502548-0.9531403-0.552124-4.9238281-1.5537109c-1.1997681-0.3064499-1.2979279,1.0818787-5.6552734,6.8681641    l-4.6435547-1.9228516c1.5255241-10.9503784,2.8332939-6.9715958-2.8408203-11.1904297    c-0.9968147-0.7388153-1.6636047,0.5372925-7.7734375,4.1318359l-3.5527344-3.5527344    c5.5370178-9.4428482,5.2396202-5.204689,1.5097656-11.4033203c-0.6222-1.0322266-1.4308548-0.1814346-8.6152344,0.8212891    l-1.9228516-4.6425781c8.610054-6.5262451,6.6733055-2.6729965,5.5976563-9.9921875    c-0.1777611-1.2181015-1.4662743-0.7744217-8.1132793-2.5048828V76.421524l7.2216778-1.6484375    c1.1331024-0.2583847,0.4962807-1.0509109,1.6337891-5.5390625c0.2945175-1.1723404-0.9145355-1.1690979-6.3964844-5.3203125    l1.9228516-4.6435547l7.1523438,1.2167969c1.1433182,0.1834602,0.8694077-0.8045769,3.7060547-4.5742188    c0.7385674-0.9780273-0.4364929-1.5048981-3.7998047-7.2558594l3.5527344-3.5537109l6.0576172,3.8066406    c0.9788284,0.6147995,1.0716324-0.3932266,5.2431641-2.8359375c1.0536613-0.6201401,0.1763191-1.5404739-0.71875-8.0761719    l4.6425781-1.9228516l4.1074219,5.7880859c0.6626053,0.9351234,1.125946,0.0506821,5.9609375-0.5888672    c1.2173615-0.1607857,0.7589951-1.366188,2.4287109-7.7148438h5.0244141    c2.6661377,10.1323471-0.2668686,6.6110611,7.4257813,8.7216797c1.2013855,0.3118973,1.1979752-0.9351006,5.2314453-6.2363281    l4.6425781,1.9228516c-0.9242935,6.7194519-1.7838211,7.5660172-0.7402344,8.1835938    c4.1062775,2.4288177,4.1841812,3.421051,5.1650391,2.8056641l6.1679688-3.8769531l3.5527344,3.5537109    c-5.3576889,9.1446495-5.0032883,4.818222-1.2919922,11.375c0.2080078,0.3671875,0.625,0.5615234,1.0371094,0.4941406    l7.3203125-1.2441406l1.9228516,4.6416016c-8.5681686,6.4773941-6.6060104,2.66996-5.7148438,9.9775391    c0.1524582,1.2548447,1.5053024,0.7985077,8.1767578,2.5439453v5.0244141l-7.53125,1.71875    c-1.0654526,0.2436829-0.5163269,0.913147-1.6953125,5.2255859c-0.3226852,1.1850815,0.9832764,1.232933,6.7080078,5.5654297    l-1.9228516,4.6425781c-7.3113861-1.0253296-8.1640701-1.8831024-8.7841797-0.8486328    c-2.1996384,3.6660614-3.1180496,3.8159256-2.5292969,4.7558594l4.2011719,6.6845703L105.3923645,112.7437897z"/></g><g><path d="M75.1824036,48.2935944c-16.8632813,0-30.5830078,13.7197266-30.5830078,30.5830078    s13.7197266,30.5820313,30.5830078,30.5820313s30.5820313-13.71875,30.5820313-30.5820313    S92.0456848,48.2935944,75.1824036,48.2935944z M75.1824036,107.4586334    c-15.7607422,0-28.5830078-12.8222656-28.5830078-28.5820313c0-15.7607422,12.8222656-28.5830078,28.5830078-28.5830078    c15.7597656,0,28.5820313,12.8222656,28.5820313,28.5830078    C103.7644348,94.6363678,90.9421692,107.4586334,75.1824036,107.4586334z"/></g><g><path d="M72.2134705,18.388319c-3.1906967,3.6037712-5.7207336,4.6911907-4.4988403,5.9130859    c0.1953125,0.1953125,0.4511719,0.2929688,0.7070313,0.2929688s0.5117188-0.0976563,0.7070313-0.2929688    c0.1011429-0.1011524,6.7009201-6.7017403,6.2836914-6.284668c0.1846771-0.1851654,0.2917709-0.4397106,0.2910156-0.7075195    c-0.0866394-0.2609959,0.1308823-0.0413609-0.2924805-0.7041016l-0.0009766-0.0009766    c-0.0007324-0.0009766-0.0015869-0.0014648-0.0024414-0.0024414c-5.4768753-5.0022497-6.4378128-7.533865-7.6928711-6.2788086    c-0.390625,0.390625-0.390625,1.0234375,0,1.4140625l4.6467896,4.6469727    c-28.6913452,1.3642578-54.9096069,24.4780293-59.0588989,52.5610352c-0.0810547,0.546875,0.296875,1.0546875,0.8427734,1.1357422    c0.524622,0.0822906,1.0528479-0.2813034,1.1357422-0.8427734C19.284029,42.1412506,44.5311584,19.8228893,72.2134705,18.388319z"/></g><g><path d="M108.4529114,128.5543365c-22.7358398,15.2753906-56.2341919,11.6206055-75.9259033-7.887207    c4.751091-0.0644913,7.3178635,1.0776443,7.4005127-0.6518555c0.0263672-0.5517578-0.4003906-1.0195313-0.9521484-1.0458984    c-0.1042137-0.0049057-9.4770699-0.446167-8.8790874-0.4179688c-0.1029205,0.0169983-0.4022732-0.0260849-0.7146606,0.2587891    c-0.1786652,0.2494431-0.2381611,0.2132797-0.2980347,0.5791016c-0.0554371,0.3305283-0.2616997,5.2227631-0.4470825,8.9882813    c-0.0270748,0.5665436,0.4246731,1.046875,1,1.046875c1.6558151,0,0.7715759-2.3343506,1.3088379-7.5317383    c20.2504368,20.2408447,54.9616013,24.2182922,78.6228027,8.3217773    C110.6675644,129.4760742,109.5484543,127.8154221,108.4529114,128.5543365z"/></g><g><path d="M117.1802063,123.6827545c20.9311523-19.6713867,25.8562012-54.2744141,10.7727051-78.3237305    c-0.2929688-0.46875-0.9111328-0.6132813-1.3779297-0.3154297c-0.4677734,0.2929688-0.609375,0.9101563-0.3164063,1.3779297    c14.5537109,23.203125,9.8500977,56.5708008-10.2680664,75.6396484c0.0856018-4.8050461,1.3073273-7.2792206-0.4194336-7.4169922    c-0.5371094-0.0380859-1.0322266,0.3671875-1.0751953,0.9189453c-0.7601242,9.5673447-0.7785263,8.9744034-0.5771484,9.3759766    c0.1250992,0.2484894,0.2212448,0.3897781,0.5981445,0.4990234c0.4066238,0.1216888-0.9139328-0.0600433,9.0581055,0.7539063    c0.5640335,0.0417786,1.0329819-0.3792191,1.0751953-0.9189453    C124.6931458,124.7232819,122.1755829,124.3746033,117.1802063,123.6827545z"/></g><g><path d="M66.2917786,66.2584381c-0.390625-0.390625-1.0234375-0.390625-1.4140625,0L52.9665833,78.1695709    c-1.3201523,1.3201523,1.151947,2.0125427,11.9111328,13.3251953c0.1953125,0.1953125,0.4511719,0.2929688,0.7070313,0.2929688    s0.5117188-0.0976563,0.7070313-0.2929688c0.390625-0.390625,0.390625-1.0234375,0-1.4140625L55.087677,78.8766022    l11.2041016-11.2041016C66.6824036,67.2818756,66.6824036,66.6490631,66.2917786,66.2584381z"/></g><g><path d="M97.3982239,78.1695709L85.4870911,66.2584381c-0.390625-0.390625-1.0234375-0.390625-1.4140625,0    s-0.390625,1.0234375,0,1.4140625l11.2041016,11.2041016L84.0730286,90.0807037    c-0.390625,0.390625-0.390625,1.0234375,0,1.4140625c0.1953125,0.1953125,0.4511719,0.2929688,0.7070313,0.2929688    s0.5117188-0.0976563,0.7070313-0.2929688l11.9111328-11.9111328    C97.7888489,79.1930084,97.7888489,78.5601959,97.3982239,78.1695709z"/></g><g><path d="M78.3816223,64.1344147c-0.5371094-0.1210938-1.0722656,0.2255859-1.1894531,0.765625l-5.9746094,27.5292969    c-0.1171875,0.5390625,0.2255859,1.0722656,0.765625,1.1894531c0.0712891,0.015625,0.1425781,0.0224609,0.2128906,0.0224609    c0.4599609,0,0.875-0.3193359,0.9765625-0.7880859l5.9746094-27.5292969    C79.2644348,64.7848053,78.9216614,64.2516022,78.3816223,64.1344147z"/></g></g><text x="0" y="165" fill="#000000" font-size="5px" font-weight="bold" font-family="'Helvetica Neue', Helvetica, Arial-Unicode, Arial, Sans-serif">Created by Dinosoft Labs</text><text x="0" y="170" fill="#000000" font-size="5px" font-weight="bold" font-family="'Helvetica Neue', Helvetica, Arial-Unicode, Arial, Sans-serif">from the Noun Project</text></svg>