<svg xmlns="http://www.w3.org/2000/svg" xmlns:xlink="http://www.w3.org/1999/xlink" version="1.1" x="0px" y="0px" viewBox="0 0 150 187.5" style="enable-background:new 0 0 150 150;" xml:space="preserve"><style type="text/css">
	.st0{fill:none;}
	.st1{fill:none;stroke:#000000;stroke-width:2;stroke-linecap:round;stroke-linejoin:round;stroke-miterlimit:10;}
</style><g><g><path d="M48.7363281,85.5795898c-2.2714844,0-4.1201172,1.8569336-4.1201172,4.1391602    c0,2.2768555,1.8486328,4.1289063,4.1201172,4.1289063c2.2773438,0,4.1298828-1.8520508,4.1298828-4.1289063    C52.8662109,87.4365234,51.0136719,85.5795898,48.7363281,85.5795898z M48.7363281,91.8476563    c-1.1689453,0-2.1201172-0.9550781-2.1201172-2.1289063c0-1.1796875,0.9511719-2.1391602,2.1201172-2.1391602    c1.1748047,0,2.1298828,0.9594727,2.1298828,2.1391602C50.8662109,90.8925781,49.9111328,91.8476563,48.7363281,91.8476563z"/></g><g><path d="M56.8662109,89.71875c0,2.2768555,1.8486328,4.1289063,4.1201172,4.1289063    c2.2773438,0,4.1298828-1.8520508,4.1298828-4.1289063c0-2.2822266-1.8525391-4.1391602-4.1298828-4.1391602    C58.7148438,85.5795898,56.8662109,87.4365234,56.8662109,89.71875z M63.1162109,89.71875    c0,1.1738281-0.9550781,2.1289063-2.1298828,2.1289063c-1.1689453,0-2.1201172-0.9550781-2.1201172-2.1289063    c0-1.1796875,0.9511719-2.1391602,2.1201172-2.1391602C62.1611328,87.5795898,63.1162109,88.5390625,63.1162109,89.71875z"/></g><g><path d="M41.0400391,88.7138672h-25.25c-0.5527344,0-1,0.4477539-1,1s0.4472656,1,1,1h25.25c0.5527344,0,1-0.4477539,1-1    S41.5927734,88.7138672,41.0400391,88.7138672z"/></g><g><path d="M68.90625,56.526371H11c-0.5527344,0-1,0.4477539-1,1v17.739254c0,0.5522461,0.4472656,1,1,1h7.453125v3.5786133H11    c-0.5527344,0-1,0.4477539-1,1v17.7392578c0,0.5522461,0.4472656,1,1,1h7.453125v3.578125H11c-0.5527344,0-1,0.4477539-1,1    v17.7392578c0,0.5522461,0.4472656,1,1,1h27.9482422v8.8623047c-1.5001221,0.3720703-2.6762085,1.5512695-3.046936,3.0546875    H24.1181641c-0.5527344,0-1,0.4477539-1,1s0.4472656,1,1,1h11.7832031    c0.4504395,1.8256836,2.0869751,3.1889648,4.046875,3.1889648c1.9640503,0,3.6040039-1.3632813,4.0553589-3.1889648h11.7844849    c0.5527344,0,1-0.4477539,1-1s-0.4472656-1-1-1H44.0036621c-0.3717041-1.5041504-1.5510254-2.6835938-3.0554199-3.0554199    v-8.8615723H68.90625c0.5527344,0,1-0.4477539,1-1v-17.7392578c0-0.5522461-0.4472656-1-1-1h-7.453125v-3.578125h7.453125    c0.5527344,0,1-0.4477539,1-1V80.8442383c0-0.5522461-0.4472656-1-1-1h-7.453125V76.265625h7.453125c0.5527344,0,1-0.4477539,1-1    V57.526371C69.90625,56.9741249,69.4589844,56.526371,68.90625,56.526371z M42.1376953,135.8178711    c0,1.2070313-0.9824219,2.1889648-2.1894531,2.1889648c-1.2021484,0-2.1806641-0.9819336-2.1806641-2.1889648    s0.9785156-2.1894531,2.1806641-2.1894531C41.1552734,133.628418,42.1376953,134.6108398,42.1376953,135.8178711z     M67.90625,120.9008789H39.9675903c-0.0068359,0-0.0125122-0.0039063-0.0193481-0.0039063    s-0.0125122,0.0039063-0.0193481,0.0039063H12v-15.7392578h55.90625V120.9008789z M59.453125,103.1616211h-39v-3.578125h39    V103.1616211z M67.90625,97.5834961H12V81.8442383h7.4337769c0.0068359,0,0.0125122,0.0039063,0.0193481,0.0039063    s0.0125122-0.0039063,0.0193481-0.0039063h40.9613037c0.0068359,0,0.0125122,0.0039063,0.0193481,0.0039063    s0.0125122-0.0039063,0.0193481-0.0039063H67.90625V97.5834961z M59.453125,79.8442383h-39V76.265625h39V79.8442383z     M67.90625,74.265625H12V58.526371h55.90625V74.265625z"/></g><g><path d="M48.7363281,70.5297852c2.2773438,0,4.1298828-1.8520508,4.1298828-4.1289063    c0-2.2822266-1.8525391-4.1391563-4.1298828-4.1391563c-2.2714844,0-4.1201172,1.8569298-4.1201172,4.1391563    C44.6162109,68.6777344,46.4648438,70.5297852,48.7363281,70.5297852z M48.7363281,64.2617188    c1.1748047,0,2.1298828,0.9594727,2.1298828,2.1391602c0,1.1738281-0.9550781,2.1289063-2.1298828,2.1289063    c-1.1689453,0-2.1201172-0.9550781-2.1201172-2.1289063C46.6162109,65.2211914,47.5673828,64.2617188,48.7363281,64.2617188z"/></g><g><path d="M60.9863281,70.5297852c2.2773438,0,4.1298828-1.8520508,4.1298828-4.1289063    c0-2.2822266-1.8525391-4.1391563-4.1298828-4.1391563c-2.2714844,0-4.1201172,1.8569298-4.1201172,4.1391563    C56.8662109,68.6777344,58.7148438,70.5297852,60.9863281,70.5297852z M60.9863281,64.2617188    c1.1748047,0,2.1298828,0.9594727,2.1298828,2.1391602c0,1.1738281-0.9550781,2.1289063-2.1298828,2.1289063    c-1.1689453,0-2.1201172-0.9550781-2.1201172-2.1289063C58.8662109,65.2211914,59.8173828,64.2617188,60.9863281,64.2617188z"/></g><g><path d="M15.7900391,67.3959961h25.25c0.5527344,0,1-0.4477539,1-1s-0.4472656-1-1-1h-25.25c-0.5527344,0-1,0.4477539-1,1    S15.2373047,67.3959961,15.7900391,67.3959961z"/></g><g><path d="M118.8251953,62.2617226c-2.2714844,0-4.1201172,1.8569298-4.1201172,4.1391563    c0,2.2768555,1.8486328,4.1289063,4.1201172,4.1289063c2.2773438,0,4.1298828-1.8520508,4.1298828-4.1289063    C122.9550781,64.1186523,121.1025391,62.2617226,118.8251953,62.2617226z M118.8251953,68.5297852    c-1.1689453,0-2.1201172-0.9550781-2.1201172-2.1289063c0-1.1796875,0.9511719-2.1391602,2.1201172-2.1391602    c1.1748047,0,2.1298828,0.9594727,2.1298828,2.1391602C120.9550781,67.574707,120,68.5297852,118.8251953,68.5297852z"/></g><g><path d="M131.0751953,62.2617226c-2.2714844,0-4.1201172,1.8569298-4.1201172,4.1391563    c0,2.2768555,1.8486328,4.1289063,4.1201172,4.1289063c2.2773438,0,4.1298828-1.8520508,4.1298828-4.1289063    C135.2050781,64.1186523,133.3525391,62.2617226,131.0751953,62.2617226z M131.0751953,68.5297852    c-1.1689453,0-2.1201172-0.9550781-2.1201172-2.1289063c0-1.1796875,0.9511719-2.1391602,2.1201172-2.1391602    c1.1748047,0,2.1298828,0.9594727,2.1298828,2.1391602C133.2050781,67.574707,132.25,68.5297852,131.0751953,68.5297852z"/></g><g><path d="M111.1289063,65.3959961h-25.25c-0.5527344,0-1,0.4477539-1,1s0.4472656,1,1,1h25.25c0.5527344,0,1-0.4477539,1-1    S111.6816406,65.3959961,111.1289063,65.3959961z"/></g><g><path d="M118.8300781,93.8476563c2.2773438,0,4.1298828-1.8520508,4.1298828-4.1289063    c0-2.2822266-1.8525391-4.1391602-4.1298828-4.1391602c-2.2714844,0-4.1201172,1.8569336-4.1201172,4.1391602    C114.7099609,91.9956055,116.5585938,93.8476563,118.8300781,93.8476563z M118.8300781,87.5795898    c1.1748047,0,2.1298828,0.9594727,2.1298828,2.1391602c0,1.1738281-0.9550781,2.1289063-2.1298828,2.1289063    c-1.1689453,0-2.1201172-0.9550781-2.1201172-2.1289063C116.7099609,88.5390625,117.6611328,87.5795898,118.8300781,87.5795898z"/></g><g><path d="M131.0800781,93.8476563c2.2773438,0,4.1298828-1.8520508,4.1298828-4.1289063    c0-2.2822266-1.8525391-4.1391602-4.1298828-4.1391602c-2.2714844,0-4.1201172,1.8569336-4.1201172,4.1391602    C126.9599609,91.9956055,128.8085938,93.8476563,131.0800781,93.8476563z M131.0800781,87.5795898    c1.1748047,0,2.1298828,0.9594727,2.1298828,2.1391602c0,1.1738281-0.9550781,2.1289063-2.1298828,2.1289063    c-1.1689453,0-2.1201172-0.9550781-2.1201172-2.1289063C128.9599609,88.5390625,129.9111328,87.5795898,131.0800781,87.5795898z"/></g><g><path d="M112.1337891,89.7138672c0-0.5522461-0.4472656-1-1-1h-25.25c-0.5527344,0-1,0.4477539-1,1s0.4472656,1,1,1h25.25    C111.6865234,90.7138672,112.1337891,90.2661133,112.1337891,89.7138672z"/></g><g><path d="M139,99.5834961c0.5527344,0,1-0.4477539,1-1V80.8442383c0-0.5522461-0.4472656-1-1-1h-7.4580078V76.265625h7.453125    c0.5527344,0,1-0.4477539,1-1V57.526371c0-0.5522461-0.4472656-1-1-1h-57.90625c-0.5527344,0-1,0.4477539-1,1v17.739254    c0,0.5522461,0.4472656,1,1,1h7.453125v3.5786133H81.09375c-0.5527344,0-1,0.4477539-1,1v17.7392578c0,0.5522461,0.4472656,1,1,1    h7.453125v3.578125H81.09375c-0.5527344,0-1,0.4477539-1,1v17.7392578c0,0.5522461,0.4472656,1,1,1h27.9482422v8.8623047    c-1.4995117,0.3725586-2.6752319,1.5512695-3.0459595,3.0546875H94.2119141c-0.5527344,0-1,0.4477539-1,1s0.4472656,1,1,1    h11.7841797c0.4503784,1.8256836,2.086853,3.1889648,4.0458984,3.1889648c1.9640503,0,3.6047363-1.3632813,4.0563354-3.1889648    h11.7835083c0.5527344,0,1-0.4477539,1-1s-0.4472656-1-1-1h-11.7834473    c-0.3718872-1.5041504-1.5518188-2.6838379-3.0563965-3.0554199v-8.8615723H139c0.5527344,0,1-0.4477539,1-1v-17.7392578    c0-0.5522461-0.4472656-1-1-1h-7.453125v-3.578125H139z M112.2324219,135.8178711    c0,1.2070313-0.9824219,2.1889648-2.1904297,2.1889648c-1.2021484,0-2.1796875-0.9819336-2.1796875-2.1889648    s0.9775391-2.1894531,2.1796875-2.1894531C111.25,133.628418,112.2324219,134.6108398,112.2324219,135.8178711z     M82.0888672,58.526371h55.90625v15.739254h-55.90625V58.526371z M90.5419922,76.265625h39v3.5786133h-39V76.265625z     M82.09375,81.8442383h7.428894c0.0068359,0,0.0125122,0.0039063,0.0193481,0.0039063s0.0125122-0.0039063,0.0193481-0.0039063    h40.9613037c0.0068359,0,0.0125122,0.0039063,0.0193481,0.0039063s0.0125122-0.0039063,0.0193481-0.0039063H138v15.7392578    H82.09375V81.8442383z M138,120.9008789h-27.9386597c-0.0068359,0-0.0125122-0.0039063-0.0193481-0.0039063    s-0.0125122,0.0039063-0.0193481,0.0039063H82.09375v-15.7392578H138V120.9008789z M129.546875,103.1616211h-39v-3.578125h39    V103.1616211z"/></g><g><path d="M48.7363281,108.8974609c-2.2714844,0-4.1201172,1.8564453-4.1201172,4.1386719    c0,2.2768555,1.8486328,4.1293945,4.1201172,4.1293945c2.2773438,0,4.1298828-1.8525391,4.1298828-4.1293945    C52.8662109,110.7539063,51.0136719,108.8974609,48.7363281,108.8974609z M48.7363281,115.1655273    c-1.1689453,0-2.1201172-0.9550781-2.1201172-2.1293945c0-1.1791992,0.9511719-2.1386719,2.1201172-2.1386719    c1.1748047,0,2.1298828,0.9594727,2.1298828,2.1386719C50.8662109,114.2104492,49.9111328,115.1655273,48.7363281,115.1655273z"/></g><g><path d="M56.8662109,113.0361328c0,2.2768555,1.8486328,4.1293945,4.1201172,4.1293945    c2.2773438,0,4.1298828-1.8525391,4.1298828-4.1293945c0-2.2822266-1.8525391-4.1386719-4.1298828-4.1386719    C58.7148438,108.8974609,56.8662109,110.7539063,56.8662109,113.0361328z M60.9863281,110.8974609    c1.1748047,0,2.1298828,0.9594727,2.1298828,2.1386719c0,1.1743164-0.9550781,2.1293945-2.1298828,2.1293945    c-1.1689453,0-2.1201172-0.9550781-2.1201172-2.1293945C58.8662109,111.8569336,59.8173828,110.8974609,60.9863281,110.8974609z"/></g><g><path d="M41.0400391,112.03125h-25.25c-0.5527344,0-1,0.4477539-1,1s0.4472656,1,1,1h25.25c0.5527344,0,1-0.4477539,1-1    S41.5927734,112.03125,41.0400391,112.03125z"/></g><g><path d="M118.8300781,108.8974609c-2.2714844,0-4.1201172,1.8564453-4.1201172,4.1386719    c0,2.2768555,1.8486328,4.1293945,4.1201172,4.1293945c2.2773438,0,4.1298828-1.8525391,4.1298828-4.1293945    C122.9599609,110.7539063,121.1074219,108.8974609,118.8300781,108.8974609z M118.8300781,115.1655273    c-1.1689453,0-2.1201172-0.9550781-2.1201172-2.1293945c0-1.1791992,0.9511719-2.1386719,2.1201172-2.1386719    c1.1748047,0,2.1298828,0.9594727,2.1298828,2.1386719C120.9599609,114.2104492,120.0048828,115.1655273,118.8300781,115.1655273z    "/></g><g><path d="M126.9599609,113.0361328c0,2.2768555,1.8486328,4.1293945,4.1201172,4.1293945    c2.2773438,0,4.1298828-1.8525391,4.1298828-4.1293945c0-2.2822266-1.8525391-4.1386719-4.1298828-4.1386719    C128.8085938,108.8974609,126.9599609,110.7539063,126.9599609,113.0361328z M131.0800781,110.8974609    c1.1748047,0,2.1298828,0.9594727,2.1298828,2.1386719c0,1.1743164-0.9550781,2.1293945-2.1298828,2.1293945    c-1.1689453,0-2.1201172-0.9550781-2.1201172-2.1293945C128.9599609,111.8569336,129.9111328,110.8974609,131.0800781,110.8974609    z"/></g><g><path d="M111.1337891,112.03125h-25.25c-0.5527344,0-1,0.4477539-1,1s0.4472656,1,1,1h25.25c0.5527344,0,1-0.4477539,1-1    S111.6865234,112.03125,111.1337891,112.03125z"/></g><g><path d="M106.96875,50.2148476c0.1533203,0.3959961,0.53125,0.6381836,0.9316406,0.6381836    c0.1210938,0,0.2431641-0.0219727,0.3623047-0.0683594c0.5146484-0.2001953,0.7695313-0.7797852,0.5693359-1.2944336    C103.125,34.8139687,89.2919922,25.3310585,73.5908203,25.3310585c-14.831604,0-27.986084,8.4680176-34.2089844,21.7756348    l-2.9023438-8.135498c-0.1845703-0.5200195-0.7548828-0.7924805-1.2773438-0.605957    c-0.5205078,0.1855469-0.7910156,0.7578125-0.6054688,1.277832l3.7255859,10.4453125    c0.0025635,0.0073242,0.0088501,0.012207,0.0115967,0.0195313c0.0800171,0.2963867,0.2779541,0.5568848,0.5860596,0.6767578    c0.3814697,0.1477051,0.8012085,0.0439453,1.0734863-0.2314453l10.0231934-3.5961914    c0.5195313-0.1865234,0.7900391-0.7592773,0.6035156-1.2792969s-0.7626953-0.7905273-1.2792969-0.6035156l-8.1712646,2.9318848    c5.8856812-12.6328125,18.3577881-20.6750488,32.4212646-20.6750488    C88.4609375,27.3310585,101.5624771,36.3134804,106.96875,50.2148476z"/></g><g><path d="M22.4179688,50.8183632c0.5332031,0.1430664,1.0820313-0.1733398,1.2246094-0.7070313    c4.2783203-15.9770508,16.0253906-28.9858398,31.4248047-34.7983398    c12.7832031-4.824707,26.6787109-4.3759766,39.1240234,1.2631836    c12.4863281,5.6577148,22.0214844,15.855957,26.8476563,28.7167969c0.3335571,0.8896484,0.6405029,1.809082,0.9313965,2.7412109    l-8.0778809-3.6708984c-0.5078125-0.2280273-1.0966797-0.0053711-1.3242188,0.4970703    c-0.2285156,0.5029297-0.0058823,1.0957031,0.4960938,1.3242188l10.0761719,4.5786133    c0.0084229,0.0039063,0.0179443,0.0021973,0.0264893,0.0058594c0.1195679,0.0495605,0.2455444,0.0839844,0.3787842,0.0839844    c0.0022583,0,0.0045776-0.0009766,0.0068359-0.0009766c0.0006714,0,0.0012817,0.0004883,0.0019531,0.0004883    c0.0048218,0,0.0094604-0.0024414,0.0142822-0.0024414c0.0786133-0.0019531,0.1583862-0.0102539,0.2366943-0.0317383    c0.0135498-0.0036621,0.0228271-0.0136719,0.0360718-0.0178223c0.0215454-0.0065918,0.0442505-0.0041504,0.0654907-0.0119629    c0.0608521-0.0229492,0.1080322-0.067627,0.1625977-0.1013184c0.0385132-0.0241699,0.0795898-0.0422363,0.1140137-0.0710449    c0.067749-0.0559082,0.1191406-0.1240234,0.1702881-0.1958008c0.0231323-0.032959,0.0499878-0.0610352,0.0689697-0.0964355    c0.0118408-0.0217285,0.0324097-0.0371094,0.0427246-0.0598145l4.5644531-10.1049805    c0.2275391-0.503418,0.0039063-1.0957031-0.4990234-1.3227539c-0.5039063-0.2290039-1.0957031-0.0039063-1.3232422,0.4995117    l-3.4609985,7.6611328c-0.2623901-0.8171387-0.5406494-1.6218262-0.8348999-2.4067383    c-5.0146484-13.3618164-14.921875-23.9575195-27.8955078-29.8359375c-12.9345703-5.8608398-27.3730469-6.3256836-40.65625-1.3125    c-16,6.0395508-28.2050781,19.5541992-32.6494141,36.1518555C21.5683594,50.1274452,21.8847656,50.6757851,22.4179688,50.8183632z    "/></g></g><text x="0" y="165" fill="#000000" font-size="5px" font-weight="bold" font-family="'Helvetica Neue', Helvetica, Arial-Unicode, Arial, Sans-serif">Created by Dinosoft Labs</text><text x="0" y="170" fill="#000000" font-size="5px" font-weight="bold" font-family="'Helvetica Neue', Helvetica, Arial-Unicode, Arial, Sans-serif">from the Noun Project</text></svg>