<svg xmlns="http://www.w3.org/2000/svg" xmlns:xlink="http://www.w3.org/1999/xlink" version="1.1" x="0px" y="0px" viewBox="0 0 150 187.5" style="enable-background:new 0 0 150 150;" xml:space="preserve"><style type="text/css">
	.st0{fill:none;}
	.st1{fill:none;stroke:#000000;stroke-width:2;stroke-linecap:round;stroke-linejoin:round;stroke-miterlimit:10;}
</style><g><g><path d="M123.0097656,107.9272461V28.6870117c0-0.5522461-0.4477539-1-1-1H26.2998047c-0.5522461,0-1,0.4477539-1,1v79.2402344    c0,0.5522461,0.4477539,1,1,1h95.7099609C122.5620117,108.9272461,123.0097656,108.4794922,123.0097656,107.9272461z     M121.0097656,106.9272461H27.2998047V29.6870117h93.7099609V106.9272461z"/></g><g><path d="M139,113.9272461h-8.9897461V26.4077148c0-3.1542969-2.5615234-5.7202148-5.7104492-5.7202148H24.0102539    c-3.1489258,0-5.7104492,2.565918-5.7104492,5.7202148v87.5195313H11c-0.5522461,0-1,0.4477539-1,1    C10,122.590332,16.2104492,129.3125,23.2900391,129.3125h103.4301758C133.7944336,129.3125,140,122.590332,140,114.9272461    C140,114.375,139.5522461,113.9272461,139,113.9272461z M20.2998047,26.4077148    c0-2.0512695,1.6645508-3.7202148,3.7104492-3.7202148h100.2895508c2.0458984,0,3.7104492,1.6689453,3.7104492,3.7202148    v87.5195313c-53.9028397,0.5428467-42.9670334-1.7022934-44.4604492,3.1303711    c0,1.6650391-1.3549805,3.0200195-3.0200195,3.0200195H69.4799805c-1.6650391,0-3.0200195-1.3549805-3.0200195-3.0200195    c-0.1417389-0.9909286,0.5073929-3.1303711-1-3.1303711H20.2998047V26.4077148z M126.7202148,127.3125H23.2900391    c-5.6035156,0-10.7324219-5.3085938-11.2475586-11.3852539h7.2573242h45.1601563v1.1303711    c0,2.7680664,2.2519531,5.0200195,5.0200195,5.0200195h11.0498047c2.7680664,0,5.0200195-2.2519531,5.0200195-5.0200195    v-1.1303711h43.4604492h8.9472656C137.4428711,122.0039063,132.3183594,127.3125,126.7202148,127.3125z"/></g><g><path d="M73.3769531,102.190918c0.0144653,0.0179443,0.0374756,0.0250854,0.0530396,0.0418701    c0.0707397,0.076355,0.1503906,0.1394043,0.2410278,0.1904297c0.0324707,0.0183105,0.0618286,0.0369263,0.0961914,0.0514526    c0.1212158,0.0516357,0.2495728,0.0878296,0.3875732,0.0878296s0.2664185-0.0361938,0.3876343-0.0878296    c0.0343018-0.0145264,0.0636597-0.0330811,0.0961304-0.0513916c0.0906982-0.0510254,0.1703491-0.1140747,0.2411499-0.1905518    c0.015564-0.0167847,0.0384521-0.0238647,0.0529175-0.0418091c34.7349625-43.0302963,32.617981-40.2817192,32.6841431-40.6894531    c0.0323105-0.1984215-0.0100784-0.4452095-0.0796509-0.590332c-0.0109863-0.0230713-0.0289917-0.0405273-0.0415649-0.062439    c-0.0145264-0.0253906-0.022583-0.0534058-0.0394897-0.0776978c-8.9371262-12.8470039-8.3111267-12.0879936-8.711731-12.2565918    c-0.1208038-0.0509453-0.2952499-0.0847168-0.3864136-0.0847168H80.3007813H68.0092773    c-18.9788933,0.0037155-18.4300499-0.2156258-18.878418,0.4291992    c-1.9935989,2.8731499-8.1961327,11.7797813-8.3162231,11.9896851c-0.0126343,0.0219727-0.0306396,0.0394897-0.041687,0.062561    c-0.0078125,0.0164185-0.0090942,0.0343018-0.0159912,0.0509644    C40.3592529,61.9258156,39.0807838,59.7035713,73.3769531,102.190918z M64.4536133,62.3422852H83.855957l-9.7011719,35.4331055    L64.4536133,62.3422852z M62.380188,62.3422852l9.546814,34.8696899L43.7680664,62.3422852H62.380188z M76.3825684,97.2120361    l9.546814-34.869751h18.6126099L76.3825684,97.2120361z M87.7661743,60.3417969l10.4188232-9.4083862l6.5371704,9.4083862    H87.7661743z M85.5534668,59.6447754l-3.7640381-9.2150879h13.968811L85.5534668,59.6447754z M79.6289063,50.4296875    l4.0488281,9.9121094H64.6318359l4.0493164-9.9121094H79.6289063z M62.7559814,59.6446533l-10.2042236-9.2149658h13.9686279    L62.7559814,59.6446533z M50.125061,50.9334717l10.418396,9.4083252H43.5878906L50.125061,50.9334717z"/></g><g><path d="M74.1547852,42.8125c0.5522461,0,1-0.4477539,1-1v-5.625c0-0.5522461-0.4477539-1-1-1s-1,0.4477539-1,1v5.625    C73.1547852,42.3647461,73.6025391,42.8125,74.1547852,42.8125z"/></g><g><path d="M85.6098633,45.6704102c0.168457,0.1103516,0.3583984,0.1630859,0.5458984,0.1630859    c0.3261719,0,0.6464844-0.1591797,0.8378906-0.453125l3.0771484-4.7084961    c0.3022461-0.4619141,0.1723633-1.0820313-0.2900391-1.3837891c-0.4614258-0.3017578-1.081543-0.1728516-1.3837891,0.2900391    l-3.0771484,4.7084961C85.0175781,44.7485352,85.1474609,45.3686523,85.6098633,45.6704102z"/></g><g><path d="M61.3164063,45.3803711c0.1918945,0.2939453,0.5117188,0.453125,0.8378906,0.453125    c0.1875,0,0.3774414-0.0527344,0.5458984-0.1630859c0.4624023-0.3017578,0.5922852-0.921875,0.2900391-1.3837891    l-3.0771484-4.7084961c-0.3022461-0.4628906-0.9223633-0.5922852-1.3837891-0.2900391    c-0.4624023,0.3017578-0.5922852,0.921875-0.2900391,1.3837891L61.3164063,45.3803711z"/></g></g><text x="0" y="165" fill="#000000" font-size="5px" font-weight="bold" font-family="'Helvetica Neue', Helvetica, Arial-Unicode, Arial, Sans-serif">Created by Dinosoft Labs</text><text x="0" y="170" fill="#000000" font-size="5px" font-weight="bold" font-family="'Helvetica Neue', Helvetica, Arial-Unicode, Arial, Sans-serif">from the Noun Project</text></svg>