<svg xmlns="http://www.w3.org/2000/svg" xmlns:xlink="http://www.w3.org/1999/xlink" version="1.1" x="0px" y="0px" viewBox="0 0 150 187.5" style="enable-background:new 0 0 150 150;" xml:space="preserve"><style type="text/css">
	.st0{fill:none;}
	.st1{fill:none;stroke:#000000;stroke-width:2;stroke-linecap:round;stroke-linejoin:round;stroke-miterlimit:10;}
</style><g><g><path d="M50.1503906,102.3279419l-9.5625-3.4384766c-1.2380905-0.4526443-1.9255714,1.4328003-0.6757813,1.8818359    c10.0439911,3.5895004,9.5766335,3.4980469,9.9003906,3.4980469c0.4101563,0,0.7939453-0.2543945,0.9414063-0.6621094    C50.9404297,103.0877075,50.6708984,102.5149536,50.1503906,102.3279419z"/></g><g><path d="M45.1835938,97.9212036c0.5200729,0.1876755,1.0922813-0.082756,1.2802734-0.6025391    c0.1865234-0.5195313-0.0830078-1.0922852-0.6025391-1.2792969c-3.9010544-1.1108246-5.9681778-2.911644-6.5527344-1.293457    C38.7278786,96.3634033,41.5004578,96.3074951,45.1835938,97.9212036z"/></g><g><path d="M59.0371094,68.7713013c10.0439911,3.5895004,9.5766373,3.4980469,9.9003906,3.4980469    c1.1175308,0,1.3866959-1.5645828,0.3378906-1.9414063l-9.5625-3.4384766    C58.4769897,66.4370804,57.7852249,68.3215179,59.0371094,68.7713013z"/></g><g><path d="M64.3085938,65.9212036c1.254982,0.4528885,1.9123154-1.4374313,0.6777344-1.8818359    c-3.8940773-1.1091347-5.9686623-2.9118195-6.5527344-1.293457    C57.8528786,64.3634033,60.6254578,64.3074951,64.3085938,65.9212036z"/></g><g><path d="M113.6132813,104.2449341c0.3837891-0.1494141,0.6367188-0.5195313,0.6367188-0.9316406V78.7688599    c0-0.09375-0.0163574-0.1848145-0.0415039-0.2729492c-0.0081787-0.0285645-0.020752-0.0541992-0.03125-0.0817871    c-0.0222168-0.0578613-0.0480957-0.1135254-0.0805664-0.1662598c-0.017334-0.0283203-0.0357666-0.0544434-0.0557861-0.0805664    c-0.036377-0.0480957-0.0772705-0.0913086-0.1221924-0.1323242c-0.0234375-0.0214844-0.0454102-0.043457-0.071167-0.0627441    c-0.0118408-0.0087891-0.020752-0.020752-0.0330811-0.0290527c-0.0495605-0.0336914-0.1035156-0.0571289-0.1572266-0.0810547    c-0.0148926-0.0068359-0.0266113-0.0183105-0.0419922-0.0244141L95.125,70.586731V46.7297974    c0-0.09375-0.0163574-0.1848145-0.0415039-0.2729492c-0.0081787-0.0285645-0.020752-0.0541992-0.03125-0.0817871    c-0.0222168-0.0578613-0.0480957-0.1135254-0.0805664-0.1662598c-0.017334-0.0283203-0.0357666-0.0544434-0.0557861-0.0805664    c-0.036377-0.0480957-0.0772705-0.0913086-0.1221924-0.1323242c-0.0234375-0.0214844-0.0454102-0.043457-0.071167-0.0627441    c-0.0118408-0.0087891-0.020752-0.020752-0.0330811-0.0290527c-0.0499268-0.0341797-0.1044922-0.0576172-0.1585693-0.0820313    c-0.0145264-0.0063477-0.0257568-0.0175781-0.0406494-0.0234375c-19.9185867-7.7069054-19.1632538-7.7711182-19.8554688-7.5    c-19.7893982,7.7674675-19.0309639,7.392292-19.3572998,7.6345215c-0.1398811,0.104744-0.2600136,0.2603722-0.3297119,0.4418945    C54.9079475,46.4796715,54.875,46.5839157,54.875,46.7297974v23.8178711c-19.2867126,7.5702362-19.125,7.1907959-19.125,8.1821289    v24.5449219c0,0.4121094,0.2529297,0.7822266,0.6367188,0.9316406    c25.2783966,9.8459473,17.7197342,6.9875717,19.1567383,7.4609375c0.2328453,0.0825577,0.4266853,0.0838165,0.6630859,0    c0.010376-0.003418,0.0214844-0.0019531,0.0317383-0.0058594l18.7121582-7.2941895    c19.8927078,7.7486115,18.8927689,7.5789948,19.5378418,7.333252L113.6132813,104.2449341z M94.125,85.1506958    l-16.3786621-6.3845215c1.6753464-0.6565094-6.0690384,2.3782425,16.3848877-6.4206543l16.3724365,6.4206543L94.125,85.1506958z     M93.125,70.586731C69.6568222,79.741272,77.7510223,76.5838623,76,77.2669067V54.9119263l17.125-6.7155762V70.586731z     M74,54.9119263v22.3513184l-17.125-6.7155762V48.1963501L74,54.9119263z M55.8188477,72.3259888l16.4279785,6.4038086    L55.875,85.1121216l-16.3789063-6.3850098L55.8188477,72.3259888z M95.125,109.3059692V86.9509888l17.125-6.7155762v22.3942871    L95.125,109.3059692z M75,40.3040161l16.3789063,6.4230957L75,53.1121216l-16.3789063-6.3850098L75,40.3040161z M37.75,80.1963501    l17.125,6.7155762v22.3549805l-17.125-6.6757813V80.1963501z M56.875,86.9119263L74,80.1963501v22.3947754l-17.125,6.6757813    V86.9119263z M76,80.2354126l17.125,6.7155762v22.3549805L76,102.6296997V80.2354126z"/></g><g><path d="M88.4003906,102.3665161l-9.5625-3.4379883c-1.2422028-0.450325-1.9227524,1.4349823-0.6757813,1.8818359    c8.4469604,2.6654816,10.2361298,4.5100479,10.8417969,2.8354492    C89.1904297,103.1262817,88.9208984,102.5530396,88.4003906,102.3665161z"/></g><g><path d="M83.4345703,97.9597778c1.2547607,0.4567795,1.9081421-1.4402237,0.6757813-1.8818359    c-3.9010086-1.1109848-5.9687195-2.9084702-6.5517578-1.2929688C76.978241,96.4029617,79.74897,96.3458405,83.4345703,97.9597778z    "/></g><g><path d="M70.4736328,16.9397583L74,13.4133911v20.2524414c0,0.5522461,0.4472656,1,1,1s1-0.4477539,1-1V13.4133911    l3.5263672,3.5263672c0.1953125,0.1953125,0.4511719,0.2929688,0.7070313,0.2929688s0.5117188-0.0976563,0.7070313-0.2929688    c0.390625-0.390625,0.390625-1.0234375,0-1.4140625l-5.2325439-5.2324219    c-0.0924072-0.0927734-0.2030029-0.1660156-0.3258057-0.2167969c-0.2443848-0.1010742-0.5197754-0.1010742-0.7641602,0    c-0.1228027,0.0507813-0.2333984,0.1240234-0.3258057,0.2167969l-5.2325439,5.2324219    c-0.390625,0.390625-0.390625,1.0234375,0,1.4140625S70.0830078,17.3303833,70.4736328,16.9397583z"/></g><g><path d="M79.5263672,133.0588989L76,136.5852661v-20.2524414c0-1.3225327-2-1.3238907-2,0v20.2524414l-3.5263672-3.5263672    c-0.390625-0.390625-1.0234375-0.390625-1.4140625,0s-0.390625,1.0234375,0,1.4140625l5.2325439,5.2324219    c0.0924072,0.0927734,0.2030029,0.1660156,0.3258057,0.2167969c0.1221924,0.0505371,0.2519531,0.0771484,0.3820801,0.0771484    s0.2598877-0.0266113,0.3820801-0.0771484c0.1228027-0.0507813,0.2333984-0.1240234,0.3258057-0.2167969l5.2325439-5.2324219    c0.390625-0.390625,0.390625-1.0234375,0-1.4140625S79.9169922,132.6682739,79.5263672,133.0588989z"/></g><g><path d="M140,74.9998169v-0.0002441c0-0.130127-0.0266113-0.2600098-0.0771484-0.3823242    c-0.0500488-0.1206055-0.1224365-0.229248-0.2128906-0.3205566c-0.0012207-0.0012207-0.0015869-0.0029297-0.0029297-0.0043945    l-5.2333984-5.2333984c-0.390625-0.390625-1.0234375-0.390625-1.4140625,0s-0.390625,1.0234375,0,1.4140625l3.5268555,3.5268555    h-20.253418c-0.5527344,0-1,0.4477539-1,1s0.4472656,1,1,1h20.2524414l-3.5258789,3.5258789    c-0.390625,0.390625-0.390625,1.0234375,0,1.4140625c0.1953125,0.1953125,0.4511719,0.2929688,0.7070313,0.2929688    s0.5117188-0.0976563,0.7070313-0.2929688l5.2312012-5.2312012c0.0932617-0.0927734,0.1672363-0.2038574,0.2182617-0.3273926    c0.048584-0.1176758,0.0723877-0.2424316,0.0742188-0.3676758C139.9973145,75.008606,140,75.0046997,140,74.9998169z"/></g><g><path d="M13.4145508,75.9998169c19.1464043-0.4033813,21.2524414,0.8975677,21.2524414-1    c0-1.891716-2.0976791-0.5964355-21.253418-1l3.5268555-3.5268555c0.390625-0.390625,0.390625-1.0234375,0-1.4140625    s-1.0234375-0.390625-1.4140625,0l-5.2333984,5.2333984c-0.0013428,0.0014648-0.001709,0.0031738-0.0030518,0.0046387    c-0.090332,0.0910645-0.1627197,0.199707-0.2126465,0.3200684C10.0266113,74.7393188,10,74.8692017,10,74.9995728v0.0002441    c0,0.0046387,0.0026855,0.0085449,0.0026855,0.0131836c0.001709,0.1254883,0.0256348,0.2504883,0.0742188,0.3681641    c0.0510254,0.1235352,0.125,0.2346191,0.2182617,0.3273926l5.2312012,5.2312012    c0.1953125,0.1953125,0.4511719,0.2929688,0.7070313,0.2929688s0.5117188-0.0976563,0.7070313-0.2929688    c0.390625-0.390625,0.390625-1.0234375,0-1.4140625L13.4145508,75.9998169z"/></g><g><path d="M104.2275391,46.7722778c0.2558594,0,0.5117188-0.0976563,0.7070313-0.2929688l14.3203125-14.3203125v4.9863281    c0,0.5522461,0.4472656,1,1,1s1-0.4477539,1-1v-7.4008789c0-0.0048828-0.0026855-0.0087891-0.0026855-0.0136719    c-0.0018311-0.1252441-0.0256348-0.25-0.0742188-0.3676758c-0.1013184-0.2451172-0.2966309-0.4404297-0.5421143-0.541748    c-0.1002197-0.0412598-0.2064209-0.0559082-0.3128662-0.0632324c-0.0236816-0.001709-0.0439453-0.0136719-0.0681152-0.0136719    h-7.4013672c-0.5527344,0-1,0.4477539-1,1s0.4472656,1,1,1h4.987793l-14.3208008,14.3208008    c-0.390625,0.390625-0.390625,1.0234375,0,1.4140625C103.7158203,46.6746216,103.9716797,46.7722778,104.2275391,46.7722778z"/></g><g><path d="M39.0664063,109.5198364l-14.3212891,14.3203125v-4.9868164c0-0.5522461-0.4472656-1-1-1s-1,0.4477539-1,1v7.4008789    c0,0.130127,0.0266113,0.2597656,0.0771484,0.3820801c0.1013184,0.2446289,0.2961426,0.4394531,0.5407715,0.5407715    c0.1221924,0.0505371,0.2519531,0.0771484,0.3820801,0.0771484h7.4013672c0.5527344,0,1-0.4477539,1-1s-0.4472656-1-1-1    h-4.9871826l14.321167-14.3203125c0.390625-0.390625,0.390625-1.0234375,0-1.4140625    S39.4570313,109.1292114,39.0664063,109.5198364z"/></g><g><path d="M126.2548828,117.8533325c-0.5527344,0-1,0.4477539-1,1v4.9868164l-14.3212891-14.3203125    c-0.390625-0.390625-1.0234375-0.390625-1.4140625,0s-0.390625,1.0234375,0,1.4140625l14.321167,14.3203125h-4.9871826    c-0.5527344,0-1,0.4477539-1,1s0.4472656,1,1,1h7.4013672c0.130127,0,0.2598877-0.0266113,0.3820801-0.0771484    c0.244751-0.1013184,0.4395752-0.2961426,0.5408936-0.5410156c0.0505371-0.1220703,0.0770264-0.251709,0.0770264-0.3818359    v-7.4008789C127.2548828,118.3010864,126.8076172,117.8533325,126.2548828,117.8533325z"/></g><g><path d="M29.7451172,38.1453247c0.5527344,0,1-0.4477539,1-1v-4.9863281    c14.966011,14.8057251,14.2380219,14.6132813,15.0273438,14.6132813c0.8811798,0,1.3402481-1.0738144,0.7070313-1.7070313    L32.1586914,30.7444458h4.987793c0.5527344,0,1-0.4477539,1-1s-0.4472656-1-1-1h-7.4013672    c-0.0240479,0-0.0441895,0.0119629-0.0678711,0.0136719c-0.1064453,0.0073242-0.2128906,0.0219727-0.3132324,0.0632324    c-0.2453613,0.1013184-0.4406738,0.2966309-0.5419922,0.541748c-0.048584,0.1176758-0.0725098,0.2426758-0.0742188,0.3681641    c0,0.0046387-0.0026855,0.0085449-0.0026855,0.0131836v7.4008789    C28.7451172,37.6975708,29.1923828,38.1453247,29.7451172,38.1453247z"/></g></g><text x="0" y="165" fill="#000000" font-size="5px" font-weight="bold" font-family="'Helvetica Neue', Helvetica, Arial-Unicode, Arial, Sans-serif">Created by Dinosoft Labs</text><text x="0" y="170" fill="#000000" font-size="5px" font-weight="bold" font-family="'Helvetica Neue', Helvetica, Arial-Unicode, Arial, Sans-serif">from the Noun Project</text></svg>