<svg xmlns="http://www.w3.org/2000/svg" xmlns:xlink="http://www.w3.org/1999/xlink" version="1.1" x="0px" y="0px" viewBox="0 0 150 187.5" style="enable-background:new 0 0 150 150;" xml:space="preserve"><style type="text/css">
	.st0{fill:none;}
	.st1{fill:none;stroke:#000000;stroke-width:2;stroke-linecap:round;stroke-linejoin:round;stroke-miterlimit:10;}
</style><g><g><path d="M91.0667953,113.0629883c7.9162598-4.9223862,9.8516388-4.902916,9.2792969-6.3452148l-2.8950195-7.2915039    c0.6811523-0.6269531,1.3388672-1.284668,1.9658203-1.9658203c6.3505478,2.220726,7.756752,3.7965622,8.5273438,2.4658203    c4.3914642-8.2155228,6.0801926-9.1732254,4.8637695-10.1347656l-6.1474609-4.862793    c0.2827148-0.8989258,0.5253906-1.7998047,0.7250977-2.6918945c6.5454559-1.2396469,8.605957-0.5956192,8.605957-2.1259766    V69.8911133c0-0.4960938-0.3637695-0.9174805-0.8549805-0.9892578l-7.7509766-1.137207    c-0.199707-0.8920898-0.4423828-1.7929688-0.7250977-2.6914063l6.1474609-4.862793    c0.3891602-0.3076172,0.4936523-0.8544922,0.2456055-1.2841797l-5.109375-8.8505859    c-0.7608719-1.3139648-2.0300522,0.193779-8.5273438,2.4658203c-0.6269531-0.6811523-1.284668-1.3388672-1.9658203-1.9658203    c2.1992111-6.2883339,3.7911911-7.7622414,2.4658203-8.5273438c-8.2097092-4.3881645-9.1712875-6.0805016-10.1342773-4.8637695    l-4.8632813,6.1474609c-0.8989258-0.2827148-1.7998047-0.5253906-2.6918945-0.7250977    c-1.2396469-6.5454521-0.5956192-8.605957-2.1259766-8.605957c-9.3304214,0.3047562-10.9847717-0.6794243-11.2089844,0.8549805    l-1.1367188,7.7509766c-0.8920898,0.199707-1.7929688,0.4423828-2.6918945,0.7250977    c-4.3463516-5.0486565-4.8215981-7.1581688-6.1469727-6.3930664l-8.8500977,5.109375    c-0.4296875,0.2480469-0.6123047,0.7739258-0.4291992,1.2353516l2.8950195,7.2919922    c-0.6811523,0.6269531-1.3393555,1.284668-1.9658203,1.9658203c-6.2884483-2.1988792-7.7615891-3.7908173-8.5273438-2.4658203    c-4.3917809,8.2153549-6.0806847,9.1732254-4.8642578,10.1347656l6.1474609,4.862793    c-0.2827148,0.8989258-0.5253906,1.7998047-0.7250977,2.6918945l-7.7509766,1.1367188    C34.3553696,68.9736328,33.9916,69.3950195,33.9916,69.8911133v10.2197266c0,0.4960938,0.3637695,0.9174805,0.8549805,0.9892578    l7.7509766,1.1367188c0.199707,0.8920898,0.4423828,1.7929688,0.7250977,2.6918945l-6.1474609,4.862793    c-0.3891602,0.3076172-0.4936523,0.8544922-0.2456055,1.2841797c4.9288712,7.9281693,4.9041672,9.8525467,6.3452148,9.2797852    l7.2919922-2.8950195c0.6264648,0.6811523,1.284668,1.3388672,1.9658203,1.9658203    c-2.1994438,6.2882538-3.7905426,7.7606277-2.4658203,8.5268555c8.2054291,4.386261,9.1745796,6.0822144,10.1342773,4.8642578    l4.862793-6.1474609c0.8989258,0.2827148,1.7998047,0.5253906,2.6918945,0.7250977    c1.2396469,6.5454559,0.5956192,8.605957,2.1259766,8.605957c9.3304214-0.3047562,10.9847717,0.6794281,11.2089844-0.8549805    l1.1367188-7.7509766c0.8920898-0.199707,1.7929688-0.4423828,2.6918945-0.7250977    C89.265686,111.7185745,89.7410431,113.8274384,91.0667953,113.0629883z M80.3499985,106.4165039l-1.112793,7.5844727h-8.4912109    c-1.2261505-6.8535919-0.6631088-8.1729507-1.90625-8.4204102c-3.7799606-0.7554016-4.2264175-1.5641098-4.9125977-0.6977539    l-4.7583008,6.0161133l-7.3540039-4.2460938c2.3802986-6.5871582,3.5109253-7.4216156,2.5649414-8.2539063    c-2.9263687-2.5802078-2.8918266-3.4556351-3.9047852-3.0537109l-7.1352539,2.8330078l-4.2460938-7.3544922l6.0161133-4.7583008    c0.3310547-0.2617188,0.4619141-0.7036133,0.3271484-1.1035156c-0.4291992-1.2734375-0.7744141-2.5551758-1.0253906-3.8095703    c-0.0830078-0.4140625-0.4174805-0.7319336-0.8354492-0.7929688L35.9916,79.246582v-8.4912109l7.5849609-1.112793    c0.418457-0.0610352,0.7529297-0.3789063,0.8354492-0.793457c0.2504883-1.253418,0.5952148-2.5351563,1.0249023-3.809082    c0.1347656-0.3999023,0.0039063-0.8417969-0.3271484-1.1035156l-6.0161133-4.7583008l4.2460938-7.3544922l7.1352539,2.8330078    c0.3955078,0.1577148,0.840332,0.0493164,1.1191406-0.2680664c0.8657227-0.9819336,1.8032227-1.9194336,2.7856445-2.7856445    c0.3168945-0.2788086,0.4238281-0.7265625,0.2680664-1.1191406l-2.8330078-7.1352539l7.3540039-4.2456055    c4.4889107,5.3221054,4.6612587,6.7498322,5.8618164,6.3432617c3.7826233-1.275856,4.4455032-0.7836914,4.6025391-1.8603516    l1.112793-7.5849609h8.4912109c1.2262878,6.8535652,0.6629562,8.1707764,1.9057617,8.4199219    c3.7946625,0.7592278,4.2263412,1.5653076,4.9130859,0.6982422l4.7587891-6.0161133l7.3540039,4.2456055    c-2.3803024,6.587162-3.5100555,7.4205589-2.5654297,8.2543945c2.9155731,2.5706902,2.8932648,3.4580154,3.9052734,3.0537109    l7.1352539-2.8330078l4.2456055,7.3540039c-5.3227005,4.4882088-6.7480469,4.6611481-6.3432617,5.8623047    c1.285347,3.8121643,0.7757492,4.4440842,1.8608398,4.6025391l7.5844727,1.112793v8.4912109    c-6.8535614,1.2262878-8.1707764,0.6629562-8.4199219,1.9057617c-0.7611237,3.8041458-1.5602341,4.2316284-0.6982422,4.9130859    l6.0161133,4.7587891l-4.2456055,7.3540039c-6.5873337-2.3798141-7.4206543-3.5101395-8.2543945-2.5654297    c-4.3239594,4.9040604-3.8787231,0.917572-0.2207031,11.0400391l-7.3540039,4.2460938l-4.7587891-6.0161133    c-0.262207-0.3310547-0.7036133-0.4604492-1.1035156-0.3271484    C81.138916,105.841011,80.5074692,105.3381195,80.3499985,106.4165039z"/></g><g><path d="M100.1742172,75c0-13.8837891-11.2949219-25.1787109-25.1787109-25.1787109    c-13.8920898,0-25.1943359,11.2949219-25.1943359,25.1787109s11.3022461,25.1787109,25.1943359,25.1787109    C88.8792953,100.1787109,100.1742172,88.8837891,100.1742172,75z M74.9955063,98.1787109    c-12.7895508,0-23.1943359-10.3979492-23.1943359-23.1787109s10.4047852-23.1787109,23.1943359-23.1787109    c12.7807617,0,23.1787109,10.3979492,23.1787109,23.1787109S87.776268,98.1787109,74.9955063,98.1787109z"/></g><g><path d="M74.0839462,20.6115723c0.0507202,0.1224365,0.1237793,0.2331543,0.2160645,0.3251953    c9.0851288,8.9367104,9.5893402,10.2831573,10.6432495,9.229248c0.390625-0.390625,0.390625-1.0234375,0-1.4140625    l-7.4602051-7.4602051c13.9692383,0.6264648,26.8862305,6.5397949,36.5949707,16.822998    c0.1967773,0.2084961,0.4614258,0.3134766,0.7270508,0.3134766c0.246582,0,0.4931641-0.090332,0.6865234-0.2729492    c0.4013672-0.3789063,0.4199219-1.012207,0.0405273-1.4135742c-10.1186523-10.7172852-23.5988159-16.854126-38.1705322-17.4530029    l7.581665-7.581665c0.390625-0.390625,0.390625-1.0234375,0-1.4140625s-1.0234375-0.390625-1.4140625,0l-9.229187,9.229248    c-0.0922852,0.092041-0.1653442,0.2027588-0.2160645,0.3251953C73.982811,20.0917969,73.982811,20.3671875,74.0839462,20.6115723z    "/></g><g><path d="M75.9109726,129.3884277c-0.0507202-0.1224365-0.1237793-0.2331543-0.2160645-0.3251953l-9.229187-9.229248    c-0.390625-0.390625-1.0234375-0.390625-1.4140625,0s-0.390625,1.0234375,0,1.4140625l7.4570923,7.4570313    c-14.0477905-0.6569824-27.430603-6.8632813-37.0352173-17.2685547c-0.3740234-0.4047852-1.0058594-0.4306641-1.4130859-0.0566406    c-0.4057617,0.3745117-0.4311523,1.0073242-0.0566406,1.4130859    c10.0110474,10.845459,23.9817505,17.2888184,38.6322632,17.9155273l-7.5844116,7.5844727    c-0.390625,0.390625-0.390625,1.0234375,0,1.4140625C65.2469711,139.9023438,65.5028305,140,65.7586899,140    s0.5117188-0.0976563,0.7070313-0.2929688l9.229187-9.229248c0.0922852-0.092041,0.1653442-0.2027588,0.2160645-0.3251953    C76.0121078,129.9082031,76.0121078,129.6328125,75.9109726,129.3884277z"/></g><g><path d="M25.6244125,49.2105713c-0.0536366,0.8184776,0.8287506,1.3451691,1.5230103,0.9112549l12.3031616-3.7453613    c1.268528-0.3857155,0.6773148-2.3036346-0.5820313-1.9130859l-10.1032104,3.0754395    c8.0821533-13.5275879,21.9052734-23.0163574,37.4694214-25.5681152c0.5449219-0.0893555,0.9145508-0.6035156,0.8251801-1.1484375    c-0.0893402-0.5449219-0.6025238-0.909668-1.1484222-0.8251953    c-16.2106323,2.6575928-30.5962524,12.5708008-38.9640503,26.6923828l-3.1194458-10.2456055    c-0.1616211-0.5288086-0.7231445-0.828125-1.2475586-0.6655273c-0.5283203,0.1606445-0.8266602,0.7192383-0.6655273,1.2475586    L25.6244125,49.2105713z"/></g><g><path d="M123.8418808,99.9370117c-0.0183716-0.0113525-0.0292358-0.0297852-0.0485229-0.0400391    c-0.0004272-0.0002441-0.0009766-0.0002441-0.0014038-0.0004883c-0.228035-0.1215591-0.5041504-0.1518936-0.7601318-0.0742188    c-0.0001831,0-0.0004883,0-0.0006714,0c-11.0903015,3.7656403-13.6858368,3.2996292-13.1523438,5.0488281    c0.1606445,0.5288086,0.722168,0.8256836,1.2475586,0.6655273l10.0750732-3.0667725    c-8.0842285,13.5491943-21.9263916,23.0426025-37.5130615,25.5726318    c-0.5454102,0.0888672-0.9155273,0.6025391-0.8271484,1.1474609c0.0800781,0.4912109,0.5043945,0.8398438,0.9863281,0.8398438    c0.0532227,0,0.1069336-0.0039063,0.1611328-0.0126953c16.2473755-2.6380615,30.6637573-12.5698242,39.0304565-26.7340088    c3.2711105,9.8287888,2.7383194,10.9825439,4.0838013,10.9825439c0.6662598,0,1.1541061-0.6453552,0.9570236-1.2915039    C123.9150314,99.2933197,124.3162231,100.2306976,123.8418808,99.9370117z"/></g><g><path d="M32.2274399,91.7241211c-1.756073-0.3594131-1.0986538,2.2290268-3.2207642,11.182373    C23.8955307,94.5095215,21.1996078,84.9160156,21.1996078,75c0-13.8943977,4.4836025-17.6282959,2.1835938-18.402832    c-0.5258789-0.1782227-1.0913086,0.1049805-1.2670898,0.628418c-5.1680527,15.3398438-3.5041733,32.5378723,5.2573853,46.8457031    l-10.4736938-2.0615234c-1.2946577-0.260788-1.6876287,1.706192-0.3867188,1.9619141l12.5193481,2.4644775    c0.3414516,0.1875229,0.7361908,0.159584,1.0392456-0.0450439c0.5699272-0.3837509,0.201231,0.0469666,2.9433594-13.4926758    C33.1219711,92.3564453,32.7689438,91.8305664,32.2274399,91.7241211z"/></g><g><path d="M133.4818268,46.0283203l-12.7609787-2.5119629c-0.2645874-0.0655518-0.5523071-0.03125-0.7961426,0.1330566    c-0.2313232,0.1555176-0.3756104,0.3907471-0.4234009,0.6445313c-0.000061,0.0002441-0.0003662,0.0006104-0.0004272,0.0009766    l-2.5209961,12.8066406c-0.1069336,0.5419922,0.2460938,1.0678711,0.7875977,1.1743164    c0.0654297,0.0131836,0.1303711,0.019043,0.1943359,0.019043c0.4682617,0,0.8862305-0.3300781,0.9799805-0.8066406    l2.0401001-10.3625488C126.085228,55.5185547,128.7767487,65.1010742,128.7767487,75    c0,5.9248047-0.9746017,11.7768555-2.8964767,17.394043c-0.4289627,1.2540665,1.462944,1.9024048,1.8925781,0.6474609    C129.7660065,87.215332,130.7767487,81.1455078,130.7767487,75c0-10.3312988-2.8249435-20.3322754-8.1838303-29.0769043    l10.5021896,2.0671387c0.5444336,0.1098633,1.0678711-0.2460938,1.1743164-0.7875977    C134.376358,46.6606445,134.0233307,46.1347656,133.4818268,46.0283203z"/></g></g><text x="0" y="165" fill="#000000" font-size="5px" font-weight="bold" font-family="'Helvetica Neue', Helvetica, Arial-Unicode, Arial, Sans-serif">Created by Dinosoft Labs</text><text x="0" y="170" fill="#000000" font-size="5px" font-weight="bold" font-family="'Helvetica Neue', Helvetica, Arial-Unicode, Arial, Sans-serif">from the Noun Project</text></svg>