<svg xmlns="http://www.w3.org/2000/svg" xmlns:xlink="http://www.w3.org/1999/xlink" version="1.1" x="0px" y="0px" viewBox="0 0 150 187.5" style="enable-background:new 0 0 150 150;" xml:space="preserve"><style type="text/css">
	.st0{fill:none;}
	.st1{fill:none;stroke:#000000;stroke-width:2;stroke-linecap:round;stroke-linejoin:round;stroke-miterlimit:10;}
</style><g><g><path d="M118.4073029,102.2965622V47.7438278c5.9953613-3.9511719,9.5634766-10.5302734,9.5634766-17.725584    c0-8.3798828-4.9580078-16-12.6308594-19.4140625c-0.3095703-0.1367188-0.6669922-0.1083984-0.9511719,0.0751953    c-0.2841797,0.1845703-0.4550781,0.5-0.4550781,0.8388672v16.7773438l-3.7441406,3.7451153h-6.9326172l-3.7451172-3.7451153    V11.5182428c0-0.3388672-0.1708984-0.6542969-0.4550781-0.8388672c-0.2841797-0.1835938-0.6416016-0.2119141-0.9511719-0.0751953    c-7.6728516,3.4140625-12.6308594,11.0341806-12.6308594,19.4140625c0,7.1953106,3.5690918,13.7753887,9.5634766,17.725584    v54.5527344c-14.077095,9.2796402-12.2153931,30.3395309,3.0673828,37.1396561    c0.3095703,0.1376953,0.6669922,0.1083984,0.9511719-0.0751953c0.2841797-0.1845703,0.4550781-0.5,0.4550781-0.8388672    v-16.7773514l3.7451172-3.7451172h6.9326172l3.7441406,3.7451172v16.7773514c0,0.3388672,0.1708984,0.6542969,0.4550781,0.8388672    c0.1650391,0.1064453,0.3544922,0.1611328,0.5449219,0.1611328c0.1376953,0,0.2763672-0.0283203,0.40625-0.0859375    C130.6524506,132.6228485,132.4616699,111.5558548,118.4073029,102.2965622z M97.0381622,101.1110153V48.9293747    c5.7566528,2.96735,13.079361,3.242382,19.3691406,0v52.1816406    C110.303688,97.9682465,102.9790344,98.0484924,97.0381622,101.1110153z M87.4746857,30.0182438    c0-7.0654297,3.8916016-13.5351563,10.0371094-16.890625V28.70965c0,0.265625,0.1054688,0.5195313,0.2929688,0.7070313    l4.3310547,4.3310528c0.1875,0.1875,0.4423828,0.2929688,0.7070313,0.2929688h7.7607422    c0.265625,0,0.5195313-0.1054688,0.7070313-0.2929688l4.3300781-4.3310528c0.1875-0.1875,0.2929688-0.4414063,0.2929688-0.7070313    V13.1276178c6.1455078,3.3554697,10.0371094,9.8251963,10.0371094,16.890625    c0,15.3834515-16.9612885,24.1498852-29.4042969,16.3427715C90.8731232,42.8160934,87.4746857,36.7067184,87.4746857,30.0182438z     M115.93367,136.9127808c-0.1046906-15.9821243,0.2569046-15.7391891-0.2929688-16.2890701    c-4.4418564-4.3045731-4.3055496-4.6240234-5.0371094-4.6240234c-7.977417,0.1016159-7.9482117-0.2266006-8.4677734,0.2929688    c-4.3036728,4.4427338-4.6240234,4.3065262-4.6240234,5.0380859v15.5820389    c-17.4625931-9.5346375-10.648201-36.1377029,9.2109375-36.1377029c0.9611359,0,1.9569092,0.080101,2.8132324,0.2089844    c9.188446,1.348259,16.4348145,9.2325439,16.4348145,19.0380859    C125.9707794,127.0875778,122.0791779,133.557312,115.93367,136.9127808z"/></g><g><path d="M65.4824982,70.5768356H45.251049v-37.390625c1.5609741-0.1259842,2.721817,0.3631973,3.1328125-0.6103516    c2.8854599-6.9470596,2.9152527-6.6166306,2.8515625-7.0996075c-2.1892014-13.8483238-1.3354378-15.4560556-2.9443359-15.4560556    c-6.9281273,0.2855415-8.8631477-0.6804523-9.0703125,0.8671875c-1.9955788,15.2787981-2.0795898,14.6429434-1.8828125,15.1113291    c2.7870369,6.0688114,2.5304031,7.1874981,3.7021484,7.1874981h2.2109375v37.390625H23.0293694    c-0.3271484,0-0.6347656,0.1601563-0.8212891,0.4296875c-0.1865234,0.2685547-0.2304688,0.6123047-0.1162109,0.9189453    c3.7179241,9.3137054,3.3006058,10.3505859,4.5498047,10.3505859h3.7207031    c-0.0012989,47.9019394-0.0009766-30.7168655-0.0009766,43.8544922c0,7.6591873,6.2304688,13.8896561,13.8896484,13.8896561    s13.890625-6.2304688,13.890625-13.8896561c0-65.3680267,0.0024834,7.8222275-0.0058594-43.8544922    c2.8067207-0.1609879,4.2474213,0.450737,4.6572266-0.6494141l3.6259804-9.6992188    c0.1152344-0.3076172,0.0722656-0.6513672-0.1152344-0.9208984    C66.1172638,70.7379684,65.8106232,70.5768356,65.4824982,70.5768356z M39.2862053,25.4713688l1.8007813-13.4511728h6.3291016    l1.8007813,13.4511728l-2.4169922,5.7148438h-5.0966797L39.2862053,25.4713688z M47.9287834,93.3278122v28.0410156h-7.3544922    V93.3278122H47.9287834z M56.141674,93.3278122v28.0410156h-6.2128906V93.3278122H56.141674z M38.5742912,121.3688278h-6.2128906    V93.3278122h6.2128906V121.3688278z M56.141674,126.1305466c0,6.5556717-5.3339844,11.8896561-11.890625,11.8896561    c-6.5556641,0-11.8896484-5.3339844-11.8896484-11.8896561v-2.7617188H56.141674V126.1305466z M56.1358147,91.3278122H32.3623772    v-9.0517578h23.7734375V91.3278122z M61.1631584,80.2760544c-8.4723892,0-25.3703613,0-33.8271484,0l-2.8671875-7.6992188    c23.7729721,0,32.0844574,0,39.5722694,0L61.1631584,80.2760544z"/></g><g><path d="M110.0889435,58.6305466h-6.7324219c-1.3240204,0-1.3226013,2,0,2h6.7324219    C111.4129562,60.6305466,111.4115372,58.6305466,110.0889435,58.6305466z"/></g><g><path d="M103.3565216,66.3258591c-0.5527344,0-1,0.4472656-1,1c0,1.736557,2.5172195,0.6983414,7.7324219,1    c0.5527344,0,1-0.4472656,1-1C111.0889435,65.5893097,108.5717163,66.6275253,103.3565216,66.3258591z"/></g><g><path d="M110.0889435,74.020195h-6.7324219c-0.5527344,0-1,0.4472656-1,1s0.4472656,1,1,1h6.7324219c0.5527344,0,1-0.4472656,1-1    S110.6416779,74.020195,110.0889435,74.020195z"/></g><g><path d="M110.0889435,81.7145309h-6.7324219c-0.5527344,0-1,0.4472656-1,1s0.4472656,1,1,1h6.7324219c0.5527344,0,1-0.4472656,1-1    S110.6416779,81.7145309,110.0889435,81.7145309z"/></g><g><path d="M110.0889435,89.4098434h-6.7324219c-0.5527344,0-1,0.4472656-1,1s0.4472656,1,1,1h6.7324219c0.5527344,0,1-0.4472656,1-1    S110.6416779,89.4098434,110.0889435,89.4098434z"/></g></g><text x="0" y="165" fill="#000000" font-size="5px" font-weight="bold" font-family="'Helvetica Neue', Helvetica, Arial-Unicode, Arial, Sans-serif">Created by Dinosoft Labs</text><text x="0" y="170" fill="#000000" font-size="5px" font-weight="bold" font-family="'Helvetica Neue', Helvetica, Arial-Unicode, Arial, Sans-serif">from the Noun Project</text></svg>