<svg xmlns="http://www.w3.org/2000/svg" xmlns:xlink="http://www.w3.org/1999/xlink" version="1.1" x="0px" y="0px" viewBox="0 0 150 187.5" style="enable-background:new 0 0 150 150;" xml:space="preserve"><style type="text/css">
	.st0{fill:none;}
	.st1{fill:none;stroke:#000000;stroke-width:2;stroke-linecap:round;stroke-linejoin:round;stroke-miterlimit:10;}
</style><g><g><path d="M105.9492188,43.7659569C111.159256,26.9776974,98.5155106,9.9642,81.0205078,9.9642    c-10.7148438,0-20.2626953,6.5341806-24.2021484,16.4057617c-11.7218399-9.3129482-29.2255859-1.0027542-29.2255859,14.1118145    c0,3.8261719,1.2119141,7.5073242,3.4501953,10.5771484c-10.6386719,0.2353516-19.2216797,8.9628906-19.2216797,19.6567421    c0,10.8344727,8.8203125,19.6489258,19.6621094,19.6489258h8.6953125v48.5996094c0,0.5522461,0.4472656,1,1,1    c60.6821213-0.4499054,60.3925781,0.9505768,60.3925781-1v-7.6577148c5.7652588-0.3124237,8.2626953,0.7453766,8.2626953-1    V90.3645935h4.3105469c13.2529297,0,24.0341797-10.7758789,24.0341797-24.0209961    C138.1787109,49.7192383,121.5707474,38.0372925,105.9492188,43.7659569z M99.5712891,137.9642029H42.1787109V64.700531h6.2617188    v65.605957c0,0.5522461,0.4472656,1,1,1h50.1308594V137.9642029z M107.8339844,129.306488c-9.696373,0-35.0728149,0-57.3935547,0    v-65.605957v-7.6577148h42.6474609v13.7465858c0,0.5522461,0.4472656,1,1,1h13.7460938V129.306488z M95.0878906,57.4568748    l11.3320313,11.3325233H95.0878906V57.4568748z M114.1445313,88.3645935h-4.3105469V69.7893982    c0-0.0214844-0.0108643-0.0393066-0.012207-0.0604248c-0.0056152-0.0914307-0.0234375-0.1793213-0.0535889-0.2658691    c-0.0111084-0.0318604-0.019165-0.0633545-0.0333252-0.0936279c-0.0478516-0.1025391-0.1081543-0.1994629-0.1906738-0.2827148    c-0.0014648-0.0015869-0.0023193-0.00354-0.0039063-0.005127C95.3779221,55.2784691,95.0972137,54.0428123,94.0878906,54.0428123    H49.4404297c-0.5527344,0-1,0.4477539-1,1v7.6577148h-7.2617188c-0.5527344,0-1,0.4477539-1,1v24.6640663h-8.6953125    c-9.7392578,0-17.6621094-7.9174805-17.6621094-17.6489258c0-10.5148621,9.2062511-18.6496849,19.3212891-17.5683632    c0.9188652,0.1016273,1.4707069-1.0044708,0.8339844-1.6801758c-2.8271484-2.9975586-4.3837891-6.8989258-4.3837891-10.9853516    c0-13.9765396,16.7380905-21.2599354,26.9833984-11.6816387c0.5302124,0.4968128,1.3988724,0.2775764,1.6308594-0.4121094    C61.5048828,18.5642986,70.6728516,11.9642,81.0205078,11.9642c17.0948486,0,28.7784958,17.391468,22.2929688,33.2270508    c-0.3448257,0.8437424,0.533371,1.6755486,1.3564453,1.28125c14.6490173-6.9914665,31.5087891,3.7544708,31.5087891,19.8710976    C136.1787109,78.4861755,126.2939453,88.3645935,114.1445313,88.3645935z"/></g><g><path d="M114.1445313,48.4851952c-1.3238754,0-1.3225403,2,0,2c8.7441406,0,15.8583984,7.1142578,15.8583984,15.8584023    c0,1.322525,2,1.3238907,2,0C132.0029297,56.4964256,123.9912109,48.4851952,114.1445313,48.4851952z"/></g><g><path d="M81.0205078,16.1394939c-8.5498047,0-16.1269531,5.456543-18.8554688,13.5776367    c-0.42099,1.2536087,1.4750214,1.8917351,1.8964844,0.6367188c2.4541016-7.3056641,9.2685547-12.2143555,16.9589844-12.2143555    c9.8818359,0,17.9208984,8.0390625,17.9208984,17.9208965c0,1.3225327,2,1.3238945,2,0    C100.9414063,25.0760174,92.0048828,16.1394939,81.0205078,16.1394939z"/></g><g><path d="M33.7685547,40.4817772c0,1.3225327,2,1.3238945,2,0c0-5.4345703,4.4150391-9.8559551,9.8427734-9.8559551    c5.7758102,0,6.7225571,4.1658344,8.1601563,2.6376934c0.3769531-0.4033203,0.3564453-1.0361328-0.0478516-1.4135723    C46.170845,24.7849674,33.7685547,30.0775566,33.7685547,40.4817772z"/></g><g><path d="M17.9970703,70.7156677c0,1.322525,2,1.3238907,2,0c0-6.3334961,5.1523438-11.4863319,11.4863281-11.4863319    c0.5527344,0,1-0.4477539,1-1C32.4833984,55.0576706,17.9970703,58.6711693,17.9970703,70.7156677z"/></g><g><path d="M56.1210938,64.7010193h29.5048828c0.5527344,0,1-0.4477539,1-1.0000038c0-0.5522461-0.4472656-1-1-1H56.1210938    c-0.5527344,0-1,0.4477539-1,1C55.1210938,64.2532654,55.5683594,64.7010193,56.1210938,64.7010193z"/></g><g><path d="M102.1484375,74.290863H56.1210938c-0.5527344,0-1,0.4477539-1,1s0.4472656,1,1,1h46.0273438c0.5527344,0,1-0.4477539,1-1    S102.7011719,74.290863,102.1484375,74.290863z"/></g><g><path d="M56.1210938,85.8811951c-0.5527344,0-1,0.4477539-1,1s0.4472656,1,1,1    c46.3834915-0.4416275,47.0273438,0.934639,47.0273438-1C103.1484375,84.9471817,102.5050354,86.3228226,56.1210938,85.8811951z"/></g><g><path d="M56.1210938,97.4715271c-1.3238754,0-1.3225441,2,0,2c46.3834915-0.4416275,47.0273438,0.934639,47.0273438-1    C103.1484375,96.5375137,102.5050354,97.9131546,56.1210938,97.4715271z"/></g><g><path d="M102.1484375,109.0613708c-46.3834915,0.4416199-47.0273438-0.9346466-47.0273438,1    c0,1.9340057,0.6434021,0.5583725,47.0273438,1c0.5527344,0,1-0.4477539,1-1S102.7011719,109.0613708,102.1484375,109.0613708z"/></g><g><path d="M56.1210938,120.6517029c-0.5527344,0-1,0.4477539-1,1s0.4472656,1,1,1h46.0273438c0.5527344,0,1-0.4477539,1-1    C103.1484375,119.7176895,102.5050354,121.0933304,56.1210938,120.6517029z"/></g><g><path d="M28.1798096,93.2657166c-0.4037952-0.4466324-1.0677738-0.4467163-1.4715576,0.0009766    c-0.2438183,0.2685471-5.0745773,6.0367889-6.5705566,7.8166504c-0.8515301,1.0129395,0.6826801,2.3001556,1.53125,1.2851563    l4.7753906-5.6901855v27.2976074c0,0.5522461,0.4472656,1,1,1s1-0.4477539,1-1V96.6780701    c4.6576195,5.3584671,4.6764374,6.0478516,5.5429688,6.0478516c0.8390694,0,1.3134613-0.9894714,0.7646484-1.6430664    C32.4046021,98.2905502,28.4433079,93.555191,28.1798096,93.2657166z"/></g><g><path d="M122.9622803,93.0210876c-0.9407349-0.4215851-0.6544952-0.3365021-7.7142334,8.0617676    c-0.5486069,0.6533508-0.0746384,1.6430664,0.7646484,1.6430664c0.2861328,0,0.5693359-0.121582,0.7666016-0.3569336    l4.7763672-5.690918v27.2978516c0,0.5522461,0.4472656,1,1,1s1-0.4477539,1-1V96.6783142l4.7753906,5.6901855    c0.3535156,0.4228516,0.984375,0.4799805,1.4082031,0.1235352c0.4228516-0.3549805,0.4785156-0.9858398,0.1230469-1.4086914    C122.9612274,92.8722382,123.2692337,93.1588364,122.9622803,93.0210876z"/></g></g><text x="0" y="165" fill="#000000" font-size="5px" font-weight="bold" font-family="'Helvetica Neue', Helvetica, Arial-Unicode, Arial, Sans-serif">Created by Dinosoft Labs</text><text x="0" y="170" fill="#000000" font-size="5px" font-weight="bold" font-family="'Helvetica Neue', Helvetica, Arial-Unicode, Arial, Sans-serif">from the Noun Project</text></svg>