<svg xmlns="http://www.w3.org/2000/svg" xmlns:xlink="http://www.w3.org/1999/xlink" version="1.1" x="0px" y="0px" viewBox="0 0 150 187.5" style="enable-background:new 0 0 150 150;" xml:space="preserve"><style type="text/css">
	.st0{fill:none;}
	.st1{fill:none;stroke:#000000;stroke-width:2;stroke-linecap:round;stroke-linejoin:round;stroke-miterlimit:10;}
</style><g><g><path d="M93.8694458,102.8326187c-2.2719727,0-4.1201172,1.855957-4.1201172,4.1367188    c0,2.2753906,1.8481445,4.1264648,4.1201172,4.1264648c2.2773438,0,4.1298828-1.8510742,4.1298828-4.1264648    C97.9993286,104.6885757,96.1467896,102.8326187,93.8694458,102.8326187z M93.8694458,109.0958023    c-1.1689453,0-2.1201172-0.9541016-2.1201172-2.1264648c0-2.8341751,4.25-2.8189087,4.25,0    C95.9993286,108.1417007,95.0437622,109.0958023,93.8694458,109.0958023z"/></g><g><path d="M106.1194458,102.8326187c-2.2719727,0-4.1201172,1.855957-4.1201172,4.1367188    c0,2.2753906,1.8481445,4.1264648,4.1201172,4.1264648c2.2773438,0,4.1298828-1.8510742,4.1298828-4.1264648    C110.2493286,104.6885757,108.3967896,102.8326187,106.1194458,102.8326187z M103.9993286,106.9693375    c0-2.8341751,4.25-2.8189087,4.25,0C108.2493286,108.1417007,103.9993286,109.7854614,103.9993286,106.9693375z"/></g><g><path d="M84.7463989,105.9654312c-44.2005081,0.439827-44.9965858-0.9330673-44.9965858,1    c0,1.93367,0.7977066,0.5601807,44.9965858,1c0.5522461,0,1-0.4477539,1-1S85.298645,105.9654312,84.7463989,105.9654312z"/></g><g><path d="M93.8694458,87.9209976c2.2773438,0,4.1298828-1.8515625,4.1298828-4.1269531    c0-2.2807617-1.8525391-4.1362305-4.1298828-4.1362305c-2.2719727,0-4.1201172,1.8554688-4.1201172,4.1362305    C89.7493286,86.0694351,91.5974731,87.9209976,93.8694458,87.9209976z M95.9993286,83.7940445    c0,1.1728516-0.9555664,2.1269531-2.1298828,2.1269531c-1.1689453,0-2.1201172-0.9541016-2.1201172-2.1269531    C91.7493286,80.9602661,95.9993286,80.9763031,95.9993286,83.7940445z"/></g><g><path d="M106.1194458,87.9209976c2.2773438,0,4.1298828-1.8515625,4.1298828-4.1269531    c0-2.2807617-1.8525391-4.1362305-4.1298828-4.1362305c-2.2719727,0-4.1201172,1.8554688-4.1201172,4.1362305    C101.9993286,86.0694351,103.8474731,87.9209976,106.1194458,87.9209976z M108.2493286,83.7940445    c0,2.8075333-4.25,2.819519-4.25,0C103.9993286,80.9602661,108.2493286,80.9763031,108.2493286,83.7940445z"/></g><g><path d="M85.7463989,83.7906265c0-0.5522461-0.4477539-1-1-1c-44.2005081,0.439827-44.9965858-0.9330673-44.9965858,1    c0,0.5522461,0.4477539,1,1,1h43.9965858C85.298645,84.7906265,85.7463989,84.3428726,85.7463989,83.7906265z"/></g><g><path d="M93.8699341,126.0079117c-2.2719727,0-4.1201172,1.8554688-4.1201172,4.1362228    c0,2.2753906,1.8481445,4.1269531,4.1201172,4.1269531c2.2773438,0,4.1298828-1.8515625,4.1298828-4.1269531    C97.9998169,127.8633804,96.1472778,126.0079117,93.8699341,126.0079117z M91.7498169,130.1441345    c0-1.1777344,0.9511719-2.1362305,2.1201172-2.1362305c1.1743164,0,2.1298828,0.9584961,2.1298828,2.1362305    C95.9998169,132.9516754,91.7498169,132.9636688,91.7498169,130.1441345z"/></g><g><path d="M101.9998169,130.1441345c0,2.2753906,1.8481445,4.1269531,4.1201172,4.1269531    c2.2773438,0,4.1298828-1.8515625,4.1298828-4.1269531c0-2.2807541-1.8525391-4.1362228-4.1298828-4.1362228    C103.8479614,126.0079117,101.9998169,127.8633804,101.9998169,130.1441345z M106.1199341,132.2710876    c-2.812149,0-2.7967987-4.2631836,0-4.2631836C108.9329758,128.0079041,108.9407349,132.2710876,106.1199341,132.2710876z"/></g><g><path d="M84.7463989,129.1407166c-44.2005081,0.4398346-44.9965858-0.9330597-44.9965858,1    c0,1.9336853,0.7977066,0.5601807,44.9965858,1c0.5522461,0,1-0.4477539,1-1S85.298645,129.1407166,84.7463989,129.1407166z"/></g><g><path d="M47.52911,23.9961891c2.2773438,0,4.1298828-1.8510742,4.1298828-4.1264648    c0-2.2807617-1.8525391-4.1367178-4.1298828-4.1367178c-2.2719727,0-4.1201172,1.8559561-4.1201172,4.1367178    C43.4089928,22.1451149,45.2571373,23.9961891,47.52911,23.9961891z M47.52911,17.7330055    c2.8115158,0,2.8230286,4.2631836,0,4.2631836C44.7169952,21.9961891,44.7318993,17.7330055,47.52911,17.7330055z"/></g><g><path d="M59.77911,23.9961891c2.2773438,0,4.1298828-1.8510742,4.1298828-4.1264648    c0-2.2807617-1.8525391-4.1367178-4.1298828-4.1367178c-2.2719727,0-4.1201172,1.8559561-4.1201172,4.1367178    C55.6589928,22.1451149,57.5071373,23.9961891,59.77911,23.9961891z M61.9089928,19.8697243    c0,1.1723633-0.9555664,2.1264648-2.1298828,2.1264648c-1.1689453,0-2.1201172-0.9541016-2.1201172-2.1264648    C57.6589928,17.0355511,61.9089928,17.0508213,61.9089928,19.8697243z"/></g><g><path d="M38.4055748,21.9961891c-20.3548393,0.4067688-22.4057617-0.9046612-22.4057617,1    c0,1.8870029,1.9119492,0.5904541,22.4057617,1C39.7277985,23.9961891,39.7294693,21.9961891,38.4055748,21.9961891z"/></g><g><path d="M16.9998131,18.2642555c20.3548393-0.4067688,22.4057617,0.9046631,22.4057617-1c0-0.5522461-0.4477539-1-1-1    c-20.3548393,0.4067688-22.4057617-0.9046621-22.4057617,1C15.9998131,17.8165016,16.447567,18.2642555,16.9998131,18.2642555z"/></g><g><path d="M38.4055748,50.0362282c0.5522461,0,1-0.4477539,1-1s-0.4477539-1-1-1H16.9998131c-0.5522461,0-1,0.4477539-1,1    s0.4477539,1,1,1H38.4055748z"/></g><g><path d="M16.9998131,44.3042946h21.4057617c0.5522461,0,1-0.4477539,1-1s-0.4477539-1-1-1H16.9998131    c-0.5522461,0-1,0.4477539-1,1S16.447567,44.3042946,16.9998131,44.3042946z"/></g><g><path d="M108.4075317,21.9961891c-20.3548431,0.4067593-22.40625-0.9046612-22.40625,1c0,0.5522461,0.4477539,1,1,1h21.40625    C109.7297516,23.9961891,109.7314224,21.9961891,108.4075317,21.9961891z"/></g><g><path d="M108.4075317,18.2642555c1.3222198,0,1.3238907-2,0-2c-20.3548431,0.4067593-22.40625-0.9046621-22.40625,1    C86.0012817,19.1512585,87.9137192,17.8547192,108.4075317,18.2642555z"/></g><g><path d="M108.4075317,48.0362282h-21.40625c-0.5522461,0-1,0.4477539-1,1s0.4477539,1,1,1h21.40625c0.5522461,0,1-0.4477539,1-1    S108.9597778,48.0362282,108.4075317,48.0362282z"/></g><g><path d="M108.4075317,42.3042946h-21.40625c-0.5522461,0-1,0.4477539-1,1s0.4477539,1,1,1h21.40625c0.5522461,0,1-0.4477539,1-1    S108.9597778,42.3042946,108.4075317,42.3042946z"/></g><g><path d="M47.52911,50.3008766c2.2773438,0,4.1298828-1.8515625,4.1298828-4.1269531    c0-2.2807617-1.8525391-4.1362305-4.1298828-4.1362305c-2.2719727,0-4.1201172,1.8554688-4.1201172,4.1362305    C43.4089928,48.4493141,45.2571373,50.3008766,47.52911,50.3008766z M47.52911,44.037693    c1.1743164,0,2.1298828,0.9584961,2.1298828,2.1362305c0,1.1728516-0.9555664,2.1269531-2.1298828,2.1269531    c-1.1689453,0-2.1201172-0.9541016-2.1201172-2.1269531C45.4089928,44.9961891,46.3601646,44.037693,47.52911,44.037693z"/></g><g><path d="M59.77911,50.3008766c2.2773438,0,4.1298828-1.8515625,4.1298828-4.1269531    c0-2.2807617-1.8525391-4.1362305-4.1298828-4.1362305c-2.2719727,0-4.1201172,1.8554688-4.1201172,4.1362305    C55.6589928,48.4493141,57.5071373,50.3008766,59.77911,50.3008766z M59.77911,44.037693    c1.1743164,0,2.1298828,0.9584961,2.1298828,2.1362305c0,1.1728516-0.9555664,2.1269531-2.1298828,2.1269531    c-1.1689453,0-2.1201172-0.9541016-2.1201172-2.1269531C57.6589928,44.9961891,58.6101646,44.037693,59.77911,44.037693z"/></g><g><path d="M138.9998169,29.7271461c1.888855,0,0.607132-2.2952156,1-18.7250977c0-0.5522461-0.4477539-1-1-1    c-59.0525284,0.4488649-58.90625-0.94485-58.90625,1c0.3920212,16.3946152-0.8872147,18.7250977,1,18.7250977h7.453125v6.5805664    h-7.453125c-0.5522461,0-1,0.4477539-1,1v17.7250977c0,0.5522461,0.4477539,1,1,1h49.6489258v49.932621h-15.1992188v-7.8637695    c0-1.7352982-2.5149765-0.6988907-7.6791992-1v-3.449707h6.6791992c0.5522461,0,1-0.4477539,1-1    c-0.3920288-16.3946152,0.887207-18.7250977-1-18.7250977c-81.9638596,0.4582443-80.0874023-0.942131-80.0874023,1v17.7250977    c0,0.5522461,0.4477539,1,1,1h6.6791992v3.449707h-6.6791992c-0.5522461,0-1,0.4477539-1,1v7.9074707    c-0.4259644-0.0969086,1.3580856-0.0139771-16.4560547-0.0437012v-49.932621h50.9062538c0.5522461,0,1-0.4477539,1-1V37.3077126    c0-0.5522461-0.4477539-1-1-1h-7.4531288v-6.5805664c5.9503441-0.3151836,8.4531288,0.7492847,8.4531288-1    c-0.3920288-16.3946133,0.887207-18.7250977-1-18.7250977c-59.0525284,0.4488649-58.9062538-0.94485-58.9062538,1    c0.3920279,16.3946152-0.8872137,18.7250977,1,18.7250977h7.453125v6.5805664c-5.9503393,0.3151855-8.453125-0.7492828-8.453125,1    v17.7250977c0,0.5522461,0.4477539,1,1,1h5v50.932621c0,0.5522461,0.4477539,1,1,1    c18.8539886-0.0296555,17.0384521,0.0513,17.4560547-0.0437012c0.324585,6.4554138-0.7521133,8.9050293,1,8.9050293h6.6791992    v3.4501953c-5.1669273,0.3012695-7.6791992-0.7362213-7.6791992,1c0.3920288,16.3946152-0.8872147,18.72509,1,18.72509    c81.9638519-0.4582367,80.0878906,0.9423981,80.0878906-1c-0.3920288-16.3946075,0.887207-18.72509-1-18.72509h-6.6796875    v-3.4501953c5.1669235-0.3012695,7.6791992,0.7362137,7.6791992-1v-7.8613281h16.1992188c0.5522461,0,1-0.4477539,1-1v-50.932621    h6.2573242c0.5522461,0,1-0.4477539,1-1V37.3077126c0-0.5522461-0.4477539-1-1-1h-7.453125v-6.5805664H138.9998169z     M11.9998131,12.0020494h55.9062538v15.7250967H11.9998131V12.0020494z M20.4529381,29.7271461h39v6.5805664h-39V29.7271461z     M11.9998131,38.3077126h55.9062538v15.7250977H11.9998131V38.3077126z M36.4558678,75.926857h77.0874023v15.7250977H36.4558678    V75.926857z M44.135067,93.6519547h61.7290077v3.449707H44.135067V93.6519547z M113.5437622,138.0020447H36.4558678v-15.72509    h77.0878906V138.0020447z M105.8640747,120.2769547H44.135067v-3.4501953h61.7290077V120.2769547z M36.4558678,114.8267593    V99.1016617h77.0874023c0,3.5832214,0,10.6108932,0,15.7250977H36.4558678z M82.0935669,12.0020494h55.90625v15.7250967h-55.90625    V12.0020494z M137.9998169,54.0328102h-55.90625V38.3077126h55.90625V54.0328102z M129.5466919,36.3077126h-39v-6.5805664h39    V36.3077126z"/></g><g><path d="M117.6228638,23.9952126c2.2773438,0,4.1298828-1.8515625,4.1298828-4.1269531    c0-2.2807617-1.8525391-4.1362295-4.1298828-4.1362295c-2.2719727,0-4.1201172,1.8554678-4.1201172,4.1362295    C113.5027466,22.1436501,115.3508911,23.9952126,117.6228638,23.9952126z M119.7527466,19.8682594    c0,2.807539-4.25,2.8195267-4.25,0C115.5027466,17.034483,119.7527466,17.0505257,119.7527466,19.8682594z"/></g><g><path d="M129.8728638,23.9952126c2.2773438,0,4.1298828-1.8515625,4.1298828-4.1269531    c0-2.2807617-1.8525391-4.1362295-4.1298828-4.1362295c-2.2719727,0-4.1201172,1.8554678-4.1201172,4.1362295    C125.7527466,22.1436501,127.6008911,23.9952126,129.8728638,23.9952126z M132.0027466,19.8682594    c0,2.807539-4.25,2.8195267-4.25,0C127.7527466,17.034483,132.0027466,17.0505257,132.0027466,19.8682594z"/></g><g><path d="M117.6228638,42.037693c-2.2719727,0-4.1201172,1.8554688-4.1201172,4.1362305    c0,2.2753906,1.8481445,4.1269531,4.1201172,4.1269531c2.2773438,0,4.1298828-1.8515625,4.1298828-4.1269531    C121.7527466,43.8931618,119.9002075,42.037693,117.6228638,42.037693z M117.6228638,48.3008766    c-1.1689453,0-2.1201172-0.9541016-2.1201172-2.1269531c0-1.1777344,0.9511719-2.1362305,2.1201172-2.1362305    c1.1743164,0,2.1298828,0.9584961,2.1298828,2.1362305C119.7527466,47.3467751,118.7971802,48.3008766,117.6228638,48.3008766z"/></g><g><path d="M125.7527466,46.1739235c0,2.2753906,1.8481445,4.1269531,4.1201172,4.1269531    c2.2773438,0,4.1298828-1.8515625,4.1298828-4.1269531c0-2.2807617-1.8525391-4.1362305-4.1298828-4.1362305    C127.6008911,42.037693,125.7527466,43.8931618,125.7527466,46.1739235z M132.0027466,46.1739235    c0,1.1728516-0.9555664,2.1269531-2.1298828,2.1269531c-1.1689453,0-2.1201172-0.9541016-2.1201172-2.1269531    c0-1.1777344,0.9511719-2.1362305,2.1201172-2.1362305C131.0471802,44.037693,132.0027466,44.9961891,132.0027466,46.1739235z"/></g></g><text x="0" y="165" fill="#000000" font-size="5px" font-weight="bold" font-family="'Helvetica Neue', Helvetica, Arial-Unicode, Arial, Sans-serif">Created by Dinosoft Labs</text><text x="0" y="170" fill="#000000" font-size="5px" font-weight="bold" font-family="'Helvetica Neue', Helvetica, Arial-Unicode, Arial, Sans-serif">from the Noun Project</text></svg>