<svg xmlns="http://www.w3.org/2000/svg" xmlns:xlink="http://www.w3.org/1999/xlink" version="1.1" x="0px" y="0px" viewBox="0 0 150 187.5" style="enable-background:new 0 0 150 150;" xml:space="preserve"><style type="text/css">
	.st0{fill:none;}
	.st1{fill:none;stroke:#000000;stroke-width:2;stroke-linecap:round;stroke-linejoin:round;stroke-miterlimit:10;}
</style><g><g><path d="M126.8134766,94.6494141V55.3789063c4.2907715-0.4975586,7.6347656-4.1450195,7.6347656-8.5634766    c0-4.7617188-3.8740234-8.6357422-8.6347656-8.6357422c-2.7385254,0-5.307251,1.324707-6.9274902,3.5039063L82.9263916,22.0258789    C85.3832626,16.316473,81.1561813,10,74.9951172,10c-4.7568359,0-8.6259766,3.8691406-8.6259766,8.6259766    c0,1.171875,0.2438965,2.3266602,0.7001953,3.3974609L31.1069336,41.6826172    c-4.9511681-6.6875267-15.5551758-3.1525879-15.5551758,5.1328125c0,4.4179688,3.3393555,8.0654297,7.6259766,8.5629883    v39.2714844c-4.2866211,0.4975586-7.6259766,4.1450195-7.6259766,8.5629883    c0,8.3198853,10.6564121,11.8094101,15.5686035,5.1079102l35.9486084,19.6459961    C64.6258392,133.7025452,68.8521881,140,74.9951172,140c6.1785431,0,10.3814545-6.3424683,7.9312744-12.0356445    l35.9466553-19.6455078c4.9379425,6.7072983,15.5751953,3.1969452,15.5751953-5.105957    C134.4482422,98.7944336,131.104248,95.1469727,126.8134766,94.6494141z M118.8764648,98.0844727l-7.5821533-4.1274414    c2.9487305-5.7202148,4.5201416-12.1333008,4.5201416-18.6289063c0-6.644043-1.6391602-13.1914063-4.7141113-19.015625    l7.789917-4.3496094c1.3172226,1.7921371,3.5682907,3.1455612,5.9232178,3.4199219v39.2626953    C122.5744171,94.9063721,120.298912,96.1672592,118.8764648,98.0844727z M40.8984375,93.8847656    c-3.0908203-5.6435547-4.7246094-12.0605469-4.7246094-18.5566406c0-21.5950089,17.5788727-38.8261719,38.8261719-38.8261719    c21.2270126,0,38.8144531,17.2147789,38.8144531,38.8261719c0,6.4960938-1.6337891,12.9130859-4.7255859,18.5585938    C94.3733673,120.9141998,55.6154404,120.872879,40.8984375,93.8847656z M31.1166992,98.0834961    c-1.4454384-1.9272537-3.6577682-3.1696091-5.9389648-3.4379883V55.3828125    c2.2503757-0.2647514,4.4972992-1.501194,5.9260254-3.4189453l7.7895508,4.3491211    c-3.0786133,5.8330078-4.7194824,12.378418-4.7194824,19.0151367c0,6.4956055,1.5712891,12.9082031,4.519043,18.6264648    L31.1166992,98.0834961z M125.8134766,40.1796875c3.6582031,0,6.6347656,2.9765625,6.6347656,6.6357422    c0,6.7513771-8.9844818,9.1515045-12.3759766,3.3183594c-1.1782455-2.0445404-1.180748-4.5878372,0-6.6367188    c0.0003662-0.0004883,0.0002441-0.0014648,0.0006104-0.0019531    C121.2600098,41.4506836,123.4584961,40.1796875,125.8134766,40.1796875z M117.8950195,50.2285156l-7.7724609,4.3398438    c-7.1630859-12.1083984-20.0753174-19.6884766-34.1264648-20.0327148v-7.3334961    c2.421814-0.2935524,4.602417-1.6319523,5.9375-3.4394531l35.9482422,19.6513672    C117.0005112,45.4877625,116.913826,47.9399338,117.8950195,50.2285156z M74.9951172,12    c5.1314392,0,8.2870026,5.5828609,5.7431641,9.9443359c-3.389389,5.8878708-12.3691406,3.3632393-12.3691406-3.3183594    C68.3691406,14.9726563,71.3417969,12,74.9951172,12z M68.0595703,23.7617188    c1.3153152,1.7784557,3.488884,3.139843,5.9365234,3.4404297v7.3339844    c-14.0506592,0.3466797-26.9631348,7.9267578-34.1252441,20.0322266l-7.7702637-4.3378906    c1.0068512-2.3288078,0.8624725-4.8612976,0.0126953-6.8183594L68.0595703,23.7617188z M17.5517578,46.8154297    c0-6.789566,9.0136452-9.1484032,12.3701172-3.3134766c2.5479965,4.3619003-0.6227589,9.9394531-5.7441406,9.9394531    C20.5244141,53.4414063,17.5517578,50.46875,17.5517578,46.8154297z M17.5517578,103.2128906    c0-6.7521057,8.9684258-9.1431122,12.3548584-3.3374023c0.0814419,0.1949539,0.9058838,1.4104843,0.9058838,3.3374023    c0,1.1767578-0.296875,2.2832031-0.8867188,3.2958984C26.5784798,112.3916702,17.5517578,109.988472,17.5517578,103.2128906z     M32.1113281,99.8188477l7.5424805-4.1103516c7.121582,12.331543,20.1174316,20.0507813,34.3422852,20.3999023v6.6894531    c-2.3976288,0.2970505-4.5727921,1.6016617-5.9355469,3.4316406l-35.9394531-19.6416016    C32.9709778,104.5994797,33.0974312,102.1167603,32.1113281,99.8188477z M74.9951172,138    c-5.1294861,0-8.2566681-5.5852203-5.7441406-9.9501953c2.0190353-3.4708176,5.6593933-3.2827454,5.7593994-3.3105469    c3.6482468,0.0122757,6.6204834,2.9663239,6.6204834,6.625C81.6308594,135.0234375,78.6542969,138,74.9951172,138z     M81.9326172,126.2285156c-1.321907-1.8008575-3.5207291-3.1352844-5.9365234-3.4306641v-6.6889648    c14.2319336-0.3466797,27.2255859-8.0664063,34.3376465-20.3979492l7.5500488,4.1098633    c-0.9631958,2.266098-0.8802032,4.7100525-0.0107422,6.7651367L81.9326172,126.2285156z M125.8134766,109.8476563    c-3.580101,0-6.6259766-2.9102402-6.6259766-6.6347656c0-1.7674789,0.6254654-2.6977997,0.8994141-3.3413086    c3.4165649-5.8073959,12.3613281-3.3922958,12.3613281,3.3413086    C132.4482422,106.8710938,129.4716797,109.8476563,125.8134766,109.8476563z"/></g><g><path d="M95.3964844,86.5507813c0.8251953-1.4970703,1.4824219-3.0869141,1.9609375-4.7402344    c6.474884-1.70224,8.1386719-1.1897583,8.1386719-2.6083984c-0.2595978-6.892128,0.6042023-8.4276962-0.7832031-8.7353516    l-7.3554688-1.6318359c-0.4785156-1.6533203-1.1357422-3.2431641-1.9609375-4.7402344    c3.3736115-5.7793388,4.9133453-6.5954704,3.9091797-7.5966797c-5.0103455-4.6443558-5.5209656-6.3923454-6.7304688-5.6240234    l-6.3525391,4.0458984c-1.4980469-0.8251953-3.0888672-1.4824219-4.7412109-1.9609375    c-1.6902313-6.4329185-1.1933899-8.1396484-2.6074219-8.1396484c-6.9148331,0.2612038-8.4305191-0.5929222-8.7363281,0.7832031    l-1.6308594,7.3564453c-1.6542969,0.4785156-3.2441406,1.1357422-4.7412109,1.9609375l-6.3525391-4.0458984    c-1.1945076-0.756916-1.6197395,0.8857117-6.7314453,5.6240234c-1.000061,0.9971199,0.5247421,1.7984543,3.9101563,7.5966797    c-0.8251953,1.4970703-1.4824219,3.0859375-1.9609375,4.7402344l-7.3564453,1.6318359    c-1.3856735,0.3072739-0.5226898,1.8188477-0.7832031,8.7353516c0,1.4108353,1.6248169,0.8958588,8.1396484,2.6083984    c0.4785156,1.6542969,1.1367188,3.2441406,1.9609375,4.7402344c-3.3736115,5.779335-4.9133415,6.5954666-3.9091797,7.5966797    l5.4863281,5.4873047c0.9965553,0.9965515,1.7865257-0.5173187,7.5966797-3.9101563    c1.4960938,0.8242188,3.0869141,1.4824219,4.7412109,1.9609375l1.6308594,7.3564453    c0.306778,1.3804932,1.7845383,0.520607,8.7363281,0.7832031c1.411171,0,0.896843-1.6292953,2.6074219-8.1396484    c1.6533203-0.4785156,3.2431641-1.1357422,4.7412109-1.9609375c5.7053833,3.3316574,6.5869675,4.9198685,7.5966797,3.9101563    c4.6894913-5.0574188,6.387886-5.5308228,5.6230469-6.7314453L95.3964844,86.5507813z M92.9726563,97.6533203    c-10.4093933-6.2529984-3.531723-4.1032639-12.5898438-1.7392578c-1.0429077,0.2719421-0.6034622,1.0583344-2.3115234,7.9111328    h-6.1542969c-2.9437561-11.8104401,0.4141006-5.3845139-7.6748047-10.1298828    c-0.3232422-0.1894531-0.7265625-0.1816406-1.0429688,0.0185547l-6.1835938,3.9394531l-4.3515625-4.3525391    c6.2496147-10.4022903,4.1048355-3.5342255,1.7382813-12.5888672c-0.2717438-1.04216-1.0652122-0.6052933-7.9111328-2.3125    v-6.1533203l7.1601563-1.5888672c1.244915-0.278862,0.4082947-1.7197418,2.9697266-6.0859375    c0.547081-0.9286346-0.327282-1.1847572-3.9580078-7.2265625l4.3525391-4.3525391    c10.4096527,6.2525673,3.5285378,4.1028748,12.5898438,1.7392578c1.0442047-0.2730103,0.6053009-1.0692825,2.3115234-7.9121094    h6.1542969c1.6469879,6.6052704,1.2634811,7.638092,2.3115234,7.9121094    c4.8650055,1.2678185,5.3409653,2.8765259,6.40625,2.1992188l6.1835938-3.9384766l4.3515625,4.3525391l-3.9384766,6.1835938    c-0.6850891,1.0775146,0.904541,1.4372177,2.1992188,6.4052734c0.2727661,1.043251,1.071991,0.6061325,7.9111328,2.3125v6.1533203    l-7.1601563,1.5888672c-1.2454529,0.2789841-0.4073181,1.717186-2.96875,6.0859375    c-0.1904297,0.3232422-0.1826172,0.7265625,0.0185547,1.0429688l3.9384766,6.1835938L92.9726563,97.6533203z"/></g><g><path d="M74.9941406,58.703125c-9.1640625,0-16.6201172,7.4550781-16.6201172,16.6191406    s7.4560547,16.6201172,16.6201172,16.6201172s16.6201172-7.4560547,16.6201172-16.6201172    S84.1582031,58.703125,74.9941406,58.703125z M74.9941406,89.9423828c-8.0615234,0-14.6201172-6.5585938-14.6201172-14.6201172    c0-8.0605469,6.5585938-14.6191406,14.6201172-14.6191406s14.6201172,6.5585938,14.6201172,14.6191406    C89.6142578,83.3837891,83.0556641,89.9423828,74.9941406,89.9423828z"/></g></g><text x="0" y="165" fill="#000000" font-size="5px" font-weight="bold" font-family="'Helvetica Neue', Helvetica, Arial-Unicode, Arial, Sans-serif">Created by Dinosoft Labs</text><text x="0" y="170" fill="#000000" font-size="5px" font-weight="bold" font-family="'Helvetica Neue', Helvetica, Arial-Unicode, Arial, Sans-serif">from the Noun Project</text></svg>