<svg xmlns="http://www.w3.org/2000/svg" xmlns:xlink="http://www.w3.org/1999/xlink" version="1.1" x="0px" y="0px" viewBox="0 0 150 187.5" style="enable-background:new 0 0 150 150;" xml:space="preserve"><style type="text/css">
	.st0{fill:none;}
	.st1{fill:none;stroke:#000000;stroke-width:2;stroke-linecap:round;stroke-linejoin:round;stroke-miterlimit:10;}
</style><g><g><path d="M105.111084,38.5820313l2.7449951-4.7041016c4.6360321,2.8894539,5.7296524,4.1515579,6.4979248,2.9423828    c1.0986328-1.7304688,1.4575195-3.7851563,1.0112305-5.7851563c-0.4467773-2.0009766-1.6459961-3.7070313-3.3754883-4.8056641    l-0.71875-0.4570313h-0.0004883c-5.9656754-3.7895947-12.3790359,2.4135532-10.2836914,3.7431641l5.1796875,3.2895508    l-2.7451172,4.7041016c-8.0437622-4.8520508-17.4205322-7.6982422-27.4381714-7.875l-0.140686-8.0288086h5.4250488    c3.199707,0,5.8027344-2.6035156,5.8027344-5.8027344S84.4672852,10,81.2675781,10H68.3217773    c-3.199707,0-5.8027344,2.6035156-5.8027344,5.8027344s2.6030273,5.8027344,5.8027344,5.8027344h5.5201416l0.140686,8.0297852    c-9.9873657,0.1821289-19.3361816,3.0185547-27.3613892,7.8496094l-2.7814331-4.684082    c3.7710953-2.7409611,6.404335-3.2122688,5.4815063-4.6650391c-2.2675781-3.5712891-7.019043-4.6328125-10.5917969-2.3632813    h-0.0004883l-0.7182617,0.4570313c-1.7299805,1.0986328-2.9291992,2.8046875-3.3759766,4.8056641    c-0.4462891,2-0.0874023,4.0546875,1.0112305,5.7851563c0.2914505,0.4587097,0.9066391,0.6081696,1.3803711,0.3076172    l5.1241455-3.2539063l2.7799683,4.6811523C29.8201294,48.4130859,19.8046875,65.456543,19.8046875,84.8046875    C19.8046875,115.2392578,44.5654297,140,75,140s55.1953125-24.7607422,55.1953125-55.1953125    C130.1953125,65.4741211,120.1982422,48.4438477,105.111084,38.5820313z M105.9204102,26.7128906    c1.4794922-0.3320313,2.9985352-0.0644531,4.277832,0.7470703l0.71875,0.4570313    c2.3817444,1.512682,3.2272873,4.4713402,2.2109375,6.9404297l-10.1508789-6.4472656    C103.7543945,27.5605469,104.7719727,26.96875,105.9204102,26.7128906z M64.519043,15.8027344    C64.519043,13.7060547,66.2250977,12,68.3217773,12h12.9458008c2.0966797,0,3.8027344,1.7060547,3.8027344,3.8027344    s-1.7060547,3.8027344-3.8027344,3.8027344H68.3217773C66.2250977,19.6054688,64.519043,17.8994141,64.519043,15.8027344z     M36.8720703,34.8574219c-1.0176048-2.4721336-0.1683006-5.4296074,2.2114258-6.9404297l0.7182617-0.4570313    c2.4239388-1.5376282,5.4544487-0.980793,7.2211914,0.9501953L36.8720703,34.8574219z M75,138    c-29.3320313,0-53.1953125-23.8632813-53.1953125-53.1953125S45.6679688,31.609375,75,31.609375    s53.1953125,23.8632813,53.1953125,53.1953125S104.3320313,138,75,138z"/></g><g><path d="M118.8610229,102.9414063c2.3207397-5.5913086,3.6087036-11.7158203,3.6087036-18.1367188    s-1.2879028-12.5449219-3.6083984-18.1362305c-0.0037231-0.0097656-0.00177-0.0200195-0.0058594-0.0297852    c-0.003418-0.0083008-0.0107422-0.0131836-0.0144043-0.0214844C101.650856,25.3333263,44.3610725,30.3565941,31.1375732,66.671875    c-13.0657082,31.4866791,10.5512772,65.6015625,43.8623657,65.6015625H75h0.000061c0.0001221,0,0.0003052,0,0.0004272,0    c19.3986816,0,36.5563354-11.7928314,43.8386841-29.2768555c0.0044556-0.0097656,0.012146-0.0170898,0.0162964-0.0268555    C118.859314,102.9604492,118.8574829,102.9506836,118.8610229,102.9414063z M111.9931641,101.2099609l4.6109009,1.909668    c-2.1542969,4.8740234-5.1397705,9.2983398-8.7772217,13.0976563c-4.0527344-3.6222229-5.1110535-6.1650085-6.3449097-4.9311523    c-0.390625,0.390625-0.390625,1.0234375,0,1.4140625l4.9307861,4.9311523    c-3.7994995,3.637207-8.2235107,6.6225586-13.0977783,8.7768555c-1.5679626-3.1087418-1.6500626-5.7969971-3.2163086-5.1513672    c-1.5642548,0.6466599,0.2858734,2.6285858,1.3688965,5.9174805C86.6524658,129.0522461,81.4437866,130.1298828,76,130.2480469    v-6.9931641c0-1.3238754-2-1.3225403-2,0v6.9931641c-5.4439087-0.1186523-10.6526489-1.1958008-15.4678345-3.0742188    c1.0862236-3.2977905,2.9335632-5.2702866,1.3692017-5.9169922c-1.572979-0.6508865-1.6824799,2.1120682-3.2165527,5.1508789    c-4.8742065-2.1542969-9.2981567-5.1396484-13.0975952-8.7768555c3.6221695-4.0527802,6.1647034-5.1108704,4.9308472-6.3447266    c-1.2303886-1.2303848-2.2479782,1.2692566-6.3449707,4.9306641c-3.637207-3.7988281-6.6225586-8.2226563-8.7768555-13.0966797    c3.0998268-1.5640945,5.7998276-1.6509018,5.1516113-3.2167969c-0.6484642-1.5635071-2.6290894,0.2862549-5.9180298,1.3691406    c-1.8782349-4.8149414-2.9556885-10.0239258-3.0741577-15.4677734h6.9931641c0.5522461,0,1-0.4472656,1-1s-0.4477539-1-1-1    h-6.9931641c0.1184692-5.4438477,1.1958618-10.652832,3.0739746-15.4682617l4.6115723,1.9106445    c0.125,0.0517578,0.2548828,0.0761719,0.3823242,0.0761719c0.3925781,0,0.7646484-0.2324219,0.9243164-0.6171875    c0.2114258-0.5107422-0.0307617-1.0957031-0.5410156-1.3066406l-4.6108398-1.9101563    c2.1543579-4.8740234,5.1398315-9.2983398,8.7772217-13.0976563l4.9307861,4.9306641    c0.1953125,0.1953125,0.4511719,0.2929688,0.7070313,0.2929688s0.5117188-0.0976563,0.7070313-0.2929688    c0.390625-0.390625,0.390625-1.0234375,0-1.4140625l-4.9307861-4.9306641    c3.7993774-3.637207,8.2233276-6.6225586,13.0974121-8.7768555l1.9095459,4.6108398    c0.159668,0.3847656,0.5317383,0.6171875,0.9243164,0.6171875c0.1274414,0,0.2568359-0.0244141,0.3823242-0.0761719    c1.5642509-0.646656-0.2859268-2.6290359-1.3688354-5.9179688C63.347229,40.5561523,68.5560913,39.4790039,74,39.3603516    c0.3082657,5.5030327-0.7390671,7.9931641,1,7.9931641c1.7399139,0,0.6923981-2.5019989,1-7.9931641    c5.4439087,0.1181641,10.652771,1.1958008,15.4678955,3.0737305c-1.0860062,3.297863-2.9348526,5.271244-1.3692627,5.918457    c0.1254883,0.0517578,0.2548828,0.0761719,0.3823242,0.0761719c1.167366,0,1.0217972-1.3472366,2.8342896-5.2280273    c4.8743286,2.1538086,9.2984619,5.1396484,13.0979004,8.7768555l-4.9312134,4.9316406    c-0.390625,0.390625-0.390625,1.0234375,0,1.4140625c0.1953125,0.1953125,0.4511719,0.2929688,0.7070313,0.2929688    s0.5117188-0.0976563,0.7070313-0.2929688l4.9312134-4.9316406c3.637207,3.7993164,6.6225586,8.2236328,8.7767944,13.0976563    l-4.6108398,1.9101563c-0.5102539,0.2109375-0.7524414,0.7958984-0.5410156,1.3066406    c0.159668,0.3847656,0.5317383,0.6171875,0.9243164,0.6171875c0.1274414,0,0.2573242-0.0244141,0.3823242-0.0761719    l4.6115112-1.9106445c1.8781128,4.8154297,2.9555664,10.0239258,3.0740356,15.4682617h-6.9936523c-0.5522461,0-1,0.4472656-1,1    s0.4477539,1,1,1h6.9936523c-0.1184692,5.4438477-1.1958618,10.6523438-3.0739136,15.4672852l-4.6116333-1.909668    c-0.5126953-0.2109375-1.0957031,0.03125-1.3066406,0.5410156    C111.2407227,100.4140625,111.4829102,100.9990234,111.9931641,101.2099609z"/></g><g><path d="M106.6733398,80.0351563h-5.0859375c-0.6821289-3.8193359-2.1948242-7.4736328-4.4140625-10.6601563l3.5952148-3.5947266    c0.390625-0.390625,0.390625-1.0234375,0-1.4140625l-5.3300781-5.3310547c-0.1875-0.1875-0.4418945-0.2929688-0.7070313-0.2929688    s-0.5195313,0.1054688-0.7070313,0.2929688l-3.5957031,3.5957031c-3.1850586-2.2177734-6.8388672-3.7314453-10.6591797-4.4140625    v-5.0859375c0-0.5527344-0.4477539-1-1-1h-7.5390625c-0.5522461,0-1,0.4472656-1,1v5.0859375    c-3.8203125,0.6826172-7.4741211,2.1962891-10.6591797,4.4140625l-3.5957031-3.5957031c-0.375-0.375-1.0390625-0.375-1.4140625,0    l-5.3300781,5.3310547c-0.390625,0.390625-0.390625,1.0234375,0,1.4140625L52.8266602,69.375    c-2.2192383,3.1865234-3.7319336,6.8408203-4.4140625,10.6601563h-5.0859375c-0.5522461,0-1,0.4472656-1,1v7.5380859    c0,0.5527344,0.4477539,1,1,1h5.0859375c0.6821289,3.8203125,2.1948242,7.4736328,4.4140625,10.6591797l-3.5952148,3.5957031    c-0.390625,0.390625-0.390625,1.0234375,0,1.4140625c5.5305328,5.3887711,5.3021812,5.6240234,6.0371094,5.6240234    c0.2651367,0,0.5195313-0.1054688,0.7070313-0.2929688l3.5957031-3.5957031    c3.1865234,2.21875,6.8398438,3.7314453,10.6591797,4.4140625c0.2670288,3.6294861-0.6846848,6.0859375,1,6.0859375    c6.0736542-0.3181305,8.5390625,0.7496109,8.5390625-1v-5.0859375c3.8193359-0.6826172,7.4726563-2.1953125,10.6591797-4.4140625    l3.5957031,3.5957031c0.375,0.375,1.0390625,0.375,1.4140625,0l5.3300781-5.3310547    c0.390625-0.390625,0.390625-1.0234375,0-1.4140625l-3.5952148-3.5957031    c2.2192383-3.1855469,3.7319336-6.8388672,4.4140625-10.6591797h5.0859375c0.5522461,0,1-0.4472656,1-1v-7.5380859    C107.6733398,80.4824219,107.2255859,80.0351563,106.6733398,80.0351563z M105.6733398,87.5732422h-4.9370117    c-0.496582,0-0.918457,0.3642578-0.9897461,0.8564453c-0.5927734,4.0869141-2.2124023,7.9980469-4.6835938,11.3105469    c-0.296875,0.3974609-0.2563477,0.953125,0.0947266,1.3046875l3.4897461,3.4902344l-3.9160156,3.9169922l-3.4902344-3.4902344    c-0.3515625-0.3525391-0.9072266-0.3916016-1.3046875-0.0947266c-3.3134766,2.4707031-7.2246094,4.0898438-11.3110352,4.6845703    c-0.4912109,0.0712891-0.855957,0.4921875-0.855957,0.9892578v4.9365234h-5.5390625v-4.9365234    c0-0.4970703-0.3647461-0.9179688-0.855957-0.9892578c-4.0864258-0.5947266-7.9975586-2.2138672-11.3110352-4.6845703    c-0.3974609-0.2958984-0.953125-0.2558594-1.3046875,0.0947266l-3.4902344,3.4902344l-3.9160156-3.9169922l3.4897461-3.4902344    c0.3510742-0.3515625,0.3916016-0.9072266,0.0947266-1.3046875c-2.4711914-3.3125-4.0908203-7.2236328-4.6835938-11.3105469    c-0.0712891-0.4921875-0.4931641-0.8564453-0.9897461-0.8564453h-4.9370117v-5.5380859h4.9370117    c0.496582,0,0.918457-0.3642578,0.9897461-0.8564453c0.5927734-4.0869141,2.2124023-7.9980469,4.6835938-11.3115234    c0.296875-0.3984375,0.2563477-0.9541016-0.0947266-1.3046875l-3.4897461-3.4892578l3.9160156-3.9169922l3.4902344,3.4902344    c0.3505859,0.3505859,0.9057617,0.390625,1.3046875,0.0947266c3.3120117-2.4707031,7.2231445-4.0898438,11.3110352-4.6845703    c0.4912109-0.0712891,0.855957-0.4921875,0.855957-0.9892578v-4.9365234h5.5390625v4.9365234    c0,0.4970703,0.3647461,0.9179688,0.855957,0.9892578c4.0878906,0.5947266,7.9990234,2.2138672,11.3110352,4.6845703    c0.3984375,0.296875,0.9541016,0.2578125,1.3046875-0.0947266l3.4902344-3.4902344l3.9160156,3.9169922L95.1577148,68.5625    c-0.3510742,0.3505859-0.3916016,0.90625-0.0947266,1.3046875c2.4711914,3.3134766,4.0908203,7.2246094,4.6835938,11.3115234    c0.0712891,0.4921875,0.4931641,0.8564453,0.9897461,0.8564453h4.9370117V87.5732422z"/></g><g><path d="M75,65.1142578c-10.8569336,0-19.6894531,8.8330078-19.6894531,19.6904297    c0,10.8564453,8.8325195,19.6894531,19.6894531,19.6894531s19.6894531-8.8330078,19.6894531-19.6894531    C94.6894531,73.9472656,85.8569336,65.1142578,75,65.1142578z M75,102.4941406    c-9.7539063,0-17.6894531-7.9355469-17.6894531-17.6894531c0-9.7548828,7.9355469-17.6904297,17.6894531-17.6904297    s17.6894531,7.9355469,17.6894531,17.6904297C92.6894531,94.5585938,84.7539063,102.4941406,75,102.4941406z"/></g></g><text x="0" y="165" fill="#000000" font-size="5px" font-weight="bold" font-family="'Helvetica Neue', Helvetica, Arial-Unicode, Arial, Sans-serif">Created by Dinosoft Labs</text><text x="0" y="170" fill="#000000" font-size="5px" font-weight="bold" font-family="'Helvetica Neue', Helvetica, Arial-Unicode, Arial, Sans-serif">from the Noun Project</text></svg>