<svg xmlns="http://www.w3.org/2000/svg" xmlns:xlink="http://www.w3.org/1999/xlink" version="1.1" x="0px" y="0px" viewBox="0 0 150 187.5" style="enable-background:new 0 0 150 150;" xml:space="preserve"><style type="text/css">
	.st0{fill:none;}
	.st1{fill:none;stroke:#000000;stroke-width:2;stroke-linecap:round;stroke-linejoin:round;stroke-miterlimit:10;}
</style><g><g><path d="M125.7167969,29.5634766c3.1943359,0,5.7929688-2.5654297,5.7929688-5.71875    c0-3.1464844-2.5986328-5.7060547-5.7929688-5.7060547s-5.7929688,2.5595703-5.7929688,5.7060547    C119.9238281,26.9980469,122.5224609,29.5634766,125.7167969,29.5634766z M125.7167969,20.1386719    c2.0917969,0,3.7929688,1.6621094,3.7929688,3.7060547c0,2.0507813-1.7011719,3.71875-3.7929688,3.71875    s-3.7929688-1.6679688-3.7929688-3.71875C121.9238281,21.8007813,123.625,20.1386719,125.7167969,20.1386719z"/></g><g><path d="M108.0839844,29.5634766c3.1943359,0,5.7939453-2.5654297,5.7939453-5.71875    c0-3.1464844-2.5996094-5.7060547-5.7939453-5.7060547s-5.7929688,2.5595703-5.7929688,5.7060547    C102.2910156,26.9980469,104.8896484,29.5634766,108.0839844,29.5634766z M108.0839844,20.1386719    c2.0917969,0,3.7939453,1.6621094,3.7939453,3.7060547c0,2.0507813-1.7021484,3.71875-3.7939453,3.71875    s-3.7929688-1.6679688-3.7929688-3.71875C104.2910156,21.8007813,105.9921875,20.1386719,108.0839844,20.1386719z"/></g><g><path d="M92.6328125,29.1796875h2.8300781c0.5527344,0,1-0.4472656,1-1s-0.4472656-1-1-1h-2.8300781c-0.5527344,0-1,0.4472656-1,1    S92.0800781,29.1796875,92.6328125,29.1796875z"/></g><g><path d="M82.1835938,29.1796875h2.8300781c0.5527344,0,1-0.4472656,1-1s-0.4472656-1-1-1h-2.8300781c-0.5527344,0-1,0.4472656-1,1    S81.6308594,29.1796875,82.1835938,29.1796875z"/></g><g><path d="M75.3466797,28.1796875c0-0.5527344-0.4472656-1-1-1H19.4902344c-0.5527344,0-1,0.4472656-1,1s0.4472656,1,1,1h54.8564453    C74.8994141,29.1796875,75.3466797,28.7324219,75.3466797,28.1796875z"/></g><g><path d="M92.6328125,20.5214844h2.8300781c0.5527344,0,1-0.4472656,1-1s-0.4472656-1-1-1h-2.8300781c-0.5527344,0-1,0.4472656-1,1    S92.0800781,20.5214844,92.6328125,20.5214844z"/></g><g><path d="M82.1835938,20.5214844h2.8300781c0.5527344,0,1-0.4472656,1-1s-0.4472656-1-1-1h-2.8300781c-0.5527344,0-1,0.4472656-1,1    S81.6308594,20.5214844,82.1835938,20.5214844z"/></g><g><path d="M19.4902344,20.5214844h54.8564453c0.5527344,0,1-0.4472656,1-1s-0.4472656-1-1-1H19.4902344    c-0.5527344,0-1,0.4472656-1,1S18.9375,20.5214844,19.4902344,20.5214844z"/></g><g><path d="M125.9462891,73.5498047C133.6953125,73.5498047,140,67.3369141,140,59.6992188    s-6.3046875-13.8515625-14.0537109-13.8515625h-5.8564453v-8.1455078h5.8564453    C133.6953125,37.7021484,140,31.4882813,140,23.8505859S133.6953125,10,125.9462891,10H24.0537109    C16.3046875,10,10,16.2128906,10,23.8505859s6.3046875,13.8515625,14.0537109,13.8515625h5.8564453v8.1455078h-5.8564453    C16.3046875,45.8476563,10,52.0615234,10,59.6992188s6.3046875,13.8505859,14.0537109,13.8505859h5.8564453v8.1464844h-5.8564453    C16.3046875,81.6962891,10,87.9091797,10,95.546875s6.3046875,13.8515625,14.0537109,13.8515625H73.34375v19.5048828    c-2.4348145,0.4301758-4.333374,2.3969727-4.6246338,4.8466797H35.8203125c-0.5527344,0-1,0.4472656-1,1s0.4472656,1,1,1    h33.0327148c0.6220703,2.4438477,2.8688965,4.25,5.4907227,4.25c2.6262207,0,4.8751221-1.8125,5.4914551-4.25h33.0427246    c0.5527344,0,1-0.4472656,1-1s-0.4472656-1-1-1H79.9693604c-0.2912598-2.449707-2.1906738-4.4165039-4.6256104-4.8466797    v-19.5048828h50.6025391C133.6953125,109.3984375,140,103.1845703,140,95.546875s-6.3046875-13.8505859-14.0537109-13.8505859    h-5.8564453v-8.1464844H125.9462891z M78.0117188,134.4052734c0,0.0869141,0.0019531,0.1679688-0.0078125,0.2666016    C77.8583984,136.5380859,76.25,138,74.34375,138s-3.5146484-1.4619141-3.6611328-3.3369141    c-0.0068359-0.0839844-0.0058594-0.1669922-0.0058594-0.2578125c0-1.9824219,1.6445313-3.5947266,3.6669922-3.5947266    S78.0117188,132.4228516,78.0117188,134.4052734z M12,23.8505859C12,17.3164063,17.4072266,12,24.0537109,12h101.8925781    C132.5927734,12,138,17.3164063,138,23.8505859c0,6.5351563-5.4072266,11.8515625-12.0537109,11.8515625H24.0537109    C17.4072266,35.7021484,12,30.3857422,12,23.8505859z M31.9101563,37.7021484h86.1796875v8.1455078H31.9101563V37.7021484z     M12,59.6992188c0-6.5351563,5.4072266-11.8515625,12.0537109-11.8515625h101.8925781    C132.5927734,47.8476563,138,53.1640625,138,59.6992188c0,6.5341797-5.4072266,11.8505859-12.0537109,11.8505859H24.0537109    C17.4072266,71.5498047,12,66.2333984,12,59.6992188z M138,95.546875c0,6.5351563-5.4072266,11.8515625-12.0537109,11.8515625    H24.0537109C17.4072266,107.3984375,12,102.0820313,12,95.546875c0-6.5341797,5.4072266-11.8505859,12.0537109-11.8505859    h101.8925781C132.5927734,83.6962891,138,89.0126953,138,95.546875z M118.0898438,81.6962891H31.9101563v-8.1464844h86.1796875    V81.6962891z"/></g><g><path d="M125.7167969,65.4111328c3.1943359,0,5.7929688-2.5654297,5.7929688-5.71875    c0-3.1464844-2.5986328-5.7060547-5.7929688-5.7060547s-5.7929688,2.5595703-5.7929688,5.7060547    C119.9238281,62.8457031,122.5224609,65.4111328,125.7167969,65.4111328z M125.7167969,55.9863281    c2.0917969,0,3.7929688,1.6621094,3.7929688,3.7060547c0,2.0507813-1.7011719,3.71875-3.7929688,3.71875    s-3.7929688-1.6679688-3.7929688-3.71875C121.9238281,57.6484375,123.625,55.9863281,125.7167969,55.9863281z"/></g><g><path d="M108.0839844,65.4111328c3.1943359,0,5.7939453-2.5654297,5.7939453-5.71875    c0-3.1464844-2.5996094-5.7060547-5.7939453-5.7060547s-5.7929688,2.5595703-5.7929688,5.7060547    C102.2910156,62.8457031,104.8896484,65.4111328,108.0839844,65.4111328z M108.0839844,55.9863281    c2.0917969,0,3.7939453,1.6621094,3.7939453,3.7060547c0,2.0507813-1.7021484,3.71875-3.7939453,3.71875    s-3.7929688-1.6679688-3.7929688-3.71875C104.2910156,57.6484375,105.9921875,55.9863281,108.0839844,55.9863281z"/></g><g><path d="M92.6328125,65.0283203h2.8300781c0.5527344,0,1-0.4472656,1-1s-0.4472656-1-1-1h-2.8300781c-0.5527344,0-1,0.4472656-1,1    S92.0800781,65.0283203,92.6328125,65.0283203z"/></g><g><path d="M82.1835938,65.0283203h2.8300781c0.5527344,0,1-0.4472656,1-1s-0.4472656-1-1-1h-2.8300781c-0.5527344,0-1,0.4472656-1,1    S81.6308594,65.0283203,82.1835938,65.0283203z"/></g><g><path d="M75.3466797,64.0283203c0-0.5527344-0.4472656-1-1-1H19.4902344c-0.5527344,0-1,0.4472656-1,1s0.4472656,1,1,1h54.8564453    C74.8994141,65.0283203,75.3466797,64.5810547,75.3466797,64.0283203z"/></g><g><path d="M92.6328125,56.3701172h2.8300781c0.5527344,0,1-0.4472656,1-1s-0.4472656-1-1-1h-2.8300781c-0.5527344,0-1,0.4472656-1,1    S92.0800781,56.3701172,92.6328125,56.3701172z"/></g><g><path d="M82.1835938,56.3701172h2.8300781c0.5527344,0,1-0.4472656,1-1s-0.4472656-1-1-1h-2.8300781c-0.5527344,0-1,0.4472656-1,1    S81.6308594,56.3701172,82.1835938,56.3701172z"/></g><g><path d="M19.4902344,56.3701172h54.8564453c0.5527344,0,1-0.4472656,1-1s-0.4472656-1-1-1H19.4902344    c-0.5527344,0-1,0.4472656-1,1S18.9375,56.3701172,19.4902344,56.3701172z"/></g><g><path d="M125.7167969,101.2597656c3.1943359,0,5.7929688-2.5654297,5.7929688-5.71875    c0-3.1464844-2.5986328-5.7070313-5.7929688-5.7070313s-5.7929688,2.5605469-5.7929688,5.7070313    C119.9238281,98.6943359,122.5224609,101.2597656,125.7167969,101.2597656z M125.7167969,91.8339844    c2.0917969,0,3.7929688,1.6630859,3.7929688,3.7070313c0,2.0507813-1.7011719,3.71875-3.7929688,3.71875    s-3.7929688-1.6679688-3.7929688-3.71875C121.9238281,93.4970703,123.625,91.8339844,125.7167969,91.8339844z"/></g><g><path d="M108.0839844,89.8339844c-3.1943359,0-5.7929688,2.5605469-5.7929688,5.7070313    c0,3.1533203,2.5986328,5.71875,5.7929688,5.71875s5.7939453-2.5654297,5.7939453-5.71875    C113.8779297,92.3945313,111.2783203,89.8339844,108.0839844,89.8339844z M108.0839844,99.2597656    c-2.0917969,0-3.7929688-1.6679688-3.7929688-3.71875c0-2.0439453,1.7011719-3.7070313,3.7929688-3.7070313    s3.7939453,1.6630859,3.7939453,3.7070313C111.8779297,97.5917969,110.1757813,99.2597656,108.0839844,99.2597656z"/></g><g><path d="M95.4628906,98.8759766h-2.8300781c-0.5527344,0-1,0.4472656-1,1s0.4472656,1,1,1h2.8300781c0.5527344,0,1-0.4472656,1-1    S96.015625,98.8759766,95.4628906,98.8759766z"/></g><g><path d="M85.0136719,98.8759766h-2.8300781c-0.5527344,0-1,0.4472656-1,1s0.4472656,1,1,1h2.8300781c0.5527344,0,1-0.4472656,1-1    S85.5664063,98.8759766,85.0136719,98.8759766z"/></g><g><path d="M74.3466797,98.8759766H19.4902344c-0.5527344,0-1,0.4472656-1,1s0.4472656,1,1,1h54.8564453c0.5527344,0,1-0.4472656,1-1    S74.8994141,98.8759766,74.3466797,98.8759766z"/></g><g><path d="M95.4628906,90.2177734h-2.8300781c-0.5527344,0-1,0.4472656-1,1s0.4472656,1,1,1h2.8300781c0.5527344,0,1-0.4472656,1-1    S96.015625,90.2177734,95.4628906,90.2177734z"/></g><g><path d="M85.0136719,90.2177734h-2.8300781c-0.5527344,0-1,0.4472656-1,1s0.4472656,1,1,1h2.8300781c0.5527344,0,1-0.4472656,1-1    S85.5664063,90.2177734,85.0136719,90.2177734z"/></g><g><path d="M74.3466797,90.2177734H19.4902344c-0.5527344,0-1,0.4472656-1,1s0.4472656,1,1,1h54.8564453c0.5527344,0,1-0.4472656,1-1    S74.8994141,90.2177734,74.3466797,90.2177734z"/></g></g><text x="0" y="165" fill="#000000" font-size="5px" font-weight="bold" font-family="'Helvetica Neue', Helvetica, Arial-Unicode, Arial, Sans-serif">Created by Dinosoft Labs</text><text x="0" y="170" fill="#000000" font-size="5px" font-weight="bold" font-family="'Helvetica Neue', Helvetica, Arial-Unicode, Arial, Sans-serif">from the Noun Project</text></svg>