<svg xmlns="http://www.w3.org/2000/svg" data-name="Layer 1" viewBox="0 0 100 125" x="0px" y="0px"><title>Artboard 14</title><path d="M73.5,69.13H54.19a1.5,1.5,0,0,0-1.5,1.5V89.95a1.5,1.5,0,0,0,1.5,1.5H73.5a1.5,1.5,0,0,0,1.5-1.5V70.63A1.5,1.5,0,0,0,73.5,69.13ZM72,88.45H65.32V84.59l1.05,1.05a1.5,1.5,0,0,0,2.19-.07,1.59,1.59,0,0,0-.16-2.14l-3.48-3.48a1.53,1.53,0,0,0-2.16,0l-3.48,3.48a1.59,1.59,0,0,0-.16,2.14,1.5,1.5,0,0,0,2.19.07l1-1v3.82H55.69V72.13h6.46a1.7,1.7,0,0,0,0,.22v1.94a1.72,1.72,0,1,0,3.44,0V72.35a1.7,1.7,0,0,0,0-.22H72Z"/><path d="M82.32,45.17h0l-31.1-31.1a1.5,1.5,0,0,0-2.12,0L18,45.16h0l-7.32,7.32a1.5,1.5,0,1,0,2.12,2.12l4.76-4.76v40.1a1.5,1.5,0,0,0,3,0V46.85l29.6-29.6,29.6,29.6v43.1a1.5,1.5,0,0,0,3,0V49.85l4.76,4.76a1.5,1.5,0,0,0,2.12-2.12Z"/><path d="M47.5,69.13H28.19a1.5,1.5,0,0,0-1.5,1.5V89.95a1.5,1.5,0,0,0,1.5,1.5H47.5a1.5,1.5,0,0,0,1.5-1.5V70.63A1.5,1.5,0,0,0,47.5,69.13ZM46,88.45H39.56V84.57h-.24V83.7l1.05,1.05a1.5,1.5,0,0,0,2.19-.07,1.59,1.59,0,0,0-.16-2.14l-3.48-3.48a1.53,1.53,0,0,0-2.16,0l-3.48,3.48a1.59,1.59,0,0,0-.16,2.14,1.5,1.5,0,0,0,2.19.07l1-1v.83h-.2v3.88H29.69V72.13h6.46a1.7,1.7,0,0,0,0,.22v1.94a1.72,1.72,0,0,0,3.44,0V72.35a1.7,1.7,0,0,0,0-.22H46Z"/><path d="M60.69,65a1.5,1.5,0,0,0,1.5-1.5V44.22a1.5,1.5,0,0,0-1.5-1.5H41.37a1.5,1.5,0,0,0-1.5,1.5V63.54a1.5,1.5,0,0,0,1.5,1.5ZM42.87,45.72h6.46a1.7,1.7,0,0,0,0,.22v1.94a1.72,1.72,0,0,0,3.44,0V45.94a1.7,1.7,0,0,0,0-.22h6.46V62H52.51V58.17l1.05,1.05a1.5,1.5,0,0,0,2.19-.07A1.59,1.59,0,0,0,55.59,57l-3.48-3.48a1.53,1.53,0,0,0-2.16,0L46.47,57a1.59,1.59,0,0,0-.16,2.14,1.5,1.5,0,0,0,2.19.07l1-1V62H42.87Z"/><text x="0" y="115" fill="#000000" font-size="5px" font-weight="bold" font-family="'Helvetica Neue', Helvetica, Arial-Unicode, Arial, Sans-serif">Created by Bernar  Novalyi</text><text x="0" y="120" fill="#000000" font-size="5px" font-weight="bold" font-family="'Helvetica Neue', Helvetica, Arial-Unicode, Arial, Sans-serif">from the Noun Project</text></svg>