<svg xmlns:dc="http://purl.org/dc/elements/1.1/" xmlns:cc="http://creativecommons.org/ns#" xmlns:rdf="http://www.w3.org/1999/02/22-rdf-syntax-ns#" xmlns:svg="http://www.w3.org/2000/svg" xmlns="http://www.w3.org/2000/svg" xmlns:sodipodi="http://sodipodi.sourceforge.net/DTD/sodipodi-0.dtd" xmlns:inkscape="http://www.inkscape.org/namespaces/inkscape" version="1.1" x="0px" y="0px" viewBox="0 0 100 125"><g transform="translate(0,-952.36218)"><path style="text-indent:0;text-transform:none;direction:ltr;block-progression:tb;baseline-shift:baseline;color:#000000;enable-background:accumulate;" d="m 10.00175,962.36981 c -3.3067,0 -6,2.6933 -6,6 l 0,59.99999 c 0,3.3067 2.6933,6 6,6 l 61.0938,0 7.1562,7.6562 c 0.4125,0.4525 1.0906,0.4233 1.4688,0 l 13.9062,-14.875 c 3.162,-3.3906 3.162,-8.7968 0,-12.1874 -2.0596,-2.2086 -4.9608,-3.0103 -7.625,-2.3438 l 0,-44.24999 c 0,-3.3067 -2.6933,-6 -6,-6 l -70,0 z m 0,2 70,0 c 2.2333,0 4,1.7667 4,4 l 0,14 -78,0 0,-14 c 0,-2.2333 1.7667,-4 4,-4 z m 5,5 c -2.1973,0 -4,1.8027 -4,4 0,2.1973 1.8027,4 4,4 2.1973,0 4,-1.8027 4,-4 0,-2.1973 -1.8027,-4 -4,-4 z m 13,0 c -2.1973,0 -4,1.8027 -4,4 0,2.1973 1.8027,4 4,4 2.1973,0 4,-1.8027 4,-4 0,-2.1973 -1.8027,-4 -4,-4 z m 13,0 c -2.1973,0 -4,1.8027 -4,4 0,2.1973 1.8027,4 4,4 2.1973,0 4,-1.8027 4,-4 0,-2.1973 -1.8027,-4 -4,-4 z m -26,2 c 1.1164,0 2,0.8836 2,2 0,1.1164 -0.8836,2 -2,2 -1.1164,0 -2,-0.8836 -2,-2 0,-1.1164 0.8836,-2 2,-2 z m 13,0 c 1.1164,0 2,0.8836 2,2 0,1.1164 -0.8836,2 -2,2 -1.1164,0 -2,-0.8836 -2,-2 0,-1.1164 0.8836,-2 2,-2 z m 13,0 c 1.1164,0 2,0.8836 2,2 0,1.1164 -0.8836,2 -2,2 -1.1164,0 -2,-0.8836 -2,-2 0,-1.1164 0.8836,-2 2,-2 z m -35,13 78,0 0,29.06249 c -0.6785,0.3968 -1.3288,0.9054 -1.9062,1.5313 l -3.0938,3.3124 -3.0938,-3.3124 c -3.568,-3.6758 -8.4557,-3.1917 -11.5312,0 -3.1621,3.3906 -3.1621,8.7968 0,12.1874 l 4.875,5.2188 -59.25,0 c -2.2333,0 -4,-1.7667 -4,-4 l 0,-43.99999 z m 81.8438,29.99999 c 1.5493,0 3.0961,0.6645 4.3124,1.9688 2.4325,2.6084 2.4325,6.829 0,9.4374 l -13.1562,14.125 -13.1562,-14.125 c -2.4327,-2.6084 -2.4327,-6.829 0,-9.4374 1.2163,-1.3044 2.7632,-1.9376 4.3124,-1.9376 1.5492,0 3.0943,0.6312 4.3126,1.9376 l 3.7812,4.0937 c 0.3734,0.4037 1.0955,0.4037 1.4688,0 l 3.8124,-4.0937 c 1.2164,-1.3043 2.763,-1.9688 4.3126,-1.9688 z" fill="#000000" fill-opacity="1" stroke="none" marker="none" visibility="visible" display="inline" overflow="visible"/></g><text x="0" y="115" fill="#000000" font-size="5px" font-weight="bold" font-family="'Helvetica Neue', Helvetica, Arial-Unicode, Arial, Sans-serif">Created by Aybige Aya</text><text x="0" y="120" fill="#000000" font-size="5px" font-weight="bold" font-family="'Helvetica Neue', Helvetica, Arial-Unicode, Arial, Sans-serif">from the Noun Project</text></svg>