<svg xmlns:dc="http://purl.org/dc/elements/1.1/" xmlns:cc="http://creativecommons.org/ns#" xmlns:rdf="http://www.w3.org/1999/02/22-rdf-syntax-ns#" xmlns:svg="http://www.w3.org/2000/svg" xmlns="http://www.w3.org/2000/svg" xmlns:sodipodi="http://sodipodi.sourceforge.net/DTD/sodipodi-0.dtd" xmlns:inkscape="http://www.inkscape.org/namespaces/inkscape" version="1.1" x="0px" y="0px" viewBox="0 0 100 125"><g transform="translate(0,-952.36218)"><path style="color:#000000;enable-background:accumulate;" d="m 17,971.36217 c -2.77,0 -5,2.23 -5,5 l 0,42.00003 76,0 0,-42.00003 c 0,-2.77 -2.23,-5 -5,-5 l -66,0 z m 36.75,8.0312 c 1.3227,-0.1826 2.5754,1.2225 2.1875,2.5 l -8,28.00003 c -0.2862,1.0145 -1.4776,1.6731 -2.5,1.4063 -1.02,-0.2662 -1.6616,-1.4856 -1.375,-2.5 l 8,-28.00003 c 0.2043,-0.7643 0.9021,-1.3092 1.6875,-1.4063 z m -14.9375,3.9376 c 0.9087,-0.1164 1.8645,0.4755 2.1563,1.3437 0.2919,0.8682 -0.1118,1.9191 -0.9063,2.375 l -13.2813,8.3125 13.2813,8.28123 c 0.8919,0.5561 1.2126,1.8585 0.6563,2.75 -0.5564,0.8918 -1.8896,1.2128 -2.7813,0.6563 l -16,-10.00003 c -1.3464,-0.8703 -1.1567,-2.6941 0,-3.4063 l 16,-10 c 0.2619,-0.1705 0.5643,-0.2784 0.875,-0.3124 z m 22.0937,0 c 0.4052,-0.016 0.8146,0.094 1.1563,0.3124 l 16,10 c 1.1567,0.7122 1.341,2.5659 0,3.4063 l -16,10.00003 c -0.8917,0.5565 -2.1937,0.2355 -2.75,-0.6563 -0.5564,-0.8915 -0.267,-2.1939 0.625,-2.75 l 13.2813,-8.28123 -13.2813,-8.3125 c -0.7389,-0.4392 -1.1229,-1.3872 -0.9063,-2.2187 0.2167,-0.8317 1.0159,-1.477 1.875,-1.5 z M 8,1022.3622 l 0,5 c 0,3.324 2.676,6 6,6 l 72,0 c 3.324,0 6,-2.676 6,-6 l 0,-5 -34,0 0,4 -16,0 0,-4 -34,0 z" fill="#000000" fill-opacity="1" fill-rule="nonzero" stroke="none" marker="none" visibility="visible" display="inline" overflow="visible"/></g><text x="0" y="115" fill="#000000" font-size="5px" font-weight="bold" font-family="'Helvetica Neue', Helvetica, Arial-Unicode, Arial, Sans-serif">Created by Aybige Aya</text><text x="0" y="120" fill="#000000" font-size="5px" font-weight="bold" font-family="'Helvetica Neue', Helvetica, Arial-Unicode, Arial, Sans-serif">from the Noun Project</text></svg>